<?xml version="1.0" standalone="no"?>
<!DOCTYPE svg PUBLIC "-//W3C//DTD SVG 1.1//EN" "http://www.w3.org/Graphics/SVG/1.1/DTD/svg11.dtd" >
<svg>
<metadata>
Created by FontForge 20090622 at Sun May  6 13:58:11 2018
 By deploy user
Copyright (c) 2007 by Silas Dilworth. All rights reserved.
</metadata>
<defs>
<font id="BreuerText-Medium" horiz-adv-x="228" >
  <font-face 
    font-family="Breuer Text Light"
    font-weight="600"
    font-stretch="normal"
    units-per-em="1000"
    panose-1="2 0 8 6 4 0 0 2 0 4"
    ascent="750"
    descent="-250"
    x-height="500"
    cap-height="650"
    bbox="-45 -197 962 885"
    underline-thickness="50"
    underline-position="-100"
    unicode-range="U+0020-U+2265"
  />
<missing-glyph horiz-adv-x="450" 
d="M50 0v650h350v-650h-350zM241 325l129 -285v570zM208 325l-128 285v-570zM109 620l116 -259l116 259h-232zM225 288l-116 -258h232z" />
    <glyph glyph-name=".notdef" horiz-adv-x="450" 
d="M50 0v650h350v-650h-350zM241 325l129 -285v570zM208 325l-128 285v-570zM109 620l116 -259l116 259h-232zM225 288l-116 -258h232z" />
    <glyph glyph-name=".null" horiz-adv-x="0" 
 />
    <glyph glyph-name="nonmarkingreturn" horiz-adv-x="333" 
 />
    <glyph glyph-name="space" unicode=" " horiz-adv-x="230" 
 />
    <glyph glyph-name="exclam" unicode="!" horiz-adv-x="261" 
d="M90 198l-30 452h141l-31 -452h-80zM70 0v120h120v-120h-120z" />
    <glyph glyph-name="quotedbl" unicode="&#x22;" horiz-adv-x="334" 
d="M152 650l-29 -250h-55l-28 250h112zM294 650l-29 -250h-55l-28 250h112z" />
    <glyph glyph-name="numbersign" unicode="#" horiz-adv-x="561" 
d="M503 227l-6 -66h-97l-14 -161h-76l14 161h-117l-14 -161h-75l14 161h-97l6 66h97l17 197h-97l6 66h97l14 160h75l-14 -160h117l14 160h76l-14 -160h97l-6 -66h-97l-17 -197h97zM230 424l-17 -197h117l17 197h-117z" />
    <glyph glyph-name="dollar" unicode="$" horiz-adv-x="516" 
d="M302 -20h-87v89q-92 7 -128.5 47t-36.5 116h108q0 -42 20 -58t79 -16q61 0 81 14.5t20 48.5q0 36 -23 51.5t-94 21.5q-106 9 -145 41t-39 104q0 135 158 149v82h87v-82q82 -8 118 -46t36 -117h-108q0 36 -18.5 55.5t-74.5 19.5q-90 0 -90 -62q0 -34 20 -49.5t76 -19.5
q122 -10 163.5 -41.5t41.5 -106.5q0 -32 -5 -53.5t-20.5 -44.5t-50 -36.5t-88.5 -17.5v-89z" />
    <glyph glyph-name="percent" unicode="%" horiz-adv-x="643" 
d="M564 650l-409 -650h-76l408 650h77zM112 524q0 -56 13 -75t50 -19q35 0 49 18t14 68t-14 68t-49 18t-49 -16.5t-14 -61.5zM405 141q0 -56 13 -75t50 -19q35 0 49 18t14 68t-14 68t-49 18t-49 -16.5t-14 -61.5zM603 133q0 -80 -32 -112t-103 -32q-72 0 -103.5 32
t-31.5 112t32 112.5t103 32.5t103 -32.5t32 -112.5zM310 516q0 -80 -32 -112.5t-103 -32.5q-72 0 -103.5 32t-31.5 113q0 80 32 112.5t103 32.5t103 -32.5t32 -112.5z" />
    <glyph glyph-name="ampersand" unicode="&#x26;" horiz-adv-x="588" 
d="M558 285h-74v-124q0 -40 20.5 -55.5t63.5 -15.5v-90q-52 0 -85.5 13t-55.5 45q-22 -30 -65.5 -49.5t-99.5 -19.5q-112 0 -167 45.5t-55 141.5q0 56 28.5 96.5t76.5 60.5q-40 21 -64.5 59.5t-24.5 87.5q0 89 53 135t152 46q112 0 160 -44t48 -142h-108q0 49 -24.5 71.5
t-75.5 22.5q-49 0 -73 -22t-24 -72q0 -48 22 -74t62 -26h310v-90zM261 79q61 0 88 27.5t27 84.5v94h-135q-40 0 -66.5 -27t-26.5 -76q0 -56 28.5 -79.5t84.5 -23.5z" />
    <glyph glyph-name="quotesingle" unicode="'" horiz-adv-x="192" 
d="M152 650l-29 -250h-55l-28 250h112z" />
    <glyph glyph-name="parenleft" unicode="(" horiz-adv-x="320" 
d="M139 285q0 -236 141 -405h-81q-149 169 -149 405t149 405h81q-141 -169 -141 -405z" />
    <glyph glyph-name="parenright" unicode=")" horiz-adv-x="320" 
d="M181 285q0 236 -141 405h81q149 -169 149 -405t-149 -405h-81q141 169 141 405z" />
    <glyph glyph-name="asterisk" unicode="*" horiz-adv-x="515" 
d="M278 485l163 97l38 -120l-188 -17l143 -125l-102 -73l-75 174l-75 -174l-102 73l143 125l-188 17l38 120l163 -97l-42 185h126z" />
    <glyph glyph-name="plus" unicode="+" horiz-adv-x="510" 
d="M50 235v80h165v165h80v-165h165v-80h-165v-166h-80v166h-165z" />
    <glyph glyph-name="comma" unicode="," horiz-adv-x="220" 
d="M50 -100v220h120l-50 -220h-70z" />
    <glyph glyph-name="hyphen" unicode="-" horiz-adv-x="350" 
d="M50 234v90h250v-90h-250z" />
    <glyph glyph-name="period" unicode="." horiz-adv-x="220" 
d="M50 0v120h120v-120h-120z" />
    <glyph glyph-name="slash" unicode="/" horiz-adv-x="318" 
d="M30 -40l169 730h89l-169 -730h-89z" />
    <glyph glyph-name="zero" unicode="0" horiz-adv-x="558" 
d="M160 436v-222q0 -76 27 -103.5t92 -27.5t92 27.5t27 103.5v222q0 76 -27 103.5t-92 27.5t-92 -27.5t-27 -103.5zM508 433v-215q0 -122 -55.5 -175.5t-173.5 -53.5t-173.5 53.5t-55.5 175.5v215q0 122 55.5 175t173.5 53t173.5 -53t55.5 -175z" />
    <glyph glyph-name="one" unicode="1" horiz-adv-x="362" 
d="M262 0h-110v556h-102v54l144 40h68v-650z" />
    <glyph glyph-name="two" unicode="2" horiz-adv-x="537" 
d="M161 456h-110q0 205 219 205q120 0 169 -51.5t49 -149.5q0 -64 -33.5 -110t-81 -72.5t-95 -49.5t-81 -56t-33.5 -78h333v-94h-447v63q0 53 18 95.5t47 69t64 48.5t69.5 40t63.5 36.5t47 44.5t18 59q0 58 -23.5 84.5t-83.5 26.5t-84.5 -27t-24.5 -84z" />
    <glyph glyph-name="three" unicode="3" horiz-adv-x="557" 
d="M395 188q0 97 -102 97h-71v90h66q94 0 94 94q0 98 -111 98q-60 0 -86.5 -27t-26.5 -84h-110q0 205 223 205q221 0 221 -193q0 -47 -27 -81.5t-73 -51.5q115 -36 115 -151q0 -97 -52 -146t-181 -49q-123 0 -176 51t-53 154h110q0 -57 27.5 -84t91.5 -27q65 0 93 24.5
t28 80.5z" />
    <glyph glyph-name="four" unicode="4" horiz-adv-x="560" 
d="M340 0v142h-310v85l279 423h141v-418h80v-90h-80v-142h-110zM133 232h207v318z" />
    <glyph glyph-name="five" unicode="5" horiz-adv-x="558" 
d="M191 556l-14 -176q67 42 135 42q97 0 146.5 -46.5t49.5 -160.5q0 -113 -54 -169.5t-176 -56.5q-118 0 -173 51.5t-55 153.5h110q0 -111 118 -111q62 0 91 31t29 101t-28 100t-88 30q-53 0 -102 -40h-113l30 345h380v-94h-286z" />
    <glyph glyph-name="six" unicode="6" horiz-adv-x="555" 
d="M160 437v-85q64 39 149 39q104 0 150 -46.5t46 -140.5q0 -103 -52.5 -159t-173.5 -56q-126 0 -177.5 57.5t-51.5 169.5v220q0 115 54 170t168 55q116 0 168.5 -47.5t52.5 -144.5h-110q0 52 -25 75t-86 23q-59 0 -85.5 -29t-26.5 -101zM282 316q-68 0 -122 -39v-61
q0 -74 25 -103.5t91 -29.5q67 0 93 27.5t26 89.5t-24.5 89t-88.5 27z" />
    <glyph glyph-name="seven" unicode="7" horiz-adv-x="472" 
d="M227 0h-116l219 556h-305v94h422v-82z" />
    <glyph glyph-name="eight" unicode="8" horiz-adv-x="558" 
d="M279 -11q-124 0 -181.5 43t-57.5 141q0 121 114 160q-98 39 -98 146q0 97 55.5 139.5t167.5 42.5t167.5 -42.5t55.5 -139.5q0 -107 -98 -146q114 -39 114 -160q0 -98 -57.5 -141t-181.5 -43zM279 567q-61 0 -87 -21t-26 -76q0 -59 26.5 -80t86.5 -21q59 0 86 21t27 80
q0 55 -26 76t-87 21zM279 83q67 0 97 23t30 77q0 57 -29.5 80.5t-97.5 23.5t-97.5 -23.5t-29.5 -80.5q0 -54 30 -77t97 -23z" />
    <glyph glyph-name="nine" unicode="9" horiz-adv-x="555" 
d="M283 83q59 0 85.5 29t26.5 101v84q-67 -38 -149 -38q-104 0 -150 46.5t-46 140.5q0 103 52.5 159t173.5 56q126 0 177.5 -57.5t51.5 -169.5v-220q0 -115 -54 -170t-168 -55q-116 0 -168.5 47.5t-52.5 144.5h110q0 -52 25 -75t86 -23zM273 334q70 0 122 38v62
q0 74 -25 103.5t-91 29.5q-67 0 -93 -27.5t-26 -89.5t24.5 -89t88.5 -27z" />
    <glyph glyph-name="colon" unicode=":" horiz-adv-x="220" 
d="M50 0v120h120v-120h-120zM50 300v120h120v-120h-120z" />
    <glyph glyph-name="semicolon" unicode=";" horiz-adv-x="220" 
d="M50 300v120h120v-120h-120zM50 -100v220h120l-50 -220h-70z" />
    <glyph glyph-name="less" unicode="&#x3c;" horiz-adv-x="352" 
d="M222 -40l-182 365l182 365h90l-184 -365l184 -365h-90z" />
    <glyph glyph-name="equal" unicode="=" horiz-adv-x="510" 
d="M460 335h-410v80h410v-80zM460 135h-410v80h410v-80z" />
    <glyph glyph-name="greater" unicode="&#x3e;" horiz-adv-x="352" 
d="M312 325l-182 -365h-90l184 365l-184 365h90z" />
    <glyph glyph-name="question" unicode="?" horiz-adv-x="535" 
d="M230 196l-15 150q90 0 124 22t34 99q0 102 -107 102q-106 0 -106 -102h-110q0 194 213 194q113 0 167.5 -47.5t54.5 -146.5q0 -100 -44.5 -146.5t-133.5 -55.5l-7 -69h-70zM205 0v120h120v-120h-120z" />
    <glyph glyph-name="at" unicode="@" horiz-adv-x="774" 
d="M60 170v146q0 131 81.5 203t245.5 72q163 0 245 -72t82 -203v-146q0 -131 -82 -203t-245 -72q-161 0 -244 72.5t-83 202.5zM136 312v-138q0 -207 251 -207t251 207v138q0 207 -251 207t-251 -207zM228 173q0 94 124 101l110 6v35q0 32 -17.5 45t-59.5 13q-39 0 -56 -14.5
t-17 -49.5h-70q0 70 38 98t105 28q75 0 111 -27.5t36 -92.5v-240h-51l-8 29q-57 -37 -114 -37q-62 0 -96.5 27t-34.5 79zM361 130q51 0 101 33v64l-104 -8q-31 -2 -45 -11.5t-14 -31.5q0 -46 62 -46z" />
    <glyph glyph-name="A" unicode="A" horiz-adv-x="530" 
d="M401 0l-36 141h-201l-35 -141h-114l180 650h139l181 -650h-114zM264 550l-78 -319h157l-77 319h-2z" />
    <glyph glyph-name="B" unicode="B" horiz-adv-x="555" 
d="M65 0v650h219q112 0 161.5 -40t49.5 -128q0 -53 -23 -91t-62 -54q105 -35 105 -157q0 -91 -51.5 -135.5t-163.5 -44.5h-235zM175 94h121q55 0 80 22t25 73q0 96 -105 96h-121v-191zM286 556h-111v-181h117q93 0 93 91q0 47 -24 68.5t-75 21.5z" />
    <glyph glyph-name="C" unicode="C" horiz-adv-x="545" 
d="M278 83q60 0 86 26t26 88h110q0 -109 -53 -158.5t-169 -49.5q-120 0 -174 54t-54 179v206q0 125 54.5 179t173.5 54q116 0 169 -49.5t53 -158.5h-110q0 60 -26.5 87t-85.5 27q-63 0 -90.5 -28.5t-27.5 -99.5v-228q0 -71 27.5 -99.5t90.5 -28.5z" />
    <glyph glyph-name="D" unicode="D" horiz-adv-x="567" 
d="M272 556h-97v-462h97q74 0 104.5 29t30.5 102v205q0 81 -30.5 103.5t-104.5 22.5zM274 0h-209v650h209q128 0 185.5 -48t57.5 -183v-187q0 -135 -58 -183.5t-185 -48.5z" />
    <glyph glyph-name="E" unicode="E" horiz-adv-x="500" 
d="M65 0v650h385v-94h-275v-181h240v-90h-240v-191h275v-94h-385z" />
    <glyph glyph-name="F" unicode="F" horiz-adv-x="461" 
d="M175 0h-110v650h366v-94h-256v-181h221v-90h-221v-285z" />
    <glyph glyph-name="G" unicode="G" horiz-adv-x="565" 
d="M278 -11q-120 0 -174 54t-54 179v206q0 125 54.5 179t173.5 54q116 0 169 -49.5t53 -158.5h-110q0 60 -26.5 87t-85.5 27q-63 0 -90.5 -28.5t-27.5 -99.5v-228q0 -73 28.5 -100.5t94.5 -27.5q63 0 90 25.5t27 88.5v88h-118v90h228v-375h-55l-18 51q-57 -62 -159 -62z" />
    <glyph glyph-name="H" unicode="H" horiz-adv-x="572" 
d="M507 650v-650h-110v285h-222v-285h-110v650h110v-275h222v275h110z" />
    <glyph glyph-name="I" unicode="I" horiz-adv-x="240" 
d="M65 0v650h110v-650h-110z" />
    <glyph glyph-name="J" unicode="J" horiz-adv-x="359" 
d="M184 556h-109v94h219v-500q0 -85 -35 -123t-135 -38q-47 0 -94 11v94q40 -11 86 -11q36 0 52 16t16 52v405z" />
    <glyph glyph-name="K" unicode="K" horiz-adv-x="511" 
d="M496 650l-231 -315l236 -335h-127q-203 300 -199 286v-286h-110v650h110v-276l192 276h129z" />
    <glyph glyph-name="L" unicode="L" horiz-adv-x="417" 
d="M65 0v650h110v-556h217v-94h-327z" />
    <glyph glyph-name="M" unicode="M" horiz-adv-x="724" 
d="M557 531l-153 -531h-84l-153 531l6 -178v-353h-108v650h156l140 -493h2l140 493h156v-650h-108v353z" />
    <glyph glyph-name="N" unicode="N" horiz-adv-x="579" 
d="M514 650v-650h-138l-210 514q5 -80 5 -194v-320h-106v650h138l210 -514q0 20 -2.5 90.5t-2.5 93.5v330h106z" />
    <glyph glyph-name="O" unicode="O" horiz-adv-x="564" 
d="M160 436v-222q0 -73 29 -102t93 -29t93 29t29 102v222q0 73 -29 102t-93 29t-93 -29t-29 -102zM514 435v-220q0 -121 -55 -173.5t-177 -52.5t-177 52.5t-55 173.5v220q0 121 55 173.5t177 52.5t177 -52.5t55 -173.5z" />
    <glyph glyph-name="P" unicode="P" horiz-adv-x="548" 
d="M175 326h108q63 0 87.5 23.5t24.5 91.5t-24.5 91.5t-87.5 23.5h-108v-230zM65 0v650h216q121 0 174 -43.5t53 -164.5q0 -114 -53 -160t-172 -46h-108v-236h-110z" />
    <glyph glyph-name="Q" unicode="Q" horiz-adv-x="564" 
d="M514 435v-220q0 -108 -44.5 -161.5t-140.5 -62.5q4 -24 18 -33t41 -9h56l-23 -55h-65q-109 0 -121 97q-97 9 -141 62t-44 162v220q0 121 55 173.5t177 52.5t177 -52.5t55 -173.5zM160 436v-222q0 -73 29 -102t93 -29t93 29t29 102v222q0 73 -29 102t-93 29t-93 -29
t-29 -102z" />
    <glyph glyph-name="R" unicode="R" horiz-adv-x="557" 
d="M65 0v650h214q122 0 175.5 -43.5t53.5 -164.5q0 -80 -26 -125t-80 -64l120 -253h-121l-109 237h-117v-237h-110zM175 327h106q63 0 88.5 23.5t25.5 90.5q0 68 -25.5 91.5t-88.5 23.5h-106v-229z" />
    <glyph glyph-name="S" unicode="S" horiz-adv-x="554" 
d="M490 473h-110q0 51 -25.5 72.5t-84.5 21.5q-58 0 -85 -21t-27 -68q0 -52 26 -74t108 -34q123 -18 167.5 -58.5t44.5 -126.5q0 -104 -58 -150t-176 -46q-116 0 -173 45t-57 151h110q0 -56 28 -79t92 -23q66 0 94 23t28 79q0 48 -27.5 69.5t-116.5 35.5q-105 16 -152.5 59
t-47.5 130q0 88 54.5 135t166.5 47q115 0 168 -43.5t53 -144.5z" />
    <glyph glyph-name="T" unicode="T" horiz-adv-x="458" 
d="M174 0v556h-154v94h418v-94h-154v-556h-110z" />
    <glyph glyph-name="U" unicode="U" horiz-adv-x="570" 
d="M60 650h110v-448q0 -64 28 -91.5t87 -27.5t87 27.5t28 91.5v448h110v-444q0 -120 -55 -168.5t-170 -48.5t-170 48.5t-55 168.5v444z" />
    <glyph glyph-name="V" unicode="V" horiz-adv-x="530" 
d="M264 110h2l135 540h114l-181 -650h-139l-180 650h114z" />
    <glyph glyph-name="W" unicode="W" horiz-adv-x="818" 
d="M504 0l-95 540l-95 -540h-151l-133 650h112l97 -540h2l97 540h142l97 -540h2l97 540h112l-133 -650h-151z" />
    <glyph glyph-name="X" unicode="X" horiz-adv-x="503" 
d="M140 650l111 -228h1l111 228h124l-175 -316l181 -334h-123l-118 245h-1l-118 -245h-123l181 334l-175 316h124z" />
    <glyph glyph-name="Y" unicode="Y" horiz-adv-x="514" 
d="M202 0v246l-187 404h120l121 -295h2l121 295h120l-187 -404v-246h-110z" />
    <glyph glyph-name="Z" unicode="Z" horiz-adv-x="508" 
d="M55 556v94h403v-85l-285 -471h295v-94h-423v84l284 472h-274z" />
    <glyph glyph-name="bracketleft" unicode="[" horiz-adv-x="304" 
d="M70 -120v810h184v-60h-104v-690h104v-60h-184z" />
    <glyph glyph-name="backslash" unicode="\" horiz-adv-x="318" 
d="M119 690l169 -730h-89l-169 730h89z" />
    <glyph glyph-name="bracketright" unicode="]" horiz-adv-x="304" 
d="M234 690v-810h-184v60h104v690h-104v60h184z" />
    <glyph glyph-name="asciicircum" unicode="^" horiz-adv-x="484" 
d="M241 563l-98 -212h-93l146 299h94l144 -299h-93l-98 212h-2z" />
    <glyph glyph-name="underscore" unicode="_" horiz-adv-x="475" 
d="M50 0v90h375v-90h-375z" />
    <glyph glyph-name="grave" unicode="`" horiz-adv-x="235" 
d="M153 685l35 -120h-67l-76 120h108z" />
    <glyph glyph-name="a" unicode="a" horiz-adv-x="516" 
d="M353 222l-138 -17q-66 -9 -66 -65q0 -61 77 -61q75 0 127 44v99zM219 -11q-179 0 -179 143q0 137 164 149l149 10v51q0 41 -20 60t-74 19q-51 0 -72.5 -20t-21.5 -60h-108q0 88 50 129t152 41q110 0 156 -39.5t46 -129.5v-342h-74l-22 43q-66 -54 -146 -54z" />
    <glyph glyph-name="b" unicode="b" horiz-adv-x="538" 
d="M60 670h108v-205q67 46 139 46q93 0 139.5 -45.5t46.5 -172.5v-86q0 -127 -46.5 -172.5t-139.5 -45.5q-82 0 -151 54l-22 -43h-74v670zM168 377v-254q48 -44 122 -44q48 0 71.5 30t23.5 103v76q0 74 -23 103.5t-72 29.5q-74 0 -122 -44z" />
    <glyph glyph-name="c" unicode="c" horiz-adv-x="514" 
d="M469 327h-108q-2 55 -23 74.5t-74 19.5q-64 0 -87.5 -29.5t-23.5 -115.5v-52q0 -86 23.5 -115.5t87.5 -29.5q53 0 74 19.5t23 74.5h108q0 -100 -50.5 -142t-154.5 -42q-116 0 -167.5 51.5t-51.5 183.5v52q0 132 52.5 183.5t166.5 51.5q104 0 154.5 -42t50.5 -142z" />
    <glyph glyph-name="d" unicode="d" horiz-adv-x="538" 
d="M370 670h108v-670h-74l-22 43q-69 -54 -151 -54q-93 0 -139.5 45.5t-46.5 172.5v86q0 127 46.5 172.5t139.5 45.5q72 0 139 -46v205zM370 123v254q-48 44 -122 44q-49 0 -72 -29.5t-23 -103.5v-76q0 -73 23.5 -103t71.5 -30q74 0 122 44z" />
    <glyph glyph-name="e" unicode="e" horiz-adv-x="511" 
d="M153 288h210q0 76 -18 104.5t-84 28.5t-87 -29t-21 -104zM261 79q95 0 186 16v-88q-94 -18 -179 -18q-117 0 -170 50.5t-53 184.5v52q0 131 52.5 183t163.5 52q107 0 158.5 -52t51.5 -183v-64h-318q0 -76 23 -104.5t85 -28.5z" />
    <glyph glyph-name="f" unicode="f" horiz-adv-x="334" 
d="M309 675v-87q-37 8 -58 8q-47 0 -47 -49v-47h85v-90h-85v-410h-108v410h-71v75l71 15v45q0 73 31.5 107t97.5 34q47 0 84 -11z" />
    <glyph glyph-name="g" unicode="g" horiz-adv-x="538" 
d="M370 1v46q-68 -47 -139 -47q-93 0 -139.5 45.5t-46.5 172.5v75q0 127 46.5 172.5t139.5 45.5q82 0 151 -54l22 43h74v-499q0 -93 -51 -137t-158 -44q-88 0 -158 19v93q76 -22 157 -22q55 0 78.5 20t23.5 71zM370 134v243q-48 44 -122 44q-49 0 -72 -29.5t-23 -103.5v-65
q0 -73 23.5 -103t71.5 -30q74 0 122 44z" />
    <glyph glyph-name="h" unicode="h" horiz-adv-x="531" 
d="M168 670v-205q70 46 153 46q86 0 120.5 -42t34.5 -139v-330h-108v330q0 52 -20 71.5t-65 19.5q-67 0 -115 -44v-377h-108v670h108z" />
    <glyph glyph-name="i" unicode="i" 
d="M60 0v500h108v-500h-108zM60 562v108h108v-108h-108z" />
    <glyph glyph-name="j" unicode="j" 
d="M168 500v-539q0 -72 -30 -106.5t-99 -34.5q-47 0 -84 11v90q37 -8 58 -8q47 0 47 49v538h108zM60 562v108h108v-108h-108z" />
    <glyph glyph-name="k" unicode="k" horiz-adv-x="477" 
d="M168 230v-230h-108v670h108v-372h2l158 202h127l-194 -234l206 -266h-131l-166 230h-2z" />
    <glyph glyph-name="l" unicode="l" 
d="M60 0v670h108v-670h-108z" />
    <glyph glyph-name="m" unicode="m" horiz-adv-x="783" 
d="M134 500l22 -43q76 54 146 54q83 0 125 -54q80 54 153 54q84 0 113.5 -40.5t29.5 -140.5v-330h-108v330q0 53 -15 72t-56 19q-49 0 -99 -44v-377h-108v330q0 53 -15 72t-56 19q-51 0 -98 -44v-377h-108v500h74z" />
    <glyph glyph-name="n" unicode="n" horiz-adv-x="531" 
d="M60 500h74l22 -43q77 54 165 54q86 0 120.5 -42t34.5 -139v-330h-108v330q0 52 -20 71.5t-65 19.5q-65 0 -115 -44v-377h-108v500z" />
    <glyph glyph-name="o" unicode="o" horiz-adv-x="516" 
d="M476 276v-52q0 -131 -51.5 -183t-166.5 -52t-166.5 52t-51.5 183v52q0 130 52 182.5t166 52.5t166 -52.5t52 -182.5zM368 224v52q0 86 -23 115.5t-87 29.5t-87 -29.5t-23 -115.5v-52q0 -86 23 -115.5t87 -29.5t87 29.5t23 115.5z" />
    <glyph glyph-name="p" unicode="p" horiz-adv-x="538" 
d="M168 -170h-108v670h74l22 -43q71 54 151 54q93 0 139.5 -45.5t46.5 -172.5v-86q0 -127 -46.5 -172.5t-139.5 -45.5q-72 0 -139 46v-205zM168 377v-254q48 -44 122 -44q49 0 72 29.5t23 103.5v76q0 73 -23.5 103t-71.5 30q-74 0 -122 -44z" />
    <glyph glyph-name="q" unicode="q" horiz-adv-x="538" 
d="M478 -170h-108v205q-67 -46 -139 -46q-93 0 -139.5 45.5t-46.5 172.5v86q0 127 46.5 172.5t139.5 45.5q80 0 151 -54l22 43h74v-670zM370 123v254q-48 44 -122 44q-48 0 -71.5 -30t-23.5 -103v-76q0 -74 23 -103.5t72 -29.5q74 0 122 44z" />
    <glyph glyph-name="r" unicode="r" horiz-adv-x="329" 
d="M299 511v-96q-81 0 -131 -44v-371h-108v500h74l22 -43q65 54 143 54z" />
    <glyph glyph-name="s" unicode="s" horiz-adv-x="496" 
d="M456 142q0 -35 -6 -58t-25.5 -47t-64 -36t-113.5 -12q-117 0 -162 40t-45 124h107q0 -42 20.5 -58t79.5 -16q61 0 81 14.5t20 48.5q0 36 -22.5 51.5t-94.5 21.5q-105 9 -144.5 42t-39.5 103q0 151 198 151q108 0 154.5 -37.5t46.5 -127.5h-108q0 36 -18.5 55.5
t-74.5 19.5q-50 0 -70.5 -14.5t-20.5 -47.5t20.5 -49t76.5 -20q122 -10 163.5 -41.5t41.5 -106.5z" />
    <glyph glyph-name="t" unicode="t" horiz-adv-x="344" 
d="M304 87v-87q-37 -11 -84 -11q-69 0 -99 34.5t-30 106.5v280h-71v75l71 15v117l108 23v-140h105v-90h-105v-281q0 -50 47 -50q21 0 58 8z" />
    <glyph glyph-name="u" unicode="u" horiz-adv-x="536" 
d="M476 0h-74l-22 43q-77 -54 -165 -54q-86 0 -120.5 42t-34.5 139v330h108v-330q0 -52 20 -71.5t65 -19.5q65 0 115 44v377h108v-500z" />
    <glyph glyph-name="v" unicode="v" horiz-adv-x="478" 
d="M126 500l112 -390h2l112 390h116l-169 -500h-120l-169 500h116z" />
    <glyph glyph-name="w" unicode="w" horiz-adv-x="738" 
d="M522 102l79 398h112l-125 -500h-130l-89 394l-89 -394h-130l-125 500h112l79 -397h1l91 397h122l91 -398h1z" />
    <glyph glyph-name="x" unicode="x" horiz-adv-x="475" 
d="M237 337l97 163h123l-161 -245l169 -255h-125l-102 172h-1l-102 -172h-125l169 255l-161 245h123z" />
    <glyph glyph-name="y" unicode="y" horiz-adv-x="489" 
d="M195 1l-180 499h116l116 -372h2l114 372h116l-199 -562q-24 -66 -62 -92t-117 -26q-34 0 -61 10v90q30 -10 61 -10q35 0 52 13.5t31 48.5z" />
    <glyph glyph-name="z" unicode="z" horiz-adv-x="478" 
d="M50 410v90h382v-75l-255 -335h266v-90h-403v74l255 336h-245z" />
    <glyph glyph-name="braceleft" unicode="{" horiz-adv-x="374" 
d="M221 187v-197q0 -26 11.5 -38t36.5 -12h55v-60h-55q-69 0 -98.5 25.5t-29.5 91.5v213q0 24 -9.5 34t-33.5 10h-58v61h58q23 0 33 10t10 34v214q0 65 29.5 91t98.5 26h55v-60h-55q-48 0 -48 -50v-178q0 -52 -8.5 -77t-38.5 -40q47 -24 47 -98z" />
    <glyph glyph-name="bar" unicode="|" horiz-adv-x="220" 
d="M140 690v-810h-70v810h70z" />
    <glyph glyph-name="braceright" unicode="}" horiz-adv-x="374" 
d="M153 -10v197q0 74 47 98q-30 15 -38.5 40t-8.5 77v178q0 50 -48 50h-55v60h55q69 0 98.5 -26t29.5 -91v-214q0 -24 10 -34t33 -10h58v-61h-58q-24 0 -33.5 -10t-9.5 -34v-213q0 -66 -29.5 -91.5t-98.5 -25.5h-55v60h55q25 0 36.5 12t11.5 38z" />
    <glyph glyph-name="asciitilde" unicode="~" horiz-adv-x="459" 
d="M146 661q36 0 66 -18.5t53 -36.5t41 -18q22 0 31.5 13t9.5 49h82q0 -81 -29 -113t-87 -32q-36 0 -66 18.5t-53 36.5t-41 18q-22 0 -31.5 -13t-9.5 -49h-82q0 81 29 113t87 32z" />
    <glyph glyph-name="nbspace" unicode="&#xa0;" horiz-adv-x="115" 
 />
    <glyph glyph-name="exclamdown" unicode="&#xa1;" horiz-adv-x="261" 
d="M60 -150l30 452h80l31 -452h-141zM70 380v120h120v-120h-120z" />
    <glyph glyph-name="cent" unicode="&#xa2;" horiz-adv-x="524" 
d="M474 402h-108q-2 55 -23 74.5t-74 19.5q-64 0 -87.5 -29.5t-23.5 -115.5v-52q0 -86 23.5 -115.5t87.5 -29.5q53 0 74 19.5t23 74.5h108q0 -89 -39.5 -131.5t-120.5 -50.5v-86h-87v85q-93 8 -135 61t-42 173v52q0 119 43 172t134 61v86h87v-86q81 -8 120.5 -50.5
t39.5 -131.5z" />
    <glyph glyph-name="sterling" unicode="&#xa3;" horiz-adv-x="562" 
d="M359 0h-309v94q54 0 79 25t25 82q0 19 -17 78h-87v71h67q-3 9 -9.5 30.5t-9.5 33t-6 30.5t-3 36q0 92 52 136.5t143 44.5q110 0 154 -40t44 -141h-110q0 46 -20 66.5t-67 20.5t-66.5 -20.5t-19.5 -66.5q0 -17 2.5 -35.5t5 -30t8 -34l7.5 -30.5h117v-71h-105
q11 -44 11 -69q0 -80 -46 -116h138q38 0 56.5 17t18.5 62h110q0 -93 -36.5 -133t-126.5 -40z" />
    <glyph glyph-name="currency" unicode="&#xa4;" horiz-adv-x="602" 
d="M411 299v52q0 86 -23 115.5t-87 29.5t-87 -29.5t-23 -115.5v-52q0 -86 23 -115.5t87 -29.5t87 29.5t23 115.5zM509 21l-65 75q-49 -32 -143 -32q-96 0 -144 33l-65 -76l-59 49l74 86q-24 49 -24 143v52q0 87 24 140l-74 87l58 49l65 -76q49 35 145 35q95 0 145 -35l65 76
l57 -49l-74 -86q25 -55 25 -141v-52q0 -92 -25 -143l74 -85z" />
    <glyph glyph-name="yen" unicode="&#xa5;" horiz-adv-x="540" 
d="M215 0v74h-128v53h128v67h-128v53h128l-187 403h123l118 -294h2l118 294h123l-187 -403h128v-53h-128v-67h128v-53h-128v-74h-110z" />
    <glyph glyph-name="brokenbar" unicode="&#xa6;" horiz-adv-x="220" 
d="M140 220v-340h-70v340h70zM140 690v-340h-70v340h70z" />
    <glyph glyph-name="section" unicode="&#xa7;" horiz-adv-x="564" 
d="M514 232q0 -67 -57 -111q53 -38 53 -123q0 -80 -56 -124t-168 -44q-128 0 -179.5 42t-51.5 138h110q0 -51 27 -72.5t93 -21.5q62 0 88.5 20t26.5 62q0 44 -28 63t-107 29q-127 16 -171 52.5t-44 116.5q0 67 57 110q-53 40 -53 124q0 80 56 124t168 44q128 0 179.5 -42
t51.5 -138h-110q0 51 -27 72.5t-93 21.5q-62 0 -88.5 -20t-26.5 -62q0 -44 28 -63t107 -29q127 -16 171 -52.5t44 -116.5zM259 321q-50 7 -76 14q-25 -25 -25 -65q0 -45 29.5 -66.5t117.5 -33.5q41 -6 76 -15q25 27 25 66q0 45 -29.5 66.5t-117.5 33.5z" />
    <glyph glyph-name="dieresis" unicode="&#xa8;" horiz-adv-x="370" 
d="M59 570v91h91v-91h-91zM214 570v91h92v-91h-92z" />
    <glyph glyph-name="copyright" unicode="&#xa9;" horiz-adv-x="754" 
d="M525 373h-73q0 34 -17.5 49.5t-61.5 15.5q-47 0 -67 -18t-20 -68v-56q0 -48 20 -67.5t67 -19.5q44 0 61.5 16t17.5 50h73q0 -68 -34 -100.5t-118 -32.5q-81 0 -120.5 35.5t-39.5 118.5v56q0 83 39 118.5t121 35.5q83 0 117.5 -32t34.5 -101zM50 252v146q0 131 81.5 203
t245.5 72q163 0 245 -72t82 -203v-146q0 -131 -82 -203t-245 -72q-161 0 -244 72.5t-83 202.5zM126 394v-138q0 -207 251 -207t251 207v138q0 207 -251 207t-251 -207z" />
    <glyph glyph-name="ordfeminine" unicode="&#xaa;" horiz-adv-x="433" 
d="M297 430l-117 -14q-53 -6 -53 -52q0 -49 62 -49q63 0 108 41v74zM183 243q-143 0 -143 115q0 109 131 119l126 9v40q0 37 -21 50t-63 13q-75 0 -75 -64h-86q0 71 39.5 103.5t121.5 32.5q97 0 133.5 -32t36.5 -103v-274h-60l-16 34q-51 -43 -124 -43z" />
    <glyph glyph-name="guillemotleft" unicode="&#xab;" horiz-adv-x="532" 
d="M196 60l-146 190l146 190h97l-147 -190l147 -190h-97zM385 60l-146 190l146 190h97l-147 -190l147 -190h-97z" />
    <glyph glyph-name="logicalnot" unicode="&#xac;" horiz-adv-x="510" 
d="M50 401h410v-261h-80v181h-330v80z" />
    <glyph glyph-name="uni00AD" unicode="&#xad;" horiz-adv-x="350" 
d="M50 234v90h250v-90h-250z" />
    <glyph glyph-name="registered" unicode="&#xae;" horiz-adv-x="754" 
d="M50 252v146q0 131 81.5 203t245.5 72q163 0 245 -72t82 -203v-146q0 -131 -82 -203t-245 -72q-161 0 -244 72.5t-83 202.5zM126 394v-138q0 -207 251 -207t251 207v138q0 207 -251 207t-251 -207zM458 146l-61 124h-85v-124h-73v358h160q70 0 99.5 -25t29.5 -88
q0 -73 -58 -107l68 -138h-80zM312 438v-102h87q53 0 53 52q0 50 -55 50h-85z" />
    <glyph glyph-name="macron" unicode="&#xaf;" horiz-adv-x="370" 
d="M68 579v71h236v-71h-236z" />
    <glyph glyph-name="degree" unicode="&#xb0;" horiz-adv-x="390" 
d="M350 502q0 -90 -36.5 -124.5t-118.5 -34.5t-118.5 34.5t-36.5 124.5t36.5 124.5t118.5 34.5t118.5 -34.5t36.5 -124.5zM123 508q0 -57 15.5 -75.5t56.5 -18.5q40 0 55.5 17t15.5 66v5q0 52 -15.5 70t-55.5 18t-56 -17t-16 -65z" />
    <glyph glyph-name="plusminus" unicode="&#xb1;" horiz-adv-x="510" 
d="M460 0h-410v80h410v-80zM50 306v80h165v165h80v-165h165v-80h-165v-166h-80v166h-165z" />
    <glyph glyph-name="twosuperior" unicode="&#xb2;" horiz-adv-x="310" 
d="M119 594h-59q0 100 103 100q57 0 80 -24t23 -70q0 -35 -22.5 -60t-49 -35.5t-50 -27t-24.5 -38.5h150v-50h-210v32q0 33 15 57t37 37.5t43.5 24.5t36.5 25.5t15 32.5q0 24 -9.5 35t-34.5 11q-44 0 -44 -50z" />
    <glyph glyph-name="threesuperior" unicode="&#xb3;" horiz-adv-x="327" 
d="M207 478q0 39 -41 39h-37v49h35q37 0 37 38q0 40 -45 40q-46 0 -46 -50h-59q0 100 105 100q104 0 104 -90q0 -40 -39 -60q46 -17 46 -68q0 -46 -24.5 -69t-85.5 -23q-57 0 -82 25t-25 75h58q0 -50 49 -50q27 0 38.5 10t11.5 34z" />
    <glyph glyph-name="acute" unicode="&#xb4;" horiz-adv-x="235" 
d="M45 565l35 120h108l-76 -120h-67z" />
    <glyph glyph-name="mu" unicode="&#xb5;" horiz-adv-x="536" 
d="M168 35v-205h-108v670h108v-377q48 -44 115 -44q45 0 65 19.5t20 71.5v330h108v-330q0 -97 -34.5 -139t-120.5 -42q-83 0 -153 46z" />
    <glyph glyph-name="mu" unicode="&#x3bc;" horiz-adv-x="536" 
d="M168 35v-205h-108v670h108v-377q48 -44 115 -44q45 0 65 19.5t20 71.5v330h108v-330q0 -97 -34.5 -139t-120.5 -42q-83 0 -153 46z" />
    <glyph glyph-name="paragraph" unicode="&#xb6;" horiz-adv-x="713" 
d="M47 402q0 137 60.5 192.5t188.5 55.5h322v-828h-84v752h-70v-752h-84v338h-86q-127 0 -187 58t-60 184z" />
    <glyph glyph-name="periodcentered" unicode="&#xb7;" horiz-adv-x="220" 
d="M50 268v120h120v-120h-120z" />
    <glyph glyph-name="cedilla" unicode="&#xb8;" horiz-adv-x="229" 
d="M144 0l-13 -44q71 -9 71 -72q0 -43 -25.5 -62t-82.5 -19h-63v53h64q41 0 41 28q0 16 -9 22.5t-32 6.5h-28l26 87h51z" />
    <glyph glyph-name="onesuperior" unicode="&#xb9;" horiz-adv-x="229" 
d="M159 389h-58v250h-51v32l73 19h36v-301z" />
    <glyph glyph-name="ordmasculine" unicode="&#xba;" horiz-adv-x="428" 
d="M388 473v-42q0 -105 -41 -146.5t-133 -41.5t-133 41.5t-41 146.5v42q0 104 41.5 146t132.5 42t132.5 -42t41.5 -146zM302 431v42q0 69 -18.5 92.5t-69.5 23.5t-69.5 -23.5t-18.5 -92.5v-42q0 -69 18.5 -92.5t69.5 -23.5t69.5 23.5t18.5 92.5z" />
    <glyph glyph-name="guillemotright" unicode="&#xbb;" horiz-adv-x="532" 
d="M482 250l-146 -190h-97l147 190l-147 190h97zM293 250l-146 -190h-97l147 190l-147 190h97z" />
    <glyph glyph-name="onequarter" unicode="&#xbc;" horiz-adv-x="611" 
d="M174 349h-58v250h-51v32l73 19h36v-301zM457 0v64h-140v46l128 191h70v-189h36v-48h-36v-64h-58zM369 112h88v130zM63 0l421 650h60l-421 -650h-60z" />
    <glyph glyph-name="onehalf" unicode="&#xbd;" horiz-adv-x="632" 
d="M63 0l421 650h60l-421 -650h-60zM174 349h-58v250h-51v32l73 19h36v-301zM421 205h-59q0 100 103 100q57 0 80 -24t23 -70q0 -35 -22.5 -60t-49 -35.5t-50 -27t-24.5 -38.5h150v-50h-210v32q0 33 15 57t37 37.5t43.5 24.5t36.5 25.5t15 32.5q0 24 -9.5 35t-34.5 11
q-44 0 -44 -50z" />
    <glyph glyph-name="threequarters" unicode="&#xbe;" horiz-adv-x="644" 
d="M217 438q0 39 -41 39h-37v49h35q37 0 37 38q0 40 -45 40q-46 0 -46 -50h-59q0 100 105 100q104 0 104 -90q0 -40 -39 -60q46 -17 46 -68q0 -46 -24.5 -69t-85.5 -23q-57 0 -82 25t-25 75h58q0 -50 49 -50q27 0 38.5 10t11.5 34zM490 0v64h-140v46l128 191h70v-189h36v-48
h-36v-64h-58zM402 112h88v130zM96 0l421 650h60l-421 -650h-60z" />
    <glyph glyph-name="questiondown" unicode="&#xbf;" horiz-adv-x="535" 
d="M305 304l15 -150q-90 0 -124 -22t-34 -99q0 -102 107 -102q106 0 106 102h110q0 -194 -213 -194q-113 0 -167.5 47.5t-54.5 146.5q0 100 44.5 146.5t133.5 55.5l7 69h70zM330 500v-120h-120v120h120z" />
    <glyph glyph-name="Agrave" unicode="&#xc0;" horiz-adv-x="530" 
d="M401 0l-36 141h-201l-35 -141h-114l180 650h139l181 -650h-114zM264 550l-78 -319h157l-77 319h-2zM263 835l35 -120h-67l-76 120h108z" />
    <glyph glyph-name="Aacute" unicode="&#xc1;" horiz-adv-x="530" 
d="M401 0l-36 141h-201l-35 -141h-114l180 650h139l181 -650h-114zM264 550l-78 -319h157l-77 319h-2zM236 715l35 120h108l-76 -120h-67z" />
    <glyph glyph-name="Acircumflex" unicode="&#xc2;" horiz-adv-x="530" 
d="M401 0l-36 141h-201l-35 -141h-114l180 650h139l181 -650h-114zM264 550l-78 -319h157l-77 319h-2zM325 835l58 -120h-71l-47 62l-46 -62h-71l57 120h120z" />
    <glyph glyph-name="Atilde" unicode="&#xc3;" horiz-adv-x="530" 
d="M401 0l-36 141h-201l-35 -141h-114l180 650h139l181 -650h-114zM264 550l-78 -319h157l-77 319h-2zM319 786q34 0 34 37h63q0 -59 -21.5 -85t-65.5 -26q-30 0 -63.5 23.5t-53.5 23.5q-34 0 -34 -37h-64q0 59 21.5 85t65.5 26q31 0 64.5 -23.5t53.5 -23.5z" />
    <glyph glyph-name="Adieresis" unicode="&#xc4;" horiz-adv-x="530" 
d="M401 0l-36 141h-201l-35 -141h-114l180 650h139l181 -650h-114zM264 550l-78 -319h157l-77 319h-2zM142 720v91h91v-91h-91zM297 720v91h92v-91h-92z" />
    <glyph glyph-name="Aring" unicode="&#xc5;" horiz-adv-x="530" 
d="M401 0l-36 141h-201l-35 -141h-114l180 650h139l181 -650h-114zM264 550l-78 -319h157l-77 319h-2zM265 885q50 0 77.5 -22.5t27.5 -66.5t-27.5 -67t-77.5 -23q-49 0 -76.5 23t-27.5 67t27.5 66.5t76.5 22.5zM265 757q43 0 43 39q0 38 -43 38t-43 -38q0 -39 43 -39z" />
    <glyph glyph-name="AE" unicode="&#xc6;" horiz-adv-x="840" 
d="M415 0v141h-211l-70 -141h-114l336 650h444v-94h-275v-181h240v-90h-240v-191h275v-94h-385zM416 556l-166 -325h165v325h1z" />
    <glyph glyph-name="Ccedilla" unicode="&#xc7;" horiz-adv-x="545" 
d="M278 83q60 0 86 26t26 88h110q0 -103 -47.5 -152.5t-150.5 -54.5l-10 -34q71 -9 71 -72q0 -43 -25.5 -62t-82.5 -19h-63v53h64q41 0 41 28q0 16 -9 22.5t-32 6.5h-28l23 77q-105 5 -153 59.5t-48 172.5v206q0 125 54.5 179t173.5 54q116 0 169 -49.5t53 -158.5h-110
q0 60 -26.5 87t-85.5 27q-63 0 -90.5 -28.5t-27.5 -99.5v-228q0 -71 27.5 -99.5t90.5 -28.5z" />
    <glyph glyph-name="Egrave" unicode="&#xc8;" horiz-adv-x="500" 
d="M65 0v650h385v-94h-275v-181h240v-90h-240v-191h275v-94h-385zM271 835l35 -120h-67l-76 120h108z" />
    <glyph glyph-name="Eacute" unicode="&#xc9;" horiz-adv-x="500" 
d="M65 0v650h385v-94h-275v-181h240v-90h-240v-191h275v-94h-385zM223 715l35 120h108l-76 -120h-67z" />
    <glyph glyph-name="Ecircumflex" unicode="&#xca;" horiz-adv-x="500" 
d="M65 0v650h385v-94h-275v-181h240v-90h-240v-191h275v-94h-385zM321 835l58 -120h-71l-47 62l-46 -62h-71l57 120h120z" />
    <glyph glyph-name="Edieresis" unicode="&#xcb;" horiz-adv-x="500" 
d="M65 0v650h385v-94h-275v-181h240v-90h-240v-191h275v-94h-385zM137 720v91h91v-91h-91zM292 720v91h92v-91h-92z" />
    <glyph glyph-name="Igrave" unicode="&#xcc;" horiz-adv-x="240" 
d="M65 0v650h110v-650h-110zM119 835l35 -120h-67l-76 120h108z" />
    <glyph glyph-name="Iacute" unicode="&#xcd;" horiz-adv-x="240" 
d="M65 0v650h110v-650h-110zM91 715l35 120h108l-76 -120h-67z" />
    <glyph glyph-name="Icircumflex" unicode="&#xce;" horiz-adv-x="240" 
d="M65 0v650h110v-650h-110zM180 835l58 -120h-71l-47 62l-46 -62h-71l57 120h120z" />
    <glyph glyph-name="Idieresis" unicode="&#xcf;" horiz-adv-x="240" 
d="M65 0v650h110v-650h-110zM-3 720v91h91v-91h-91zM152 720v91h92v-91h-92z" />
    <glyph glyph-name="Eth" unicode="&#xd0;" horiz-adv-x="570" 
d="M277 0h-209v291h-55v76h55v283h209q128 0 185.5 -48t57.5 -183v-187q0 -135 -58 -183.5t-185 -48.5zM275 556h-97v-189h100v-76h-100v-197h97q74 0 104.5 29t30.5 102v205q0 81 -30.5 103.5t-104.5 22.5z" />
    <glyph glyph-name="Ntilde" unicode="&#xd1;" horiz-adv-x="569" 
d="M509 650v-650h-138l-210 514q5 -80 5 -194v-320h-106v650h138l210 -514q0 20 -2.5 90.5t-2.5 93.5v330h106zM338 786q34 0 34 37h63q0 -59 -21.5 -85t-65.5 -26q-30 0 -63.5 23.5t-53.5 23.5q-34 0 -34 -37h-64q0 59 21.5 85t65.5 26q31 0 64.5 -23.5t53.5 -23.5z" />
    <glyph glyph-name="Ograve" unicode="&#xd2;" horiz-adv-x="564" 
d="M160 436v-222q0 -73 29 -102t93 -29t93 29t29 102v222q0 73 -29 102t-93 29t-93 -29t-29 -102zM514 435v-220q0 -121 -55 -173.5t-177 -52.5t-177 52.5t-55 173.5v220q0 121 55 173.5t177 52.5t177 -52.5t55 -173.5zM283 835l35 -120h-67l-76 120h108z" />
    <glyph glyph-name="Oacute" unicode="&#xd3;" horiz-adv-x="564" 
d="M160 436v-222q0 -73 29 -102t93 -29t93 29t29 102v222q0 73 -29 102t-93 29t-93 -29t-29 -102zM514 435v-220q0 -121 -55 -173.5t-177 -52.5t-177 52.5t-55 173.5v220q0 121 55 173.5t177 52.5t177 -52.5t55 -173.5zM260 715l35 120h108l-76 -120h-67z" />
    <glyph glyph-name="Ocircumflex" unicode="&#xd4;" horiz-adv-x="564" 
d="M160 436v-222q0 -73 29 -102t93 -29t93 29t29 102v222q0 73 -29 102t-93 29t-93 -29t-29 -102zM514 435v-220q0 -121 -55 -173.5t-177 -52.5t-177 52.5t-55 173.5v220q0 121 55 173.5t177 52.5t177 -52.5t55 -173.5zM341 835l58 -120h-71l-47 62l-46 -62h-71l57 120h120z
" />
    <glyph glyph-name="Otilde" unicode="&#xd5;" horiz-adv-x="564" 
d="M160 436v-222q0 -73 29 -102t93 -29t93 29t29 102v222q0 73 -29 102t-93 29t-93 -29t-29 -102zM514 435v-220q0 -121 -55 -173.5t-177 -52.5t-177 52.5t-55 173.5v220q0 121 55 173.5t177 52.5t177 -52.5t55 -173.5zM336 786q34 0 34 37h63q0 -59 -21.5 -85t-65.5 -26
q-30 0 -63.5 23.5t-53.5 23.5q-34 0 -34 -37h-64q0 59 21.5 85t65.5 26q31 0 64.5 -23.5t53.5 -23.5z" />
    <glyph glyph-name="Odieresis" unicode="&#xd6;" horiz-adv-x="564" 
d="M160 436v-222q0 -73 29 -102t93 -29t93 29t29 102v222q0 73 -29 102t-93 29t-93 -29t-29 -102zM514 435v-220q0 -121 -55 -173.5t-177 -52.5t-177 52.5t-55 173.5v220q0 121 55 173.5t177 52.5t177 -52.5t55 -173.5zM158 720v91h91v-91h-91zM313 720v91h92v-91h-92z" />
    <glyph glyph-name="multiply" unicode="&#xd7;" horiz-adv-x="461" 
d="M106 94l-56 57l123 124l-123 123l56 57l124 -124l124 124l56 -57l-124 -123l125 -125l-57 -57l-124 125z" />
    <glyph glyph-name="Oslash" unicode="&#xd8;" horiz-adv-x="564" 
d="M35 -20l51 84q-36 52 -36 151v220q0 121 55 173.5t177 52.5q91 0 145 -30l24 39h78l-51 -85q36 -53 36 -150v-220q0 -121 -55 -173.5t-177 -52.5q-92 0 -146 30l-23 -39h-78zM404 214v222q0 5 -0.5 13t-0.5 12l-212 -351q27 -27 91 -27t93 29t29 102zM160 436v-222
q0 -18 1 -26l211 352q-28 27 -90 27q-64 0 -93 -29t-29 -102z" />
    <glyph glyph-name="Ugrave" unicode="&#xd9;" horiz-adv-x="570" 
d="M60 650h110v-448q0 -64 28 -91.5t87 -27.5t87 27.5t28 91.5v448h110v-444q0 -120 -55 -168.5t-170 -48.5t-170 48.5t-55 168.5v444zM283 835l35 -120h-67l-76 120h108z" />
    <glyph glyph-name="Uacute" unicode="&#xda;" horiz-adv-x="570" 
d="M60 650h110v-448q0 -64 28 -91.5t87 -27.5t87 27.5t28 91.5v448h110v-444q0 -120 -55 -168.5t-170 -48.5t-170 48.5t-55 168.5v444zM258 715l35 120h108l-76 -120h-67z" />
    <glyph glyph-name="Ucircumflex" unicode="&#xdb;" horiz-adv-x="570" 
d="M60 650h110v-448q0 -64 28 -91.5t87 -27.5t87 27.5t28 91.5v448h110v-444q0 -120 -55 -168.5t-170 -48.5t-170 48.5t-55 168.5v444zM345 835l58 -120h-71l-47 62l-46 -62h-71l57 120h120z" />
    <glyph glyph-name="Udieresis" unicode="&#xdc;" horiz-adv-x="570" 
d="M60 650h110v-448q0 -64 28 -91.5t87 -27.5t87 27.5t28 91.5v448h110v-444q0 -120 -55 -168.5t-170 -48.5t-170 48.5t-55 168.5v444zM162 720v91h91v-91h-91zM317 720v91h92v-91h-92z" />
    <glyph glyph-name="Yacute" unicode="&#xdd;" horiz-adv-x="514" 
d="M202 0v246l-187 404h120l121 -295h2l121 295h120l-187 -404v-246h-110zM228 715l35 120h108l-76 -120h-67z" />
    <glyph glyph-name="Thorn" unicode="&#xde;" horiz-adv-x="548" 
d="M175 118v-118h-110v650h110v-114h106q121 0 174 -44.5t53 -165.5q0 -118 -53.5 -163t-173.5 -45h-106zM395 327q0 68 -24.5 91.5t-87.5 23.5h-108v-230h108q63 0 87.5 23.5t24.5 91.5z" />
    <glyph glyph-name="germandbls" unicode="&#xdf;" horiz-adv-x="551" 
d="M227 317v90h30q54 0 70.5 24t16.5 71q0 48 -20.5 68t-67.5 20q-49 0 -68.5 -22t-19.5 -66v-502h-108v502q0 93 48 135.5t148 42.5q102 0 149 -42t47 -127q0 -111 -93 -141q77 -13 114.5 -54t37.5 -129q0 -108 -54 -153t-155 -45q-43 0 -96 11v90q43 -13 93 -13
q58 0 81 25.5t23 84.5q0 76 -25.5 103t-92.5 27h-58z" />
    <glyph glyph-name="agrave" unicode="&#xe0;" horiz-adv-x="506" 
d="M348 222l-138 -17q-66 -9 -66 -65q0 -61 77 -61q75 0 127 44v99zM214 -11q-179 0 -179 143q0 137 164 149l149 10v51q0 41 -20 60t-74 19q-51 0 -72.5 -20t-21.5 -60h-108q0 88 50 129t152 41q110 0 156 -39.5t46 -129.5v-342h-74l-22 43q-66 -54 -146 -54zM263 685
l35 -120h-67l-76 120h108z" />
    <glyph glyph-name="aacute" unicode="&#xe1;" horiz-adv-x="506" 
d="M348 222l-138 -17q-66 -9 -66 -65q0 -61 77 -61q75 0 127 44v99zM214 -11q-179 0 -179 143q0 137 164 149l149 10v51q0 41 -20 60t-74 19q-51 0 -72.5 -20t-21.5 -60h-108q0 88 50 129t152 41q110 0 156 -39.5t46 -129.5v-342h-74l-22 43q-66 -54 -146 -54zM229 565
l35 120h108l-76 -120h-67z" />
    <glyph glyph-name="acircumflex" unicode="&#xe2;" horiz-adv-x="506" 
d="M348 222l-138 -17q-66 -9 -66 -65q0 -61 77 -61q75 0 127 44v99zM214 -11q-179 0 -179 143q0 137 164 149l149 10v51q0 41 -20 60t-74 19q-51 0 -72.5 -20t-21.5 -60h-108q0 88 50 129t152 41q110 0 156 -39.5t46 -129.5v-342h-74l-22 43q-66 -54 -146 -54zM313 685
l58 -120h-71l-47 62l-46 -62h-71l57 120h120z" />
    <glyph glyph-name="atilde" unicode="&#xe3;" horiz-adv-x="506" 
d="M348 222l-138 -17q-66 -9 -66 -65q0 -61 77 -61q75 0 127 44v99zM214 -11q-179 0 -179 143q0 137 164 149l149 10v51q0 41 -20 60t-74 19q-51 0 -72.5 -20t-21.5 -60h-108q0 88 50 129t152 41q110 0 156 -39.5t46 -129.5v-342h-74l-22 43q-66 -54 -146 -54zM317 636
q34 0 34 37h63q0 -59 -21.5 -85t-65.5 -26q-30 0 -63.5 23.5t-53.5 23.5q-34 0 -34 -37h-64q0 59 21.5 85t65.5 26q31 0 64.5 -23.5t53.5 -23.5z" />
    <glyph glyph-name="adieresis" unicode="&#xe4;" horiz-adv-x="506" 
d="M348 222l-138 -17q-66 -9 -66 -65q0 -61 77 -61q75 0 127 44v99zM214 -11q-179 0 -179 143q0 137 164 149l149 10v51q0 41 -20 60t-74 19q-51 0 -72.5 -20t-21.5 -60h-108q0 88 50 129t152 41q110 0 156 -39.5t46 -129.5v-342h-74l-22 43q-66 -54 -146 -54zM132 570v91
h91v-91h-91zM287 570v91h92v-91h-92z" />
    <glyph glyph-name="aring" unicode="&#xe5;" horiz-adv-x="506" 
d="M348 222l-138 -17q-66 -9 -66 -65q0 -61 77 -61q75 0 127 44v99zM214 -11q-179 0 -179 143q0 137 164 149l149 10v51q0 41 -20 60t-74 19q-51 0 -72.5 -20t-21.5 -60h-108q0 88 50 129t152 41q110 0 156 -39.5t46 -129.5v-342h-74l-22 43q-66 -54 -146 -54zM253 735
q50 0 77.5 -22.5t27.5 -66.5t-27.5 -67t-77.5 -23q-49 0 -76.5 23t-27.5 67t27.5 66.5t76.5 22.5zM253 607q43 0 43 39q0 38 -43 38t-43 -38q0 -39 43 -39z" />
    <glyph glyph-name="ae" unicode="&#xe6;" horiz-adv-x="819" 
d="M224 -11q-95 0 -139.5 39.5t-44.5 108.5q0 151 170 151h143v54q0 41 -20 60t-74 19q-51 0 -72.5 -20t-21.5 -60h-108q0 88 50 129t152 41q119 0 156 -53q42 53 154 53q107 0 158.5 -52t51.5 -183v-64h-318q0 -76 23 -104.5t85 -28.5q95 0 186 16v-88q-94 -18 -179 -18
q-66 0 -106.5 14t-62.5 49q-23 -35 -66.5 -49t-116.5 -14zM461 288h210q0 76 -18 104.5t-84 28.5t-87 -29t-21 -104zM230 79q75 0 99 28t24 105h-130q-74 0 -74 -70q0 -33 18.5 -48t62.5 -15z" />
    <glyph glyph-name="ccedilla" unicode="&#xe7;" horiz-adv-x="514" 
d="M469 327h-108q-2 55 -23 74.5t-74 19.5q-64 0 -87.5 -29.5t-23.5 -115.5v-52q0 -86 23.5 -115.5t87.5 -29.5q53 0 74 19.5t23 74.5h108q0 -97 -46.5 -139t-142.5 -44l-10 -36q67 -10 67 -70q0 -40 -25.5 -56.5t-77.5 -16.5h-58v43h57q42 0 42 30t-42 30h-20l23 76
q-101 5 -146 57.5t-45 176.5v52q0 132 52.5 183.5t166.5 51.5q104 0 154.5 -42t50.5 -142z" />
    <glyph glyph-name="egrave" unicode="&#xe8;" horiz-adv-x="511" 
d="M153 288h210q0 76 -18 104.5t-84 28.5t-87 -29t-21 -104zM261 79q95 0 186 16v-88q-94 -18 -179 -18q-117 0 -170 50.5t-53 184.5v52q0 131 52.5 183t163.5 52q107 0 158.5 -52t51.5 -183v-64h-318q0 -76 23 -104.5t85 -28.5zM271 685l35 -120h-67l-76 120h108z" />
    <glyph glyph-name="eacute" unicode="&#xe9;" horiz-adv-x="511" 
d="M153 288h210q0 76 -18 104.5t-84 28.5t-87 -29t-21 -104zM261 79q95 0 186 16v-88q-94 -18 -179 -18q-117 0 -170 50.5t-53 184.5v52q0 131 52.5 183t163.5 52q107 0 158.5 -52t51.5 -183v-64h-318q0 -76 23 -104.5t85 -28.5zM232 565l35 120h108l-76 -120h-67z" />
    <glyph glyph-name="ecircumflex" unicode="&#xea;" horiz-adv-x="511" 
d="M153 288h210q0 76 -18 104.5t-84 28.5t-87 -29t-21 -104zM261 79q95 0 186 16v-88q-94 -18 -179 -18q-117 0 -170 50.5t-53 184.5v52q0 131 52.5 183t163.5 52q107 0 158.5 -52t51.5 -183v-64h-318q0 -76 23 -104.5t85 -28.5zM330 685l58 -120h-71l-47 62l-46 -62h-71
l57 120h120z" />
    <glyph glyph-name="edieresis" unicode="&#xeb;" horiz-adv-x="511" 
d="M153 288h210q0 76 -18 104.5t-84 28.5t-87 -29t-21 -104zM261 79q95 0 186 16v-88q-94 -18 -179 -18q-117 0 -170 50.5t-53 184.5v52q0 131 52.5 183t163.5 52q107 0 158.5 -52t51.5 -183v-64h-318q0 -76 23 -104.5t85 -28.5zM144 570v91h91v-91h-91zM299 570v91h92v-91
h-92z" />
    <glyph glyph-name="igrave" unicode="&#xec;" 
d="M60 0v500h108v-500h-108zM112 685l35 -120h-67l-76 120h108z" />
    <glyph glyph-name="iacute" unicode="&#xed;" 
d="M60 0v500h108v-500h-108zM82 565l35 120h108l-76 -120h-67z" />
    <glyph glyph-name="icircumflex" unicode="&#xee;" 
d="M60 0v500h108v-500h-108zM175 685l58 -120h-71l-47 62l-46 -62h-71l57 120h120z" />
    <glyph glyph-name="idieresis" unicode="&#xef;" 
d="M-4 557v91h91v-91h-91zM141 557v91h92v-91h-92zM60 0v500h108v-500h-108z" />
    <glyph glyph-name="eth" unicode="&#xf0;" horiz-adv-x="523" 
d="M473 285v-65q0 -131 -51 -181t-166 -50t-165.5 50t-50.5 181v52q0 130 47 180.5t158 50.5q65 0 106 -30q-15 50 -42 97l-82 -20l-15 53l63 15q-17 22 -54 63h124q20 -22 31 -39l81 19l15 -52l-64 -16q65 -118 65 -308zM366 213v65q0 81 -23.5 109.5t-86.5 28.5
t-86.5 -28.5t-23.5 -109.5v-65q0 -81 23.5 -109.5t86.5 -28.5t86.5 28.5t23.5 109.5z" />
    <glyph glyph-name="ntilde" unicode="&#xf1;" horiz-adv-x="536" 
d="M60 500h74l22 -43q77 54 165 54q86 0 120.5 -42t34.5 -139v-330h-108v330q0 52 -20 71.5t-65 19.5q-65 0 -115 -44v-377h-108v500zM333 636q34 0 34 37h63q0 -59 -21.5 -85t-65.5 -26q-30 0 -63.5 23.5t-53.5 23.5q-34 0 -34 -37h-64q0 59 21.5 85t65.5 26
q31 0 64.5 -23.5t53.5 -23.5z" />
    <glyph glyph-name="ograve" unicode="&#xf2;" horiz-adv-x="516" 
d="M476 276v-52q0 -131 -51.5 -183t-166.5 -52t-166.5 52t-51.5 183v52q0 130 52 182.5t166 52.5t166 -52.5t52 -182.5zM368 224v52q0 86 -23 115.5t-87 29.5t-87 -29.5t-23 -115.5v-52q0 -86 23 -115.5t87 -29.5t87 29.5t23 115.5zM261 685l35 -120h-67l-76 120h108z" />
    <glyph glyph-name="oacute" unicode="&#xf3;" horiz-adv-x="516" 
d="M476 276v-52q0 -131 -51.5 -183t-166.5 -52t-166.5 52t-51.5 183v52q0 130 52 182.5t166 52.5t166 -52.5t52 -182.5zM368 224v52q0 86 -23 115.5t-87 29.5t-87 -29.5t-23 -115.5v-52q0 -86 23 -115.5t87 -29.5t87 29.5t23 115.5zM226 565l35 120h108l-76 -120h-67z" />
    <glyph glyph-name="ocircumflex" unicode="&#xf4;" horiz-adv-x="516" 
d="M476 276v-52q0 -131 -51.5 -183t-166.5 -52t-166.5 52t-51.5 183v52q0 130 52 182.5t166 52.5t166 -52.5t52 -182.5zM368 224v52q0 86 -23 115.5t-87 29.5t-87 -29.5t-23 -115.5v-52q0 -86 23 -115.5t87 -29.5t87 29.5t23 115.5zM318 685l58 -120h-71l-47 62l-46 -62h-71
l57 120h120z" />
    <glyph glyph-name="otilde" unicode="&#xf5;" horiz-adv-x="516" 
d="M476 276v-52q0 -131 -51.5 -183t-166.5 -52t-166.5 52t-51.5 183v52q0 130 52 182.5t166 52.5t166 -52.5t52 -182.5zM368 224v52q0 86 -23 115.5t-87 29.5t-87 -29.5t-23 -115.5v-52q0 -86 23 -115.5t87 -29.5t87 29.5t23 115.5zM312 636q34 0 34 37h63q0 -59 -21.5 -85
t-65.5 -26q-30 0 -63.5 23.5t-53.5 23.5q-34 0 -34 -37h-64q0 59 21.5 85t65.5 26q31 0 64.5 -23.5t53.5 -23.5z" />
    <glyph glyph-name="odieresis" unicode="&#xf6;" horiz-adv-x="516" 
d="M476 276v-52q0 -131 -51.5 -183t-166.5 -52t-166.5 52t-51.5 183v52q0 130 52 182.5t166 52.5t166 -52.5t52 -182.5zM368 224v52q0 86 -23 115.5t-87 29.5t-87 -29.5t-23 -115.5v-52q0 -86 23 -115.5t87 -29.5t87 29.5t23 115.5zM135 570v91h91v-91h-91zM290 570v91h92
v-91h-92z" />
    <glyph glyph-name="divide" unicode="&#xf7;" horiz-adv-x="510" 
d="M460 235h-410v80h410v-80zM206 74v92h98v-92h-98zM206 383v93h98v-93h-98z" />
    <glyph glyph-name="oslash" unicode="&#xf8;" horiz-adv-x="516" 
d="M476 276v-52q0 -131 -51.5 -183t-166.5 -52q-72 0 -119 19l-18 -28h-76l42 65q-47 54 -47 179v52q0 130 52 182.5t166 52.5q72 0 118 -20l19 29h76l-43 -67q48 -55 48 -177zM148 276v-52q0 -52 6 -76l169 261q-21 12 -65 12q-64 0 -87 -29.5t-23 -115.5zM368 224v52
q0 46 -6 75l-170 -261q23 -11 66 -11q64 0 87 29.5t23 115.5z" />
    <glyph glyph-name="ugrave" unicode="&#xf9;" horiz-adv-x="536" 
d="M476 0h-74l-22 43q-77 -54 -165 -54q-86 0 -120.5 42t-34.5 139v330h108v-330q0 -52 20 -71.5t65 -19.5q65 0 115 44v377h108v-500zM274 685l35 -120h-67l-76 120h108z" />
    <glyph glyph-name="uacute" unicode="&#xfa;" horiz-adv-x="536" 
d="M476 0h-74l-22 43q-77 -54 -165 -54q-86 0 -120.5 42t-34.5 139v330h108v-330q0 -52 20 -71.5t65 -19.5q65 0 115 44v377h108v-500zM242 565l35 120h108l-76 -120h-67z" />
    <glyph glyph-name="ucircumflex" unicode="&#xfb;" horiz-adv-x="536" 
d="M476 0h-74l-22 43q-77 -54 -165 -54q-86 0 -120.5 42t-34.5 139v330h108v-330q0 -52 20 -71.5t65 -19.5q65 0 115 44v377h108v-500zM328 685l58 -120h-71l-47 62l-46 -62h-71l57 120h120z" />
    <glyph glyph-name="udieresis" unicode="&#xfc;" horiz-adv-x="536" 
d="M476 0h-74l-22 43q-77 -54 -165 -54q-86 0 -120.5 42t-34.5 139v330h108v-330q0 -52 20 -71.5t65 -19.5q65 0 115 44v377h108v-500zM145 570v91h91v-91h-91zM300 570v91h92v-91h-92z" />
    <glyph glyph-name="yacute" unicode="&#xfd;" horiz-adv-x="504" 
d="M200 1l-180 499h116l116 -372h2l114 372h116l-199 -562q-24 -66 -62 -92t-117 -26q-34 0 -61 10v90q30 -10 61 -10q35 0 52 13.5t31 48.5zM222 565l35 120h108l-76 -120h-67z" />
    <glyph glyph-name="thorn" unicode="&#xfe;" horiz-adv-x="538" 
d="M60 -170v840h108v-205q67 46 139 46q93 0 139.5 -45.5t46.5 -172.5v-86q0 -127 -46.5 -172.5t-139.5 -45.5q-72 0 -139 46v-205h-108zM385 212v76q0 74 -23 103.5t-72 29.5q-74 0 -122 -44v-254q48 -44 122 -44q49 0 72 29.5t23 103.5z" />
    <glyph glyph-name="ydieresis" unicode="&#xff;" horiz-adv-x="504" 
d="M200 1l-180 499h116l116 -372h2l114 372h116l-199 -562q-24 -66 -62 -92t-117 -26q-34 0 -61 10v90q30 -10 61 -10q35 0 52 13.5t31 48.5zM129 570v91h91v-91h-91zM284 570v91h92v-91h-92z" />
    <glyph glyph-name="Amacron" unicode="&#x100;" horiz-adv-x="530" 
d="M401 0l-36 141h-201l-35 -141h-114l180 650h139l181 -650h-114zM264 550l-78 -319h157l-77 319h-2zM148 729v71h236v-71h-236z" />
    <glyph glyph-name="amacron" unicode="&#x101;" horiz-adv-x="506" 
d="M348 222l-138 -17q-66 -9 -66 -65q0 -61 77 -61q75 0 127 44v99zM214 -11q-179 0 -179 143q0 137 164 149l149 10v51q0 41 -20 60t-74 19q-51 0 -72.5 -20t-21.5 -60h-108q0 88 50 129t152 41q110 0 156 -39.5t46 -129.5v-342h-74l-22 43q-66 -54 -146 -54zM141 579v71
h236v-71h-236z" />
    <glyph glyph-name="Abreve" unicode="&#x102;" horiz-adv-x="530" 
d="M401 0l-36 141h-201l-35 -141h-114l180 650h139l181 -650h-114zM264 550l-78 -319h157l-77 319h-2zM265 707q-60 0 -91 33.5t-31 96.5h66q0 -62 56 -62q57 0 57 62h66q0 -63 -31 -96.5t-92 -33.5z" />
    <glyph glyph-name="abreve" unicode="&#x103;" horiz-adv-x="506" 
d="M348 222l-138 -17q-66 -9 -66 -65q0 -61 77 -61q75 0 127 44v99zM214 -11q-179 0 -179 143q0 137 164 149l149 10v51q0 41 -20 60t-74 19q-51 0 -72.5 -20t-21.5 -60h-108q0 88 50 129t152 41q110 0 156 -39.5t46 -129.5v-342h-74l-22 43q-66 -54 -146 -54zM253 557
q-60 0 -91 33.5t-31 96.5h66q0 -62 56 -62q57 0 57 62h66q0 -63 -31 -96.5t-92 -33.5z" />
    <glyph glyph-name="Aogonek" unicode="&#x104;" horiz-adv-x="530" 
d="M401 0l-36 141h-201l-35 -141h-114l180 650h139l181 -650q-50 -36 -50 -76q0 -30 36 -30h14v-65h-50q-81 0 -81 70q0 59 60 101h-43zM264 550l-78 -319h157l-77 319h-2z" />
    <glyph glyph-name="aogonek" unicode="&#x105;" horiz-adv-x="516" 
d="M461 -106v-65h-50q-81 0 -81 70q0 58 58 99l-23 45q-66 -54 -146 -54q-179 0 -179 143q0 137 164 149l149 10v51q0 41 -20 60t-74 19q-51 0 -72.5 -20t-21.5 -60h-108q0 88 50 129t152 41q110 0 156 -39.5t46 -129.5v-342q-50 -36 -50 -76q0 -30 36 -30h14zM353 222
l-138 -17q-66 -9 -66 -65q0 -61 77 -61q75 0 127 44v99z" />
    <glyph glyph-name="Cacute" unicode="&#x106;" horiz-adv-x="545" 
d="M278 83q60 0 86 26t26 88h110q0 -109 -53 -158.5t-169 -49.5q-120 0 -174 54t-54 179v206q0 125 54.5 179t173.5 54q116 0 169 -49.5t53 -158.5h-110q0 60 -26.5 87t-85.5 27q-63 0 -90.5 -28.5t-27.5 -99.5v-228q0 -71 27.5 -99.5t90.5 -28.5zM244 715l35 120h108
l-76 -120h-67z" />
    <glyph glyph-name="cacute" unicode="&#x107;" horiz-adv-x="514" 
d="M469 327h-108q-2 55 -23 74.5t-74 19.5q-64 0 -87.5 -29.5t-23.5 -115.5v-52q0 -86 23.5 -115.5t87.5 -29.5q53 0 74 19.5t23 74.5h108q0 -100 -50.5 -142t-154.5 -42q-116 0 -167.5 51.5t-51.5 183.5v52q0 132 52.5 183.5t166.5 51.5q104 0 154.5 -42t50.5 -142z
M240 565l35 120h108l-76 -120h-67z" />
    <glyph glyph-name="Ccircumflex" unicode="&#x108;" horiz-adv-x="545" 
d="M278 83q60 0 86 26t26 88h110q0 -109 -53 -158.5t-169 -49.5q-120 0 -174 54t-54 179v206q0 125 54.5 179t173.5 54q116 0 169 -49.5t53 -158.5h-110q0 60 -26.5 87t-85.5 27q-63 0 -90.5 -28.5t-27.5 -99.5v-228q0 -71 27.5 -99.5t90.5 -28.5zM338 835l58 -120h-71
l-47 62l-46 -62h-71l57 120h120z" />
    <glyph glyph-name="ccircumflex" unicode="&#x109;" horiz-adv-x="514" 
d="M469 327h-108q-2 55 -23 74.5t-74 19.5q-64 0 -87.5 -29.5t-23.5 -115.5v-52q0 -86 23.5 -115.5t87.5 -29.5q53 0 74 19.5t23 74.5h108q0 -100 -50.5 -142t-154.5 -42q-116 0 -167.5 51.5t-51.5 183.5v52q0 132 52.5 183.5t166.5 51.5q104 0 154.5 -42t50.5 -142z
M327 685l58 -120h-71l-47 62l-46 -62h-71l57 120h120z" />
    <glyph glyph-name="Cdotaccent" unicode="&#x10a;" horiz-adv-x="545" 
d="M278 83q60 0 86 26t26 88h110q0 -109 -53 -158.5t-169 -49.5q-120 0 -174 54t-54 179v206q0 125 54.5 179t173.5 54q116 0 169 -49.5t53 -158.5h-110q0 60 -26.5 87t-85.5 27q-63 0 -90.5 -28.5t-27.5 -99.5v-228q0 -71 27.5 -99.5t90.5 -28.5zM233 720v91h91v-91h-91z
" />
    <glyph glyph-name="cdotaccent" unicode="&#x10b;" horiz-adv-x="514" 
d="M469 327h-108q-2 55 -23 74.5t-74 19.5q-64 0 -87.5 -29.5t-23.5 -115.5v-52q0 -86 23.5 -115.5t87.5 -29.5q53 0 74 19.5t23 74.5h108q0 -100 -50.5 -142t-154.5 -42q-116 0 -167.5 51.5t-51.5 183.5v52q0 132 52.5 183.5t166.5 51.5q104 0 154.5 -42t50.5 -142z
M221 570v91h91v-91h-91z" />
    <glyph glyph-name="Ccaron" unicode="&#x10c;" horiz-adv-x="545" 
d="M278 83q60 0 86 26t26 88h110q0 -109 -53 -158.5t-169 -49.5q-120 0 -174 54t-54 179v206q0 125 54.5 179t173.5 54q116 0 169 -49.5t53 -158.5h-110q0 60 -26.5 87t-85.5 27q-63 0 -90.5 -28.5t-27.5 -99.5v-228q0 -71 27.5 -99.5t90.5 -28.5zM395 835l-58 -120h-120
l-57 120h71l46 -62l47 62h71z" />
    <glyph glyph-name="ccaron" unicode="&#x10d;" horiz-adv-x="514" 
d="M469 327h-108q-2 55 -23 74.5t-74 19.5q-64 0 -87.5 -29.5t-23.5 -115.5v-52q0 -86 23.5 -115.5t87.5 -29.5q53 0 74 19.5t23 74.5h108q0 -100 -50.5 -142t-154.5 -42q-116 0 -167.5 51.5t-51.5 183.5v52q0 132 52.5 183.5t166.5 51.5q104 0 154.5 -42t50.5 -142z
M385 685l-58 -120h-120l-57 120h71l46 -62l47 62h71z" />
    <glyph glyph-name="Dcaron" unicode="&#x10e;" horiz-adv-x="562" 
d="M267 556h-97v-462h97q74 0 104.5 29t30.5 102v205q0 81 -30.5 103.5t-104.5 22.5zM269 0h-209v650h209q128 0 185.5 -48t57.5 -183v-187q0 -135 -58 -183.5t-185 -48.5zM385 835l-58 -120h-120l-57 120h71l46 -62l47 62h71z" />
    <glyph glyph-name="dcaron" unicode="&#x10f;" horiz-adv-x="636" 
d="M370 670h108v-670h-74l-22 43q-69 -54 -151 -54q-93 0 -139.5 45.5t-46.5 172.5v86q0 127 46.5 172.5t139.5 45.5q72 0 139 -46v205zM370 123v254q-48 44 -122 44q-49 0 -72 -29.5t-23 -103.5v-76q0 -73 23.5 -103t71.5 -30q74 0 122 44zM539 453v217h92l-28 -217h-64z
" />
    <glyph glyph-name="Dcroat" unicode="&#x110;" horiz-adv-x="570" 
d="M277 0h-209v291h-55v76h55v283h209q128 0 185.5 -48t57.5 -183v-187q0 -135 -58 -183.5t-185 -48.5zM275 556h-97v-189h100v-76h-100v-197h97q74 0 104.5 29t30.5 102v205q0 81 -30.5 103.5t-104.5 22.5z" />
    <glyph glyph-name="dcroat" unicode="&#x111;" horiz-adv-x="538" 
d="M370 670h108v-55h51v-57h-51v-558h-74l-22 43q-69 -54 -151 -54q-93 0 -139.5 45.5t-46.5 172.5v86q0 127 46.5 172.5t139.5 45.5q72 0 139 -46v93h-93v57h93v55zM370 123v254q-48 44 -122 44q-49 0 -72 -29.5t-23 -103.5v-76q0 -73 23.5 -103t71.5 -30q74 0 122 44z" />
    <glyph glyph-name="Emacron" unicode="&#x112;" horiz-adv-x="500" 
d="M65 0v650h385v-94h-275v-181h240v-90h-240v-191h275v-94h-385zM141 729v71h236v-71h-236z" />
    <glyph glyph-name="emacron" unicode="&#x113;" horiz-adv-x="511" 
d="M153 288h210q0 76 -18 104.5t-84 28.5t-87 -29t-21 -104zM261 79q95 0 186 16v-88q-94 -18 -179 -18q-117 0 -170 50.5t-53 184.5v52q0 131 52.5 183t163.5 52q107 0 158.5 -52t51.5 -183v-64h-318q0 -76 23 -104.5t85 -28.5zM149 579v71h236v-71h-236z" />
    <glyph glyph-name="Ebreve" unicode="&#x114;" horiz-adv-x="500" 
d="M65 0v650h385v-94h-275v-181h240v-90h-240v-191h275v-94h-385zM262 707q-60 0 -91 33.5t-31 96.5h66q0 -62 56 -62q57 0 57 62h66q0 -63 -31 -96.5t-92 -33.5z" />
    <glyph glyph-name="ebreve" unicode="&#x115;" horiz-adv-x="511" 
d="M153 288h210q0 76 -18 104.5t-84 28.5t-87 -29t-21 -104zM261 79q95 0 186 16v-88q-94 -18 -179 -18q-117 0 -170 50.5t-53 184.5v52q0 131 52.5 183t163.5 52q107 0 158.5 -52t51.5 -183v-64h-318q0 -76 23 -104.5t85 -28.5zM270 557q-60 0 -91 33.5t-31 96.5h66
q0 -62 56 -62q57 0 57 62h66q0 -63 -31 -96.5t-92 -33.5z" />
    <glyph glyph-name="Edotaccent" unicode="&#x116;" horiz-adv-x="500" 
d="M65 0v650h385v-94h-275v-181h240v-90h-240v-191h275v-94h-385zM223 720v91h91v-91h-91z" />
    <glyph glyph-name="edotaccent" unicode="&#x117;" horiz-adv-x="511" 
d="M153 288h210q0 76 -18 104.5t-84 28.5t-87 -29t-21 -104zM261 79q95 0 186 16v-88q-94 -18 -179 -18q-117 0 -170 50.5t-53 184.5v52q0 131 52.5 183t163.5 52q107 0 158.5 -52t51.5 -183v-64h-318q0 -76 23 -104.5t85 -28.5zM221 570v91h91v-91h-91z" />
    <glyph glyph-name="Eogonek" unicode="&#x118;" horiz-adv-x="500" 
d="M65 0v650h385v-94h-275v-181h240v-90h-240v-191h275v-94q-50 -34 -50 -74q0 -30 36 -30h14v-65h-50q-84 0 -84 69q0 60 60 100h-311z" />
    <glyph glyph-name="eogonek" unicode="&#x119;" horiz-adv-x="511" 
d="M447 -99v-65h-50q-81 0 -81 70q0 50 44 88q-47 -5 -92 -5q-117 0 -170 50.5t-53 184.5v52q0 131 52.5 183t163.5 52q107 0 158.5 -52t51.5 -183v-64h-318q0 -76 23 -104.5t85 -28.5q95 0 186 16v-88q-50 -36 -50 -76q0 -30 36 -30h14zM153 288h210q0 76 -18 104.5
t-84 28.5t-87 -29t-21 -104z" />
    <glyph glyph-name="Ecaron" unicode="&#x11a;" horiz-adv-x="500" 
d="M65 0v650h385v-94h-275v-181h240v-90h-240v-191h275v-94h-385zM378 835l-58 -120h-120l-57 120h71l46 -62l47 62h71z" />
    <glyph glyph-name="ecaron" unicode="&#x11b;" horiz-adv-x="511" 
d="M153 288h210q0 76 -18 104.5t-84 28.5t-87 -29t-21 -104zM261 79q95 0 186 16v-88q-94 -18 -179 -18q-117 0 -170 50.5t-53 184.5v52q0 131 52.5 183t163.5 52q107 0 158.5 -52t51.5 -183v-64h-318q0 -76 23 -104.5t85 -28.5zM386 685l-58 -120h-120l-57 120h71l46 -62
l47 62h71z" />
    <glyph glyph-name="Gcircumflex" unicode="&#x11c;" horiz-adv-x="570" 
d="M278 -11q-120 0 -174 54t-54 179v206q0 125 54.5 179t173.5 54q116 0 169 -49.5t53 -158.5h-110q0 60 -26.5 87t-85.5 27q-63 0 -90.5 -28.5t-27.5 -99.5v-228q0 -73 28.5 -100.5t94.5 -27.5q63 0 90 25.5t27 88.5v88h-118v90h228v-375h-55l-18 51q-57 -62 -159 -62z
M341 835l58 -120h-71l-47 62l-46 -62h-71l57 120h120z" />
    <glyph glyph-name="gcircumflex" unicode="&#x11d;" horiz-adv-x="538" 
d="M370 1v46q-68 -47 -139 -47q-93 0 -139.5 45.5t-46.5 172.5v75q0 127 46.5 172.5t139.5 45.5q82 0 151 -54l22 43h74v-499q0 -93 -51 -137t-158 -44q-88 0 -158 19v93q76 -22 157 -22q55 0 78.5 20t23.5 71zM370 134v243q-48 44 -122 44q-49 0 -72 -29.5t-23 -103.5v-65
q0 -73 23.5 -103t71.5 -30q74 0 122 44zM329 685l58 -120h-71l-47 62l-46 -62h-71l57 120h120z" />
    <glyph glyph-name="Gbreve" unicode="&#x11e;" horiz-adv-x="570" 
d="M278 -11q-120 0 -174 54t-54 179v206q0 125 54.5 179t173.5 54q116 0 169 -49.5t53 -158.5h-110q0 60 -26.5 87t-85.5 27q-63 0 -90.5 -28.5t-27.5 -99.5v-228q0 -73 28.5 -100.5t94.5 -27.5q63 0 90 25.5t27 88.5v88h-118v90h228v-375h-55l-18 51q-57 -62 -159 -62z
M280 707q-60 0 -91 33.5t-31 96.5h66q0 -62 56 -62q57 0 57 62h66q0 -63 -31 -96.5t-92 -33.5z" />
    <glyph glyph-name="gbreve" unicode="&#x11f;" horiz-adv-x="538" 
d="M370 1v46q-68 -47 -139 -47q-93 0 -139.5 45.5t-46.5 172.5v75q0 127 46.5 172.5t139.5 45.5q82 0 151 -54l22 43h74v-499q0 -93 -51 -137t-158 -44q-88 0 -158 19v93q76 -22 157 -22q55 0 78.5 20t23.5 71zM370 134v243q-48 44 -122 44q-49 0 -72 -29.5t-23 -103.5v-65
q0 -73 23.5 -103t71.5 -30q74 0 122 44zM259 557q-60 0 -91 33.5t-31 96.5h66q0 -62 56 -62q57 0 57 62h66q0 -63 -31 -96.5t-92 -33.5z" />
    <glyph glyph-name="Gdotaccent" unicode="&#x120;" horiz-adv-x="570" 
d="M278 -11q-120 0 -174 54t-54 179v206q0 125 54.5 179t173.5 54q116 0 169 -49.5t53 -158.5h-110q0 60 -26.5 87t-85.5 27q-63 0 -90.5 -28.5t-27.5 -99.5v-228q0 -73 28.5 -100.5t94.5 -27.5q63 0 90 25.5t27 88.5v88h-118v90h228v-375h-55l-18 51q-57 -62 -159 -62z
M237 720v91h91v-91h-91z" />
    <glyph glyph-name="gdotaccent" unicode="&#x121;" horiz-adv-x="538" 
d="M370 1v46q-68 -47 -139 -47q-93 0 -139.5 45.5t-46.5 172.5v75q0 127 46.5 172.5t139.5 45.5q82 0 151 -54l22 43h74v-499q0 -93 -51 -137t-158 -44q-88 0 -158 19v93q76 -22 157 -22q55 0 78.5 20t23.5 71zM370 134v243q-48 44 -122 44q-49 0 -72 -29.5t-23 -103.5v-65
q0 -73 23.5 -103t71.5 -30q74 0 122 44zM225 570v91h91v-91h-91z" />
    <glyph glyph-name="Gcommaaccent" unicode="&#x122;" horiz-adv-x="570" 
d="M278 -11q-120 0 -174 54t-54 179v206q0 125 54.5 179t173.5 54q116 0 169 -49.5t53 -158.5h-110q0 60 -26.5 87t-85.5 27q-63 0 -90.5 -28.5t-27.5 -99.5v-228q0 -73 28.5 -100.5t94.5 -27.5q63 0 90 25.5t27 88.5v88h-118v90h228v-375h-55l-18 51q-57 -62 -159 -62z
M199 -190l32 130h109l-66 -130h-75z" />
    <glyph glyph-name="gcommaaccent" unicode="&#x123;" horiz-adv-x="538" 
d="M370 1v46q-68 -47 -139 -47q-93 0 -139.5 45.5t-46.5 172.5v75q0 127 46.5 172.5t139.5 45.5q82 0 151 -54l22 43h74v-499q0 -93 -51 -137t-158 -44q-88 0 -158 19v93q76 -22 157 -22q55 0 78.5 20t23.5 71zM370 134v243q-48 44 -122 44q-49 0 -72 -29.5t-23 -103.5v-65
q0 -73 23.5 -103t71.5 -30q74 0 122 44zM350 690l-32 -130h-109l66 130h75z" />
    <glyph glyph-name="Hcircumflex" unicode="&#x124;" horiz-adv-x="572" 
d="M507 650v-650h-110v285h-222v-285h-110v650h110v-275h222v275h110zM346 835l58 -120h-71l-47 62l-46 -62h-71l57 120h120z" />
    <glyph glyph-name="hcircumflex" unicode="&#x125;" horiz-adv-x="545" 
d="M168 670v-205q70 46 153 46q86 0 120.5 -42t34.5 -139v-330h-108v330q0 52 -20 71.5t-65 19.5q-67 0 -115 -44v-377h-108v670h108zM174 840l58 -120h-71l-47 62l-46 -62h-71l57 120h120z" />
    <glyph glyph-name="Hbar" unicode="&#x126;" horiz-adv-x="572" 
d="M10 489v67h55v94h110v-94h222v94h110v-94h55v-67h-55v-489h-110v285h-222v-285h-110v489h-55zM175 375h222v114h-222v-114z" />
    <glyph glyph-name="hbar" unicode="&#x127;" horiz-adv-x="531" 
d="M168 670v-46h269v-59h-269v-100q70 46 153 46q86 0 120.5 -42t34.5 -139v-330h-108v330q0 52 -20 71.5t-65 19.5q-67 0 -115 -44v-377h-108v670h108z" />
    <glyph glyph-name="Itilde" unicode="&#x128;" horiz-adv-x="240" 
d="M65 0v650h110v-650h-110zM174 786q34 0 34 37h63q0 -59 -21.5 -85t-65.5 -26q-30 0 -63.5 23.5t-53.5 23.5q-34 0 -34 -37h-64q0 59 21.5 85t65.5 26q31 0 64.5 -23.5t53.5 -23.5z" />
    <glyph glyph-name="itilde" unicode="&#x129;" 
d="M156 634q26 0 26 29h65q0 -59 -18.5 -85t-57.5 -26q-28 0 -56 19.5t-42 19.5q-27 0 -27 -29h-65q0 59 18.5 85t57.5 26q28 0 56.5 -19.5t42.5 -19.5zM60 0v500h108v-500h-108z" />
    <glyph glyph-name="Imacron" unicode="&#x12a;" horiz-adv-x="240" 
d="M65 0v650h110v-650h-110zM2 729v71h236v-71h-236z" />
    <glyph glyph-name="imacron" unicode="&#x12b;" 
d="M0 556v76h228v-76h-228zM60 0v500h108v-500h-108z" />
    <glyph glyph-name="Ibreve" unicode="&#x12c;" horiz-adv-x="240" 
d="M65 0v650h110v-650h-110zM120 707q-60 0 -91 33.5t-31 96.5h66q0 -62 56 -62q57 0 57 62h66q0 -63 -31 -96.5t-92 -33.5z" />
    <glyph glyph-name="ibreve" unicode="&#x12d;" 
d="M60 0v500h108v-500h-108zM115 557q-60 0 -91 33.5t-31 96.5h66q0 -62 56 -62q57 0 57 62h66q0 -63 -31 -96.5t-92 -33.5z" />
    <glyph glyph-name="Iogonek" unicode="&#x12e;" horiz-adv-x="240" 
d="M65 0v650h110v-650q-50 -36 -50 -76q0 -30 36 -30h14v-65h-50q-81 0 -81 70q0 59 62 101h-41z" />
    <glyph glyph-name="iogonek" unicode="&#x12f;" 
d="M60 0v500h108v-500h1q-50 -36 -50 -76q0 -30 36 -30h14v-65h-50q-81 0 -81 70q0 59 62 101h-40zM60 562v108h108v-108h-108z" />
    <glyph glyph-name="Idotaccent" unicode="&#x130;" horiz-adv-x="240" 
d="M65 0v650h110v-650h-110zM74 720v91h91v-91h-91z" />
    <glyph glyph-name="dotlessi" unicode="&#x131;" 
d="M60 0v500h108v-500h-108z" />
    <glyph glyph-name="Jcircumflex" unicode="&#x134;" horiz-adv-x="354" 
d="M184 556h-109v94h219v-500q0 -85 -35 -123t-135 -38q-47 0 -94 11v94q40 -11 86 -11q36 0 52 16t16 52v405zM237 835l58 -120h-71l-47 62l-46 -62h-71l57 120h120z" />
    <glyph glyph-name="jcircumflex" unicode="&#x135;" 
d="M168 500v-539q0 -72 -30 -106.5t-99 -34.5q-47 0 -84 11v90q37 -8 58 -8q47 0 47 49v538h108zM174 685l58 -120h-71l-47 62l-46 -62h-71l57 120h120z" />
    <glyph glyph-name="Kcommaaccent" unicode="&#x136;" horiz-adv-x="516" 
d="M491 650l-231 -315l236 -335h-127q-203 300 -199 286v-286h-110v650h110v-276l192 276h129zM179 -190l32 130h109l-66 -130h-75z" />
    <glyph glyph-name="kcommaaccent" unicode="&#x137;" horiz-adv-x="477" 
d="M168 230v-230h-108v670h108v-372h2l158 202h127l-194 -234l206 -266h-131l-166 230h-2zM168 -190l32 130h109l-66 -130h-75z" />
    <glyph glyph-name="kgreenlandic" unicode="&#x138;" horiz-adv-x="477" 
d="M168 230v-230h-108v500h108v-202h2l158 202h127l-194 -234l206 -266h-131l-166 230h-2z" />
    <glyph glyph-name="Lacute" unicode="&#x139;" horiz-adv-x="417" 
d="M60 0v650h110v-556h217v-94h-327zM86 715l35 120h108l-76 -120h-67z" />
    <glyph glyph-name="lacute" unicode="&#x13a;" 
d="M60 0v670h108v-670h-108zM83 725l35 120h108l-76 -120h-67z" />
    <glyph glyph-name="Lcommaaccent" unicode="&#x13b;" horiz-adv-x="417" 
d="M60 0v650h110v-556h217v-94h-327zM130 -190l32 130h109l-66 -130h-75z" />
    <glyph glyph-name="lcommaaccent" unicode="&#x13c;" 
d="M60 0v670h108v-670h-108zM26 -190l32 130h109l-66 -130h-75z" />
    <glyph glyph-name="Lcaron" unicode="&#x13d;" horiz-adv-x="417" 
d="M234 453v217h92l-27 -217h-65zM65 0v650h110v-556h217v-94h-327z" />
    <glyph glyph-name="lcaron" unicode="&#x13e;" horiz-adv-x="322" 
d="M60 0v670h108v-670h-108zM227 453v217h92l-28 -217h-64z" />
    <glyph glyph-name="Ldot" unicode="&#x13f;" horiz-adv-x="417" 
d="M236 277v106h106v-106h-106zM65 0v650h110v-556h217v-94h-327z" />
    <glyph glyph-name="ldot" unicode="&#x140;" horiz-adv-x="348" 
d="M60 0v670h108v-670h-108zM223 268v120h120v-120h-120z" />
    <glyph glyph-name="Lslash" unicode="&#x141;" horiz-adv-x="424" 
d="M75 0v248l-60 -24v78l60 24v324h110v-280q48 18 110 44v-78q-62 -26 -110 -44v-198h214v-94h-324z" />
    <glyph glyph-name="lslash" unicode="&#x142;" horiz-adv-x="265" 
d="M79 0v253l-69 -27v77l69 27v340h106v-300l69 27v-77l-69 -27v-293h-106z" />
    <glyph glyph-name="Nacute" unicode="&#x143;" horiz-adv-x="569" 
d="M509 650v-650h-138l-210 514q5 -80 5 -194v-320h-106v650h138l210 -514q0 20 -2.5 90.5t-2.5 93.5v330h106zM256 715l35 120h108l-76 -120h-67z" />
    <glyph glyph-name="nacute" unicode="&#x144;" horiz-adv-x="536" 
d="M60 500h74l22 -43q77 54 165 54q86 0 120.5 -42t34.5 -139v-330h-108v330q0 52 -20 71.5t-65 19.5q-65 0 -115 -44v-377h-108v500zM245 565l35 120h108l-76 -120h-67z" />
    <glyph glyph-name="Ncommaaccent" unicode="&#x145;" horiz-adv-x="569" 
d="M509 650v-650h-138l-210 514q5 -80 5 -194v-320h-106v650h138l210 -514q0 20 -2.5 90.5t-2.5 93.5v330h106zM206 -190l32 130h109l-66 -130h-75z" />
    <glyph glyph-name="ncommaaccent" unicode="&#x146;" horiz-adv-x="536" 
d="M60 500h74l22 -43q77 54 165 54q86 0 120.5 -42t34.5 -139v-330h-108v330q0 52 -20 71.5t-65 19.5q-65 0 -115 -44v-377h-108v500zM185 -190l32 130h109l-66 -130h-75z" />
    <glyph glyph-name="Ncaron" unicode="&#x147;" horiz-adv-x="569" 
d="M509 650v-650h-138l-210 514q5 -80 5 -194v-320h-106v650h138l210 -514q0 20 -2.5 90.5t-2.5 93.5v330h106zM403 835l-58 -120h-120l-57 120h71l46 -62l47 62h71z" />
    <glyph glyph-name="ncaron" unicode="&#x148;" horiz-adv-x="536" 
d="M60 500h74l22 -43q77 54 165 54q86 0 120.5 -42t34.5 -139v-330h-108v330q0 52 -20 71.5t-65 19.5q-65 0 -115 -44v-377h-108v500zM390 685l-58 -120h-120l-57 120h71l46 -62l47 62h71z" />
    <glyph glyph-name="Eng" unicode="&#x14a;" horiz-adv-x="579" 
d="M514 650v-669q0 -85 -35 -123t-135 -38q-47 0 -94 11v94q40 -11 86 -11q36 0 52 16t16 52l-238 532q5 -80 5 -194v-320h-106v650h138l210 -470q0 20 -2.5 90.5t-2.5 93.5v286h106z" />
    <glyph glyph-name="eng" unicode="&#x14b;" horiz-adv-x="531" 
d="M60 500h74l22 -43q77 54 165 54q86 0 120.5 -42t34.5 -139v-369q0 -72 -30 -106.5t-99 -34.5q-47 0 -84 11v90q37 -8 58 -8q47 0 47 49v368q0 52 -20 71.5t-65 19.5q-65 0 -115 -44v-377h-108v500z" />
    <glyph glyph-name="Omacron" unicode="&#x14c;" horiz-adv-x="564" 
d="M160 436v-222q0 -73 29 -102t93 -29t93 29t29 102v222q0 73 -29 102t-93 29t-93 -29t-29 -102zM514 435v-220q0 -121 -55 -173.5t-177 -52.5t-177 52.5t-55 173.5v220q0 121 55 173.5t177 52.5t177 -52.5t55 -173.5zM164 729v71h236v-71h-236z" />
    <glyph glyph-name="omacron" unicode="&#x14d;" horiz-adv-x="516" 
d="M476 276v-52q0 -131 -51.5 -183t-166.5 -52t-166.5 52t-51.5 183v52q0 130 52 182.5t166 52.5t166 -52.5t52 -182.5zM368 224v52q0 86 -23 115.5t-87 29.5t-87 -29.5t-23 -115.5v-52q0 -86 23 -115.5t87 -29.5t87 29.5t23 115.5zM141 579v71h236v-71h-236z" />
    <glyph glyph-name="Obreve" unicode="&#x14e;" horiz-adv-x="564" 
d="M160 436v-222q0 -73 29 -102t93 -29t93 29t29 102v222q0 73 -29 102t-93 29t-93 -29t-29 -102zM514 435v-220q0 -121 -55 -173.5t-177 -52.5t-177 52.5t-55 173.5v220q0 121 55 173.5t177 52.5t177 -52.5t55 -173.5zM281 707q-60 0 -91 33.5t-31 96.5h66q0 -62 56 -62
q57 0 57 62h66q0 -63 -31 -96.5t-92 -33.5z" />
    <glyph glyph-name="obreve" unicode="&#x14f;" horiz-adv-x="516" 
d="M476 276v-52q0 -131 -51.5 -183t-166.5 -52t-166.5 52t-51.5 183v52q0 130 52 182.5t166 52.5t166 -52.5t52 -182.5zM368 224v52q0 86 -23 115.5t-87 29.5t-87 -29.5t-23 -115.5v-52q0 -86 23 -115.5t87 -29.5t87 29.5t23 115.5zM258 557q-60 0 -91 33.5t-31 96.5h66
q0 -62 56 -62q57 0 57 62h66q0 -63 -31 -96.5t-92 -33.5z" />
    <glyph glyph-name="Ohungarumlaut" unicode="&#x150;" horiz-adv-x="564" 
d="M160 436v-222q0 -73 29 -102t93 -29t93 29t29 102v222q0 73 -29 102t-93 29t-93 -29t-29 -102zM514 435v-220q0 -121 -55 -173.5t-177 -52.5t-177 52.5t-55 173.5v220q0 121 55 173.5t177 52.5t177 -52.5t55 -173.5zM194 715l16 120h98l-51 -120h-63zM320 715l42 120h101
l-76 -120h-67z" />
    <glyph glyph-name="ohungarumlaut" unicode="&#x151;" horiz-adv-x="516" 
d="M476 276v-52q0 -131 -51.5 -183t-166.5 -52t-166.5 52t-51.5 183v52q0 130 52 182.5t166 52.5t166 -52.5t52 -182.5zM368 224v52q0 86 -23 115.5t-87 29.5t-87 -29.5t-23 -115.5v-52q0 -86 23 -115.5t87 -29.5t87 29.5t23 115.5zM170 565l16 120h98l-51 -120h-63z
M296 565l42 120h101l-76 -120h-67z" />
    <glyph glyph-name="OE" unicode="&#x152;" horiz-adv-x="835" 
d="M404 94v462h-122q-64 0 -93 -29t-29 -102v-200q0 -73 29 -102t93 -29h122zM282 650h507v-94h-275v-181h240v-90h-240v-191h275v-94h-507q-122 0 -177 52.5t-55 173.5v198q0 121 55 173.5t177 52.5z" />
    <glyph glyph-name="oe" unicode="&#x153;" horiz-adv-x="834" 
d="M584 79q95 0 186 16v-88q-94 -18 -179 -18q-124 0 -169 55q-45 -55 -164 -55q-115 0 -166.5 52t-51.5 183v52q0 130 52 182.5t166 52.5q117 0 164 -57q45 57 162 57q107 0 158.5 -52t51.5 -183v-68h-318q0 -72 23 -100.5t85 -28.5zM368 224v52q0 86 -23 115.5t-87 29.5
t-87 -29.5t-23 -115.5v-52q0 -86 23 -115.5t87 -29.5t87 29.5t23 115.5zM476 292h210q0 71 -19 100t-83 29t-86 -29t-22 -100z" />
    <glyph glyph-name="Racute" unicode="&#x154;" horiz-adv-x="557" 
d="M60 0v650h214q122 0 175.5 -43.5t53.5 -164.5q0 -80 -26 -125t-80 -64l120 -253h-121l-109 237h-117v-237h-110zM170 327h106q63 0 88.5 23.5t25.5 90.5q0 68 -25.5 91.5t-88.5 23.5h-106v-229zM223 715l35 120h108l-76 -120h-67z" />
    <glyph glyph-name="racute" unicode="&#x155;" horiz-adv-x="329" 
d="M299 511v-96q-81 0 -131 -44v-371h-108v500h74l22 -43q65 54 143 54zM143 565l35 120h108l-76 -120h-67z" />
    <glyph glyph-name="Rcommaaccent" unicode="&#x156;" horiz-adv-x="557" 
d="M60 0v650h214q122 0 175.5 -43.5t53.5 -164.5q0 -80 -26 -125t-80 -64l120 -253h-121l-109 237h-117v-237h-110zM170 327h106q63 0 88.5 23.5t25.5 90.5q0 68 -25.5 91.5t-88.5 23.5h-106v-229zM195 -190l32 130h109l-66 -130h-75z" />
    <glyph glyph-name="rcommaaccent" unicode="&#x157;" horiz-adv-x="329" 
d="M299 511v-96q-81 0 -131 -44v-371h-108v500h74l22 -43q65 54 143 54zM26 -190l32 130h109l-66 -130h-75z" />
    <glyph glyph-name="Rcaron" unicode="&#x158;" horiz-adv-x="557" 
d="M60 0v650h214q122 0 175.5 -43.5t53.5 -164.5q0 -80 -26 -125t-80 -64l120 -253h-121l-109 237h-117v-237h-110zM170 327h106q63 0 88.5 23.5t25.5 90.5q0 68 -25.5 91.5t-88.5 23.5h-106v-229zM382 835l-58 -120h-120l-57 120h71l46 -62l47 62h71z" />
    <glyph glyph-name="rcaron" unicode="&#x159;" horiz-adv-x="329" 
d="M299 511v-96q-81 0 -131 -44v-371h-108v500h74l22 -43q65 54 143 54zM297 685l-58 -120h-120l-57 120h71l46 -62l47 62h71z" />
    <glyph glyph-name="Sacute" unicode="&#x15a;" horiz-adv-x="554" 
d="M490 473h-110q0 51 -25.5 72.5t-84.5 21.5q-58 0 -85 -21t-27 -68q0 -52 26 -74t108 -34q123 -18 167.5 -58.5t44.5 -126.5q0 -104 -58 -150t-176 -46q-116 0 -173 45t-57 151h110q0 -56 28 -79t92 -23q66 0 94 23t28 79q0 48 -27.5 69.5t-116.5 35.5q-105 16 -152.5 59
t-47.5 130q0 88 54.5 135t166.5 47q115 0 168 -43.5t53 -144.5zM247 715l35 120h108l-76 -120h-67z" />
    <glyph glyph-name="sacute" unicode="&#x15b;" horiz-adv-x="496" 
d="M456 142q0 -35 -6 -58t-25.5 -47t-64 -36t-113.5 -12q-117 0 -162 40t-45 124h107q0 -42 20.5 -58t79.5 -16q61 0 81 14.5t20 48.5q0 36 -22.5 51.5t-94.5 21.5q-105 9 -144.5 42t-39.5 103q0 151 198 151q108 0 154.5 -37.5t46.5 -127.5h-108q0 36 -18.5 55.5
t-74.5 19.5q-50 0 -70.5 -14.5t-20.5 -47.5t20.5 -49t76.5 -20q122 -10 163.5 -41.5t41.5 -106.5zM220 565l35 120h108l-76 -120h-67z" />
    <glyph glyph-name="Scircumflex" unicode="&#x15c;" horiz-adv-x="554" 
d="M490 473h-110q0 51 -25.5 72.5t-84.5 21.5q-58 0 -85 -21t-27 -68q0 -52 26 -74t108 -34q123 -18 167.5 -58.5t44.5 -126.5q0 -104 -58 -150t-176 -46q-116 0 -173 45t-57 151h110q0 -56 28 -79t92 -23q66 0 94 23t28 79q0 48 -27.5 69.5t-116.5 35.5q-105 16 -152.5 59
t-47.5 130q0 88 54.5 135t166.5 47q115 0 168 -43.5t53 -144.5zM337 835l58 -120h-71l-47 62l-46 -62h-71l57 120h120z" />
    <glyph glyph-name="scircumflex" unicode="&#x15d;" horiz-adv-x="496" 
d="M456 142q0 -35 -6 -58t-25.5 -47t-64 -36t-113.5 -12q-117 0 -162 40t-45 124h107q0 -42 20.5 -58t79.5 -16q61 0 81 14.5t20 48.5q0 36 -22.5 51.5t-94.5 21.5q-105 9 -144.5 42t-39.5 103q0 151 198 151q108 0 154.5 -37.5t46.5 -127.5h-108q0 36 -18.5 55.5
t-74.5 19.5q-50 0 -70.5 -14.5t-20.5 -47.5t20.5 -49t76.5 -20q122 -10 163.5 -41.5t41.5 -106.5zM309 685l58 -120h-71l-47 62l-46 -62h-71l57 120h120z" />
    <glyph glyph-name="Scedilla" unicode="&#x15e;" horiz-adv-x="554" 
d="M490 473h-110q0 51 -25.5 72.5t-84.5 21.5q-58 0 -85 -21t-27 -68q0 -52 26 -74t108 -34q123 -18 167.5 -58.5t44.5 -126.5q0 -99 -52.5 -145t-159.5 -50l-10 -34q71 -9 71 -72q0 -43 -25.5 -62t-82.5 -19h-63v53h64q41 0 41 28q0 16 -9 22.5t-32 6.5h-28l23 77
q-102 5 -151.5 50.5t-49.5 144.5h110q0 -56 28 -79t92 -23q66 0 94 23t28 79q0 48 -27.5 69.5t-116.5 35.5q-105 16 -152.5 59t-47.5 130q0 88 54.5 135t166.5 47q115 0 168 -43.5t53 -144.5z" />
    <glyph glyph-name="scedilla" unicode="&#x15f;" horiz-adv-x="496" 
d="M456 142q0 -26 -3 -44.5t-13.5 -39.5t-29.5 -34t-54 -22.5t-84 -11.5l-10 -34q71 -9 71 -72q0 -43 -25.5 -62t-82.5 -19h-63v53h64q41 0 41 28q0 16 -9 22.5t-32 6.5h-28l23 77q-102 4 -141.5 44t-39.5 119h107q0 -42 20.5 -58t79.5 -16q61 0 81 14.5t20 48.5
q0 36 -22.5 51.5t-94.5 21.5q-105 9 -144.5 42t-39.5 103q0 151 198 151q108 0 154.5 -37.5t46.5 -127.5h-108q0 36 -18.5 55.5t-74.5 19.5q-50 0 -70.5 -14.5t-20.5 -47.5t20.5 -49t76.5 -20q122 -10 163.5 -41.5t41.5 -106.5z" />
    <glyph glyph-name="Scaron" unicode="&#x160;" horiz-adv-x="554" 
d="M490 473h-110q0 51 -25.5 72.5t-84.5 21.5q-58 0 -85 -21t-27 -68q0 -52 26 -74t108 -34q123 -18 167.5 -58.5t44.5 -126.5q0 -104 -58 -150t-176 -46q-116 0 -173 45t-57 151h110q0 -56 28 -79t92 -23q66 0 94 23t28 79q0 48 -27.5 69.5t-116.5 35.5q-105 16 -152.5 59
t-47.5 130q0 88 54.5 135t166.5 47q115 0 168 -43.5t53 -144.5zM395 835l-58 -120h-120l-57 120h71l46 -62l47 62h71z" />
    <glyph glyph-name="scaron" unicode="&#x161;" horiz-adv-x="496" 
d="M456 142q0 -35 -6 -58t-25.5 -47t-64 -36t-113.5 -12q-117 0 -162 40t-45 124h107q0 -42 20.5 -58t79.5 -16q61 0 81 14.5t20 48.5q0 36 -22.5 51.5t-94.5 21.5q-105 9 -144.5 42t-39.5 103q0 151 198 151q108 0 154.5 -37.5t46.5 -127.5h-108q0 36 -18.5 55.5
t-74.5 19.5q-50 0 -70.5 -14.5t-20.5 -47.5t20.5 -49t76.5 -20q122 -10 163.5 -41.5t41.5 -106.5zM368 685l-58 -120h-120l-57 120h71l46 -62l47 62h71z" />
    <glyph glyph-name="Tcaron" unicode="&#x164;" horiz-adv-x="468" 
d="M179 0v556h-154v94h418v-94h-154v-556h-110zM352 835l-58 -120h-120l-57 120h71l46 -62l47 62h71z" />
    <glyph glyph-name="tcaron" unicode="&#x165;" horiz-adv-x="344" 
d="M242 540v170h87l-26 -170h-61zM304 87v-87q-37 -11 -84 -11q-69 0 -99 34.5t-30 106.5v280h-71v75l71 15v117l108 23v-140h105v-90h-105v-281q0 -50 47 -50q21 0 58 8z" />
    <glyph glyph-name="Tbar" unicode="&#x166;" horiz-adv-x="458" 
d="M84 270v81h90v205h-154v94h418v-94h-154v-205h90v-81h-90v-270h-110v270h-90z" />
    <glyph glyph-name="tbar" unicode="&#x167;" horiz-adv-x="344" 
d="M35 225v71h56v114h-71v75l71 15v117l108 23v-140h105v-90h-105v-114h86v-71h-86v-96q0 -50 47 -50q21 0 58 8v-87q-37 -11 -84 -11q-69 0 -99 34.5t-30 106.5v95h-56z" />
    <glyph glyph-name="Utilde" unicode="&#x168;" horiz-adv-x="570" 
d="M60 650h110v-448q0 -64 28 -91.5t87 -27.5t87 27.5t28 91.5v448h110v-444q0 -120 -55 -168.5t-170 -48.5t-170 48.5t-55 168.5v444zM339 786q34 0 34 37h63q0 -59 -21.5 -85t-65.5 -26q-30 0 -63.5 23.5t-53.5 23.5q-34 0 -34 -37h-64q0 59 21.5 85t65.5 26
q31 0 64.5 -23.5t53.5 -23.5z" />
    <glyph glyph-name="utilde" unicode="&#x169;" horiz-adv-x="536" 
d="M476 0h-74l-22 43q-77 -54 -165 -54q-86 0 -120.5 42t-34.5 139v330h108v-330q0 -52 20 -71.5t65 -19.5q65 0 115 44v377h108v-500zM322 636q34 0 34 37h63q0 -59 -21.5 -85t-65.5 -26q-30 0 -63.5 23.5t-53.5 23.5q-34 0 -34 -37h-64q0 59 21.5 85t65.5 26
q31 0 64.5 -23.5t53.5 -23.5z" />
    <glyph glyph-name="Umacron" unicode="&#x16a;" horiz-adv-x="570" 
d="M60 650h110v-448q0 -64 28 -91.5t87 -27.5t87 27.5t28 91.5v448h110v-444q0 -120 -55 -168.5t-170 -48.5t-170 48.5t-55 168.5v444zM168 729v71h236v-71h-236z" />
    <glyph glyph-name="umacron" unicode="&#x16b;" horiz-adv-x="536" 
d="M476 0h-74l-22 43q-77 -54 -165 -54q-86 0 -120.5 42t-34.5 139v330h108v-330q0 -52 20 -71.5t65 -19.5q65 0 115 44v377h108v-500zM151 579v71h236v-71h-236z" />
    <glyph glyph-name="Ubreve" unicode="&#x16c;" horiz-adv-x="570" 
d="M60 650h110v-448q0 -64 28 -91.5t87 -27.5t87 27.5t28 91.5v448h110v-444q0 -120 -55 -168.5t-170 -48.5t-170 48.5t-55 168.5v444zM285 707q-60 0 -91 33.5t-31 96.5h66q0 -62 56 -62q57 0 57 62h66q0 -63 -31 -96.5t-92 -33.5z" />
    <glyph glyph-name="ubreve" unicode="&#x16d;" horiz-adv-x="536" 
d="M476 0h-74l-22 43q-77 -54 -165 -54q-86 0 -120.5 42t-34.5 139v330h108v-330q0 -52 20 -71.5t65 -19.5q65 0 115 44v377h108v-500zM270 557q-60 0 -91 33.5t-31 96.5h66q0 -62 56 -62q57 0 57 62h66q0 -63 -31 -96.5t-92 -33.5z" />
    <glyph glyph-name="Uring" unicode="&#x16e;" horiz-adv-x="570" 
d="M60 650h110v-448q0 -64 28 -91.5t87 -27.5t87 27.5t28 91.5v448h110v-444q0 -120 -55 -168.5t-170 -48.5t-170 48.5t-55 168.5v444zM285 885q50 0 77.5 -22.5t27.5 -66.5t-27.5 -67t-77.5 -23q-49 0 -76.5 23t-27.5 67t27.5 66.5t76.5 22.5zM285 757q43 0 43 39
q0 38 -43 38t-43 -38q0 -39 43 -39z" />
    <glyph glyph-name="uring" unicode="&#x16f;" horiz-adv-x="536" 
d="M476 0h-74l-22 43q-77 -54 -165 -54q-86 0 -120.5 42t-34.5 139v330h108v-330q0 -52 20 -71.5t65 -19.5q65 0 115 44v377h108v-500zM268 735q50 0 77.5 -22.5t27.5 -66.5t-27.5 -67t-77.5 -23q-49 0 -76.5 23t-27.5 67t27.5 66.5t76.5 22.5zM268 607q43 0 43 39
q0 38 -43 38t-43 -38q0 -39 43 -39z" />
    <glyph glyph-name="Uhungarumlaut" unicode="&#x170;" horiz-adv-x="570" 
d="M60 650h110v-448q0 -64 28 -91.5t87 -27.5t87 27.5t28 91.5v448h110v-444q0 -120 -55 -168.5t-170 -48.5t-170 48.5t-55 168.5v444zM189 715l16 120h98l-51 -120h-63zM315 715l42 120h101l-76 -120h-67z" />
    <glyph glyph-name="uhungarumlaut" unicode="&#x171;" horiz-adv-x="536" 
d="M476 0h-74l-22 43q-77 -54 -165 -54q-86 0 -120.5 42t-34.5 139v330h108v-330q0 -52 20 -71.5t65 -19.5q65 0 115 44v377h108v-500zM173 565l16 120h98l-51 -120h-63zM299 565l42 120h101l-76 -120h-67z" />
    <glyph glyph-name="Uogonek" unicode="&#x172;" horiz-adv-x="570" 
d="M380 -106v-65h-50q-81 0 -81 70q0 51 47 90h-11q-115 0 -170 48.5t-55 168.5v444h110v-448q0 -64 28 -91.5t87 -27.5t87 27.5t28 91.5v448h110v-444q0 -93 -33 -142.5t-100 -64.5q-47 -36 -47 -75q0 -30 36 -30h14z" />
    <glyph glyph-name="uogonek" unicode="&#x173;" horiz-adv-x="536" 
d="M476 -106v-65h-50q-81 0 -81 70q0 58 58 98l-23 46q-77 -54 -165 -54q-86 0 -120.5 42t-34.5 139v330h108v-330q0 -52 20 -71.5t65 -19.5q65 0 115 44v377h108v-500q-50 -36 -50 -76q0 -30 36 -30h14z" />
    <glyph glyph-name="Wcircumflex" unicode="&#x174;" horiz-adv-x="818" 
d="M504 0l-95 540l-95 -540h-151l-133 650h112l97 -540h2l97 540h142l97 -540h2l97 540h112l-133 -650h-151zM469 835l58 -120h-71l-47 62l-46 -62h-71l57 120h120z" />
    <glyph glyph-name="wcircumflex" unicode="&#x175;" horiz-adv-x="748" 
d="M527 102l79 398h112l-125 -500h-130l-89 394l-89 -394h-130l-125 500h112l79 -397h1l91 397h122l91 -398h1zM434 685l58 -120h-71l-47 62l-46 -62h-71l57 120h120z" />
    <glyph glyph-name="Ycircumflex" unicode="&#x176;" horiz-adv-x="514" 
d="M202 0v246l-187 404h120l121 -295h2l121 295h120l-187 -404v-246h-110zM317 835l58 -120h-71l-47 62l-46 -62h-71l57 120h120z" />
    <glyph glyph-name="ycircumflex" unicode="&#x177;" horiz-adv-x="504" 
d="M200 1l-180 499h116l116 -372h2l114 372h116l-199 -562q-24 -66 -62 -92t-117 -26q-34 0 -61 10v90q30 -10 61 -10q35 0 52 13.5t31 48.5zM312 685l58 -120h-71l-47 62l-46 -62h-71l57 120h120z" />
    <glyph glyph-name="Ydieresis" unicode="&#x178;" horiz-adv-x="514" 
d="M202 0v246l-187 404h120l121 -295h2l121 295h120l-187 -404v-246h-110zM134 720v91h91v-91h-91zM289 720v91h92v-91h-92z" />
    <glyph glyph-name="Zacute" unicode="&#x179;" horiz-adv-x="513" 
d="M60 556v94h403v-85l-285 -471h295v-94h-423v84l284 472h-274zM233 715l35 120h108l-76 -120h-67z" />
    <glyph glyph-name="zacute" unicode="&#x17a;" horiz-adv-x="478" 
d="M50 410v90h382v-75l-255 -335h266v-90h-403v74l255 336h-245zM207 565l35 120h108l-76 -120h-67z" />
    <glyph glyph-name="Zdotaccent" unicode="&#x17b;" horiz-adv-x="513" 
d="M60 556v94h403v-85l-285 -471h295v-94h-423v84l284 472h-274zM223 720v91h91v-91h-91z" />
    <glyph glyph-name="zdotaccent" unicode="&#x17c;" horiz-adv-x="478" 
d="M50 410v90h382v-75l-255 -335h266v-90h-403v74l255 336h-245zM191 570v91h91v-91h-91z" />
    <glyph glyph-name="Zcaron" unicode="&#x17d;" horiz-adv-x="513" 
d="M60 556v94h403v-85l-285 -471h295v-94h-423v84l284 472h-274zM375 835l-58 -120h-120l-57 120h71l46 -62l47 62h71z" />
    <glyph glyph-name="zcaron" unicode="&#x17e;" horiz-adv-x="478" 
d="M50 410v90h382v-75l-255 -335h266v-90h-403v74l255 336h-245zM362 685l-58 -120h-120l-57 120h71l46 -62l47 62h71z" />
    <glyph glyph-name="florin" unicode="&#x192;" horiz-adv-x="350" 
d="M218 410v-449q0 -73 -31.5 -107t-97.5 -34q-47 0 -84 11v90q37 -8 58 -8q47 0 47 49v448h-71v75l71 15v45q0 73 31.5 107t97.5 34q47 0 84 -11v-90q-37 8 -58 8q-47 0 -47 -49v-44h85v-90h-85z" />
    <glyph glyph-name="Scommaaccent" unicode="&#x218;" horiz-adv-x="554" 
d="M490 473h-110q0 51 -25.5 72.5t-84.5 21.5q-58 0 -85 -21t-27 -68q0 -52 26 -74t108 -34q123 -18 167.5 -58.5t44.5 -126.5q0 -104 -58 -150t-176 -46q-116 0 -173 45t-57 151h110q0 -56 28 -79t92 -23q66 0 94 23t28 79q0 48 -27.5 69.5t-116.5 35.5q-105 16 -152.5 59
t-47.5 130q0 88 54.5 135t166.5 47q115 0 168 -43.5t53 -144.5zM188 -190l32 130h109l-66 -130h-75z" />
    <glyph glyph-name="scommaaccent" unicode="&#x219;" horiz-adv-x="496" 
d="M456 142q0 -35 -6 -58t-25.5 -47t-64 -36t-113.5 -12q-117 0 -162 40t-45 124h107q0 -42 20.5 -58t79.5 -16q61 0 81 14.5t20 48.5q0 36 -22.5 51.5t-94.5 21.5q-105 9 -144.5 42t-39.5 103q0 151 198 151q108 0 154.5 -37.5t46.5 -127.5h-108q0 36 -18.5 55.5
t-74.5 19.5q-50 0 -70.5 -14.5t-20.5 -47.5t20.5 -49t76.5 -20q122 -10 163.5 -41.5t41.5 -106.5zM166 -190l32 130h109l-66 -130h-75z" />
    <glyph glyph-name="Tcommaaccent" unicode="&#x21a;" horiz-adv-x="468" 
d="M179 0v556h-154v94h418v-94h-154v-556h-110zM147 -190l32 130h109l-66 -130h-75z" />
    <glyph glyph-name="tcommaaccent" unicode="&#x21b;" horiz-adv-x="344" 
d="M304 87v-87q-37 -11 -84 -11q-69 0 -99 34.5t-30 106.5v280h-71v75l71 15v117l108 23v-140h105v-90h-105v-281q0 -50 47 -50q21 0 58 8zM110 -190l32 130h109l-66 -130h-75z" />
    <glyph glyph-name="circumflex" unicode="&#x2c6;" horiz-adv-x="315" 
d="M218 685l58 -120h-71l-47 62l-46 -62h-71l57 120h120z" />
    <glyph glyph-name="caron" unicode="&#x2c7;" horiz-adv-x="337" 
d="M288 685l-58 -120h-120l-57 120h71l46 -62l47 62h71z" />
    <glyph glyph-name="breve" unicode="&#x2d8;" horiz-adv-x="324" 
d="M162 557q-60 0 -91 33.5t-31 96.5h66q0 -62 56 -62q57 0 57 62h66q0 -63 -31 -96.5t-92 -33.5z" />
    <glyph glyph-name="dotaccent" unicode="&#x2d9;" horiz-adv-x="208" 
d="M58 570v91h91v-91h-91z" />
    <glyph glyph-name="ring" unicode="&#x2da;" horiz-adv-x="300" 
d="M150 735q50 0 77.5 -22.5t27.5 -66.5t-27.5 -67t-77.5 -23q-49 0 -76.5 23t-27.5 67t27.5 66.5t76.5 22.5zM150 607q43 0 43 39q0 38 -43 38t-43 -38q0 -39 43 -39z" />
    <glyph glyph-name="ogonek" unicode="&#x2db;" horiz-adv-x="203" 
d="M163 -106v-65h-50q-81 0 -81 70q0 59 62 101h69q-50 -36 -50 -76q0 -30 36 -30h14z" />
    <glyph glyph-name="tilde" unicode="&#x2dc;" horiz-adv-x="400" 
d="M254 636q34 0 34 37h63q0 -59 -21.5 -85t-65.5 -26q-30 0 -63.5 23.5t-53.5 23.5q-34 0 -34 -37h-64q0 59 21.5 85t65.5 26q31 0 64.5 -23.5t53.5 -23.5z" />
    <glyph glyph-name="hungarumlaut" unicode="&#x2dd;" horiz-adv-x="384" 
d="M59 565l16 120h98l-51 -120h-63zM185 565l42 120h101l-76 -120h-67z" />
    <glyph glyph-name="pi" unicode="&#x3c0;" horiz-adv-x="602" 
d="M130 0v410h-80v90h502v-90h-80v-254q0 -36 15.5 -51t50.5 -15h14v-90h-15q-92 0 -132.5 35t-40.5 114v261h-126v-410h-108z" />
    <glyph glyph-name="Bdotaccent" unicode="&#x1e02;" horiz-adv-x="550" 
d="M60 0v650h219q112 0 161.5 -40t49.5 -128q0 -53 -23 -91t-62 -54q105 -35 105 -157q0 -91 -51.5 -135.5t-163.5 -44.5h-235zM170 94h121q55 0 80 22t25 73q0 96 -105 96h-121v-191zM281 556h-111v-181h117q93 0 93 91q0 47 -24 68.5t-75 21.5zM215 720v91h91v-91h-91z
" />
    <glyph glyph-name="bdotaccent" unicode="&#x1e03;" horiz-adv-x="538" 
d="M60 670h108v-205q67 46 139 46q93 0 139.5 -45.5t46.5 -172.5v-86q0 -127 -46.5 -172.5t-139.5 -45.5q-82 0 -151 54l-22 -43h-74v670zM168 377v-254q48 -44 122 -44q48 0 71.5 30t23.5 103v76q0 74 -23 103.5t-72 29.5q-74 0 -122 -44zM259 570v91h91v-91h-91z" />
    <glyph glyph-name="Ddotaccent" unicode="&#x1e0a;" horiz-adv-x="562" 
d="M267 556h-97v-462h97q74 0 104.5 29t30.5 102v205q0 81 -30.5 103.5t-104.5 22.5zM269 0h-209v650h209q128 0 185.5 -48t57.5 -183v-187q0 -135 -58 -183.5t-185 -48.5zM217 720v91h91v-91h-91z" />
    <glyph glyph-name="ddotaccent" unicode="&#x1e0b;" horiz-adv-x="538" 
d="M370 670h108v-670h-74l-22 43q-69 -54 -151 -54q-93 0 -139.5 45.5t-46.5 172.5v86q0 127 46.5 172.5t139.5 45.5q72 0 139 -46v205zM370 123v254q-48 44 -122 44q-49 0 -72 -29.5t-23 -103.5v-76q0 -73 23.5 -103t71.5 -30q74 0 122 44zM190 570v91h91v-91h-91z" />
    <glyph glyph-name="Fdotaccent" unicode="&#x1e1e;" horiz-adv-x="466" 
d="M170 0h-110v650h366v-94h-256v-181h221v-90h-221v-285zM208 720v91h91v-91h-91z" />
    <glyph glyph-name="fdotaccent" unicode="&#x1e1f;" horiz-adv-x="334" 
d="M309 675v-87q-37 8 -58 8q-47 0 -47 -49v-47h85v-90h-85v-410h-108v410h-71v75l71 15v45q0 73 31.5 107t97.5 34q47 0 84 -11zM163 735v91h91v-91h-91z" />
    <glyph glyph-name="Mdotaccent" unicode="&#x1e40;" horiz-adv-x="712" 
d="M551 531l-153 -531h-84l-153 531l6 -178v-353h-108v650h156l140 -493h2l140 493h156v-650h-108v353zM312 720v91h91v-91h-91z" />
    <glyph glyph-name="mdotaccent" unicode="&#x1e41;" horiz-adv-x="783" 
d="M134 500l22 -43q76 54 146 54q83 0 125 -54q80 54 153 54q84 0 113.5 -40.5t29.5 -140.5v-330h-108v330q0 53 -15 72t-56 19q-49 0 -99 -44v-377h-108v330q0 53 -15 72t-56 19q-51 0 -98 -44v-377h-108v500h74zM347 570v91h91v-91h-91z" />
    <glyph glyph-name="Pdotaccent" unicode="&#x1e56;" horiz-adv-x="548" 
d="M175 326h108q63 0 87.5 23.5t24.5 91.5t-24.5 91.5t-87.5 23.5h-108v-230zM65 0v650h216q121 0 174 -43.5t53 -164.5q0 -114 -53 -160t-172 -46h-108v-236h-110zM227 720v91h91v-91h-91z" />
    <glyph glyph-name="pdotaccent" unicode="&#x1e57;" horiz-adv-x="538" 
d="M168 -170h-108v670h74l22 -43q71 54 151 54q93 0 139.5 -45.5t46.5 -172.5v-86q0 -127 -46.5 -172.5t-139.5 -45.5q-72 0 -139 46v-205zM168 377v-254q48 -44 122 -44q49 0 72 29.5t23 103.5v76q0 73 -23.5 103t-71.5 30q-74 0 -122 -44zM229 570v91h91v-91h-91z" />
    <glyph glyph-name="Sdotaccent" unicode="&#x1e60;" horiz-adv-x="554" 
d="M490 473h-110q0 51 -25.5 72.5t-84.5 21.5q-58 0 -85 -21t-27 -68q0 -52 26 -74t108 -34q123 -18 167.5 -58.5t44.5 -126.5q0 -104 -58 -150t-176 -46q-116 0 -173 45t-57 151h110q0 -56 28 -79t92 -23q66 0 94 23t28 79q0 48 -27.5 69.5t-116.5 35.5q-105 16 -152.5 59
t-47.5 130q0 88 54.5 135t166.5 47q115 0 168 -43.5t53 -144.5zM233 720v91h91v-91h-91z" />
    <glyph glyph-name="sdotaccent" unicode="&#x1e61;" horiz-adv-x="496" 
d="M456 142q0 -35 -6 -58t-25.5 -47t-64 -36t-113.5 -12q-117 0 -162 40t-45 124h107q0 -42 20.5 -58t79.5 -16q61 0 81 14.5t20 48.5q0 36 -22.5 51.5t-94.5 21.5q-105 9 -144.5 42t-39.5 103q0 151 198 151q108 0 154.5 -37.5t46.5 -127.5h-108q0 36 -18.5 55.5
t-74.5 19.5q-50 0 -70.5 -14.5t-20.5 -47.5t20.5 -49t76.5 -20q122 -10 163.5 -41.5t41.5 -106.5zM206 570v91h91v-91h-91z" />
    <glyph glyph-name="Tdotaccent" unicode="&#x1e6a;" horiz-adv-x="468" 
d="M179 0v556h-154v94h418v-94h-154v-556h-110zM190 720v91h91v-91h-91z" />
    <glyph glyph-name="tdotaccent" unicode="&#x1e6b;" horiz-adv-x="344" 
d="M304 87v-87q-37 -11 -84 -11q-69 0 -99 34.5t-30 106.5v280h-71v75l71 15v117l108 23v-140h105v-90h-105v-281q0 -50 47 -50q21 0 58 8zM102 688v91h91v-91h-91z" />
    <glyph glyph-name="Wgrave" unicode="&#x1e80;" horiz-adv-x="818" 
d="M504 0l-95 540l-95 -540h-151l-133 650h112l97 -540h2l97 540h142l97 -540h2l97 540h112l-133 -650h-151zM412 835l35 -120h-67l-76 120h108z" />
    <glyph glyph-name="wgrave" unicode="&#x1e81;" horiz-adv-x="748" 
d="M527 102l79 398h112l-125 -500h-130l-89 394l-89 -394h-130l-125 500h112l79 -397h1l91 397h122l91 -398h1zM373 685l35 -120h-67l-76 120h108z" />
    <glyph glyph-name="Wacute" unicode="&#x1e82;" horiz-adv-x="818" 
d="M504 0l-95 540l-95 -540h-151l-133 650h112l97 -540h2l97 540h142l97 -540h2l97 540h112l-133 -650h-151zM380 715l35 120h108l-76 -120h-67z" />
    <glyph glyph-name="wacute" unicode="&#x1e83;" horiz-adv-x="748" 
d="M527 102l79 398h112l-125 -500h-130l-89 394l-89 -394h-130l-125 500h112l79 -397h1l91 397h122l91 -398h1zM345 565l35 120h108l-76 -120h-67z" />
    <glyph glyph-name="Wdieresis" unicode="&#x1e84;" horiz-adv-x="818" 
d="M504 0l-95 540l-95 -540h-151l-133 650h112l97 -540h2l97 540h142l97 -540h2l97 540h112l-133 -650h-151zM286 720v91h91v-91h-91zM441 720v91h92v-91h-92z" />
    <glyph glyph-name="wdieresis" unicode="&#x1e85;" horiz-adv-x="748" 
d="M527 102l79 398h112l-125 -500h-130l-89 394l-89 -394h-130l-125 500h112l79 -397h1l91 397h122l91 -398h1zM251 570v91h91v-91h-91zM406 570v91h92v-91h-92z" />
    <glyph glyph-name="Ygrave" unicode="&#x1ef2;" horiz-adv-x="514" 
d="M202 0v246l-187 404h120l121 -295h2l121 295h120l-187 -404v-246h-110zM254 835l35 -120h-67l-76 120h108z" />
    <glyph glyph-name="ygrave" unicode="&#x1ef3;" horiz-adv-x="504" 
d="M200 1l-180 499h116l116 -372h2l114 372h116l-199 -562q-24 -66 -62 -92t-117 -26q-34 0 -61 10v90q30 -10 61 -10q35 0 52 13.5t31 48.5zM254 685l35 -120h-67l-76 120h108z" />
    <glyph glyph-name="endash" unicode="&#x2013;" horiz-adv-x="475" 
d="M50 234v90h375v-90h-375z" />
    <glyph glyph-name="emdash" unicode="&#x2014;" horiz-adv-x="650" 
d="M50 234v90h550v-90h-550z" />
    <glyph glyph-name="quoteleft" unicode="&#x2018;" horiz-adv-x="182" 
d="M142 650v-250h-55l-57 250h112z" />
    <glyph glyph-name="quoteright" unicode="&#x2019;" horiz-adv-x="182" 
d="M40 400v250h112l-57 -250h-55z" />
    <glyph glyph-name="quotesinglbase" unicode="&#x201a;" horiz-adv-x="202" 
d="M50 -125v250h112l-57 -250h-55z" />
    <glyph glyph-name="quotedblleft" unicode="&#x201c;" horiz-adv-x="344" 
d="M152 650v-250h-55l-57 250h112zM294 650v-250h-55l-57 250h112z" />
    <glyph glyph-name="quotedblright" unicode="&#x201d;" horiz-adv-x="344" 
d="M192 400v250h112l-57 -250h-55zM50 400v250h112l-57 -250h-55z" />
    <glyph glyph-name="quotedblbase" unicode="&#x201e;" horiz-adv-x="344" 
d="M192 -125v250h112l-57 -250h-55zM50 -125v250h112l-57 -250h-55z" />
    <glyph glyph-name="dagger" unicode="&#x2020;" horiz-adv-x="336" 
d="M40 567h98v103h60v-103h98v-54h-98v-253h-60v253h-98v54z" />
    <glyph glyph-name="daggerdbl" unicode="&#x2021;" horiz-adv-x="336" 
d="M40 567h98v103h60v-103h98v-54h-98v-96h98v-54h-98v-103h-60v103h-98v54h98v96h-98v54z" />
    <glyph glyph-name="bullet" unicode="&#x2022;" horiz-adv-x="436" 
d="M391 346v-42q0 -99 -39.5 -134t-133.5 -35t-133.5 35t-39.5 134v42q0 99 39.5 134t133.5 35t133.5 -35t39.5 -134z" />
    <glyph glyph-name="ellipsis" unicode="&#x2026;" horiz-adv-x="620" 
d="M50 0v120h120v-120h-120zM250 0v120h120v-120h-120zM450 0v120h120v-120h-120z" />
    <glyph glyph-name="perthousand" unicode="&#x2030;" horiz-adv-x="841" 
d="M801 133q0 -80 -32 -112t-103 -32t-99 35q-29 -35 -99 -35q-72 0 -103.5 32t-31.5 112t32 112.5t103 32.5q69 0 99 -37q28 37 99 37t103 -32.5t32 -112.5zM310 516q0 -80 -32 -112.5t-103 -32.5q-72 0 -103.5 32t-31.5 113q0 80 32 112.5t103 32.5t103 -32.5t32 -112.5z
M564 650l-409 -650h-76l408 650h77zM112 524q0 -56 13 -75t50 -19q35 0 49 18t14 68t-14 68t-49 18t-49 -16.5t-14 -61.5zM405 141q0 -56 13 -75t50 -19q35 0 49 18t14 68t-14 68t-49 18t-49 -16.5t-14 -61.5zM603 141q0 -56 13 -75t50 -19q35 0 49 18t14 68t-14 68t-49 18
t-49 -16.5t-14 -61.5z" />
    <glyph glyph-name="guilsinglleft" unicode="&#x2039;" horiz-adv-x="343" 
d="M196 60l-146 190l146 190h97l-147 -190l147 -190h-97z" />
    <glyph glyph-name="guilsinglright" unicode="&#x203a;" horiz-adv-x="343" 
d="M293 250l-146 -190h-97l147 190l-147 190h97z" />
    <glyph glyph-name="Euro" unicode="&#x20ac;" horiz-adv-x="599" 
d="M371 355h-162v-61h151l-8 -54h-143v-29q0 -71 27.5 -99.5t90.5 -28.5q60 0 86 26t26 88h110q0 -109 -53 -158.5t-169 -49.5q-120 0 -174 54t-54 179v18h-59v54h59v61h-59v54h59v19q0 125 54.5 179t173.5 54q116 0 169 -49.5t53 -158.5h-110q0 60 -26.5 87t-85.5 27
q-63 0 -90.5 -28.5t-27.5 -99.5v-30h171z" />
    <glyph glyph-name="trademark" unicode="&#x2122;" horiz-adv-x="559" 
d="M103 390v218h-65v42h176v-42h-65v-218h-46zM315 650l63 -195l63 195h68v-260h-46v202l-66 -202h-38l-66 202v-202h-46v260h68z" />
    <glyph glyph-name="onethird" unicode="&#x2153;" horiz-adv-x="636" 
d="M174 349h-58v250h-51v32l73 19h36v-301zM516 89q0 39 -41 39h-37v49h35q37 0 37 38q0 40 -45 40q-46 0 -46 -50h-59q0 100 105 100q104 0 104 -90q0 -40 -39 -60q46 -17 46 -68q0 -46 -24.5 -69t-85.5 -23q-58 0 -82.5 24.5t-24.5 75.5h58q0 -50 49 -50q27 0 38.5 10
t11.5 34zM63 0l421 650h60l-421 -650h-60z" />
    <glyph glyph-name="twothirds" unicode="&#x2154;" horiz-adv-x="660" 
d="M540 89q0 39 -41 39h-37v49h35q37 0 37 38q0 40 -45 40q-46 0 -46 -50h-59q0 100 105 100q104 0 104 -90q0 -40 -39 -60q46 -17 46 -68q0 -46 -24.5 -69t-85.5 -23q-58 0 -82.5 24.5t-24.5 75.5h58q0 -50 49 -50q27 0 38.5 10t11.5 34zM119 554h-59q0 100 103 100
q57 0 80 -24t23 -70q0 -35 -22.5 -60t-49 -35.5t-50 -27t-24.5 -38.5h150v-50h-210v32q0 33 15 57t37 37.5t43.5 24.5t36.5 25.5t15 32.5q0 24 -9.5 35t-34.5 11q-44 0 -44 -50zM83 0l421 650h60l-421 -650h-60z" />
    <glyph glyph-name="oneeighth" unicode="&#x215b;" horiz-adv-x="637" 
d="M174 349h-58v250h-51v32l73 19h36v-301zM463 -4q-59 0 -86 20t-27 67q0 52 45 72q-37 22 -37 66q0 46 25.5 65.5t79.5 19.5q52 0 78 -19.5t26 -65.5q0 -45 -37 -66q45 -20 45 -72q0 -47 -27 -67t-85 -20zM463 256q-25 0 -36 -8.5t-11 -31.5q0 -24 11 -32.5t36 -8.5
q24 0 35 8.5t11 32.5q0 23 -11 31.5t-35 8.5zM463 46q52 0 52 41q0 23 -12 33t-40 10q-29 0 -41 -10t-12 -33q0 -41 53 -41zM63 0l421 650h60l-421 -650h-60z" />
    <glyph glyph-name="threeeighths" unicode="&#x215c;" horiz-adv-x="670" 
d="M496 -4q-59 0 -86 20t-27 67q0 52 45 72q-37 22 -37 66q0 46 25.5 65.5t79.5 19.5q52 0 78 -19.5t26 -65.5q0 -45 -37 -66q45 -20 45 -72q0 -47 -27 -67t-85 -20zM496 256q-25 0 -36 -8.5t-11 -31.5q0 -24 11 -32.5t36 -8.5q24 0 35 8.5t11 32.5q0 23 -11 31.5t-35 8.5z
M496 46q52 0 52 41q0 23 -12 33t-40 10q-29 0 -41 -10t-12 -33q0 -41 53 -41zM217 438q0 39 -41 39h-37v49h35q37 0 37 38q0 40 -45 40q-46 0 -46 -50h-59q0 100 105 100q104 0 104 -90q0 -40 -39 -60q46 -17 46 -68q0 -46 -24.5 -69t-85.5 -23q-57 0 -82 25t-25 75h58
q0 -50 49 -50q27 0 38.5 10t11.5 34zM96 0l421 650h60l-421 -650h-60z" />
    <glyph glyph-name="fiveeighths" unicode="&#x215d;" horiz-adv-x="665" 
d="M491 -4q-59 0 -86 20t-27 67q0 52 45 72q-37 22 -37 66q0 46 25.5 65.5t79.5 19.5q52 0 78 -19.5t26 -65.5q0 -45 -37 -66q45 -20 45 -72q0 -47 -27 -67t-85 -20zM491 256q-25 0 -36 -8.5t-11 -31.5q0 -24 11 -32.5t36 -8.5q24 0 35 8.5t11 32.5q0 23 -11 31.5t-35 8.5z
M491 46q52 0 52 41q0 23 -12 33t-40 10q-29 0 -41 -10t-12 -33q0 -41 53 -41zM132 599l-5 -67q27 15 55 15q46 0 69.5 -21.5t23.5 -75.5q0 -53 -25 -79.5t-83 -26.5q-107 0 -107 100h58q0 -50 49 -50q50 0 50 56q0 54 -48 54q-21 0 -44 -18h-58l15 164h179v-51h-129zM91 0
l421 650h60l-421 -650h-60z" />
    <glyph glyph-name="seveneighths" unicode="&#x215e;" horiz-adv-x="634" 
d="M460 -4q-59 0 -86 20t-27 67q0 52 45 72q-37 22 -37 66q0 46 25.5 65.5t79.5 19.5q52 0 78 -19.5t26 -65.5q0 -45 -37 -66q45 -20 45 -72q0 -47 -27 -67t-85 -20zM460 256q-25 0 -36 -8.5t-11 -31.5q0 -24 11 -32.5t36 -8.5q24 0 35 8.5t11 32.5q0 23 -11 31.5t-35 8.5z
M460 46q52 0 52 41q0 23 -12 33t-40 10q-29 0 -41 -10t-12 -33q0 -41 53 -41zM159 349h-61l98 250h-135v51h199v-41zM60 0l421 650h60l-421 -650h-60z" />
    <glyph glyph-name="partialdiff" unicode="&#x2202;" horiz-adv-x="523" 
d="M473 285v-65q0 -131 -51 -181t-166 -50t-165.5 50t-50.5 181v52q0 130 47 180.5t158 50.5q63 0 103 -30q-30 97 -127 208h123q69 -76 99 -169t30 -227zM366 213v65q0 81 -23.5 109.5t-86.5 28.5t-86.5 -28.5t-23.5 -109.5v-65q0 -81 23.5 -109.5t86.5 -28.5t86.5 28.5
t23.5 109.5z" />
    <glyph glyph-name="minus" unicode="&#x2212;" horiz-adv-x="510" 
d="M460 235h-410v80h410v-80z" />
    <glyph glyph-name="integral" unicode="&#x222b;" horiz-adv-x="400" 
d="M231 580v-584q0 -66 -29.5 -91.5t-98.5 -25.5h-55v60h55q25 0 36.5 12t11.5 38v584q0 65 29.5 91t98.5 26h55v-60h-55q-48 0 -48 -50z" />
    <glyph glyph-name="approxequal" unicode="&#x2248;" horiz-adv-x="509" 
d="M349 303q-46 0 -103 35t-80 35q-39 0 -39 -41h-77q2 66 29.5 91.5t79.5 25.5q44 0 101.5 -35t82.5 -35q39 0 39 41h77q-2 -66 -30 -91.5t-80 -25.5zM349 102q-46 0 -103 35t-80 35q-39 0 -39 -41h-77q2 66 29.5 91.5t79.5 25.5q44 0 101.5 -35t82.5 -35q39 0 39 41h77
q-2 -66 -30 -91.5t-80 -25.5z" />
    <glyph glyph-name="notequal" unicode="&#x2260;" horiz-adv-x="510" 
d="M128 0l44 135h-122v80h147l39 120h-186v80h211l44 135h76l-44 -135h123v-80h-148l-39 -120h187v-80h-212l-44 -135h-76z" />
    <glyph glyph-name="lessequal" unicode="&#x2264;" horiz-adv-x="407" 
d="M347 0h-287v80h287v-80zM242 140l-182 202l182 203h105l-183 -203l183 -202h-105z" />
    <glyph glyph-name="greaterequal" unicode="&#x2265;" horiz-adv-x="407" 
d="M347 0h-287v80h287v-80zM347 342l-182 -202h-105l183 202l-183 203h105z" />
    <glyph glyph-name="CR" horiz-adv-x="0" 
 />
    <glyph glyph-name="at.caps" horiz-adv-x="774" 
d="M60 253v146q0 131 81.5 203t245.5 72q163 0 245 -72t82 -203v-146q0 -131 -82 -203t-245 -72q-161 0 -244 72.5t-83 202.5zM136 395v-138q0 -207 251 -207t251 207v138q0 207 -251 207t-251 -207zM228 256q0 94 124 101l110 6v35q0 32 -17.5 45t-59.5 13q-39 0 -56 -14.5
t-17 -49.5h-70q0 70 38 98t105 28q75 0 111 -27.5t36 -92.5v-240h-51l-8 29q-57 -37 -114 -37q-62 0 -96.5 27t-34.5 79zM361 213q51 0 101 33v64l-104 -8q-31 -2 -45 -11.5t-14 -31.5q0 -46 62 -46z" />
    <glyph glyph-name="caron.salt" horiz-adv-x="172" 
d="M50 453v217h92l-28 -217h-64z" />
    <glyph glyph-name="commaaccent" horiz-adv-x="250" 
d="M45 -190l32 130h109l-66 -130h-75z" />
    <glyph glyph-name="one.tnum" horiz-adv-x="540" 
d="M148 0v94h88v462h-108v56l120 38h98v-556h88v-94h-286z" />
    <glyph glyph-name="two.tnum" horiz-adv-x="540" 
d="M157 456h-110q0 205 219 205q120 0 169 -51.5t49 -149.5q0 -64 -33.5 -110t-81 -72.5t-95 -49.5t-81 -56t-33.5 -78h333v-94h-447v63q0 53 18 95.5t47 69t64 48.5t69.5 40t63.5 36.5t47 44.5t18 59q0 58 -23.5 84.5t-83.5 26.5t-84.5 -27t-24.5 -84z" />
    <glyph glyph-name="three.tnum" horiz-adv-x="540" 
d="M389 188q0 97 -102 97h-71v90h66q94 0 94 94q0 98 -111 98q-60 0 -86.5 -27t-26.5 -84h-110q0 205 223 205q221 0 221 -193q0 -47 -27 -81.5t-73 -51.5q115 -36 115 -151q0 -97 -52 -146t-181 -49q-123 0 -176 51t-53 154h110q0 -57 27.5 -84t91.5 -27q65 0 93 24.5
t28 80.5z" />
    <glyph glyph-name="four.tnum" horiz-adv-x="540" 
d="M330 0v142h-310v85l279 423h141v-418h80v-90h-80v-142h-110zM123 232h207v318z" />
    <glyph glyph-name="five.tnum" horiz-adv-x="540" 
d="M182 556l-14 -176q67 42 135 42q97 0 146.5 -46.5t49.5 -160.5q0 -113 -54 -169.5t-176 -56.5q-118 0 -173 51.5t-55 153.5h110q0 -111 118 -111q62 0 91 31t29 101t-28 100t-88 30q-53 0 -102 -40h-113l30 345h380v-94h-286z" />
    <glyph glyph-name="six.tnum" horiz-adv-x="540" 
d="M152 437v-85q64 39 149 39q104 0 150 -46.5t46 -140.5q0 -103 -52.5 -159t-173.5 -56q-126 0 -177.5 57.5t-51.5 169.5v220q0 115 54 170t168 55q116 0 168.5 -47.5t52.5 -144.5h-110q0 52 -25 75t-86 23q-59 0 -85.5 -29t-26.5 -101zM274 316q-68 0 -122 -39v-61
q0 -74 25 -103.5t91 -29.5q67 0 93 27.5t26 89.5t-24.5 89t-88.5 27z" />
    <glyph glyph-name="seven.tnum" horiz-adv-x="540" 
d="M261 0h-116l229 556h-325v94h442v-82z" />
    <glyph glyph-name="eight.tnum" horiz-adv-x="540" 
d="M270 -11q-124 0 -181.5 43t-57.5 141q0 121 114 160q-98 39 -98 146q0 97 55.5 139.5t167.5 42.5t167.5 -42.5t55.5 -139.5q0 -107 -98 -146q114 -39 114 -160q0 -98 -57.5 -141t-181.5 -43zM270 567q-61 0 -87 -21t-26 -76q0 -59 26.5 -80t86.5 -21q59 0 86 21t27 80
q0 55 -26 76t-87 21zM270 83q67 0 97 23t30 77q0 57 -29.5 80.5t-97.5 23.5t-97.5 -23.5t-29.5 -80.5q0 -54 30 -77t97 -23z" />
    <glyph glyph-name="nine.tnum" horiz-adv-x="540" 
d="M275 83q59 0 85.5 29t26.5 101v84q-67 -38 -149 -38q-104 0 -150 46.5t-46 140.5q0 103 52.5 159t173.5 56q126 0 177.5 -57.5t51.5 -169.5v-220q0 -115 -54 -170t-168 -55q-116 0 -168.5 47.5t-52.5 144.5h110q0 -52 25 -75t86 -23zM265 334q70 0 122 38v62
q0 74 -25 103.5t-91 29.5q-67 0 -93 -27.5t-26 -89.5t24.5 -89t88.5 -27z" />
    <glyph glyph-name="zero.tnum" horiz-adv-x="540" 
d="M151 436v-222q0 -76 27.5 -103.5t91.5 -27.5t91.5 27.5t27.5 103.5v222q0 76 -27.5 103.5t-91.5 27.5t-91.5 -27.5t-27.5 -103.5zM499 433v-215q0 -122 -55.5 -175.5t-173.5 -53.5t-173.5 53.5t-55.5 175.5v215q0 122 55.5 175t173.5 53t173.5 -53t55.5 -175z" />
    <glyph glyph-name="dollar.tnum" horiz-adv-x="540" 
d="M314 -20h-87v89q-92 7 -128.5 47t-36.5 116h108q0 -42 20 -58t79 -16q61 0 81 14.5t20 48.5q0 36 -23 51.5t-94 21.5q-106 9 -145 41t-39 104q0 135 158 149v82h87v-82q82 -8 118 -46t36 -117h-108q0 36 -18.5 55.5t-74.5 19.5q-90 0 -90 -62q0 -34 20 -49.5t76 -19.5
q122 -10 163.5 -41.5t41.5 -106.5q0 -32 -5 -53.5t-20.5 -44.5t-50 -36.5t-88.5 -17.5v-89z" />
    <glyph glyph-name="cent.tnum" horiz-adv-x="540" 
d="M482 402h-108q-2 55 -23 74.5t-74 19.5q-64 0 -87.5 -29.5t-23.5 -115.5v-52q0 -86 23.5 -115.5t87.5 -29.5q53 0 74 19.5t23 74.5h108q0 -89 -39.5 -131.5t-120.5 -50.5v-86h-87v85q-93 8 -135 61t-42 173v52q0 119 43 172t134 61v86h87v-86q81 -8 120.5 -50.5
t39.5 -131.5z" />
    <glyph glyph-name="sterling.tnum" horiz-adv-x="540" 
d="M343 0h-309v94q54 0 79 25t25 82q0 19 -17 78h-87v71h67q-3 9 -9.5 30.5t-9.5 33t-6 30.5t-3 36q0 92 52 136.5t143 44.5q110 0 154 -40t44 -141h-110q0 46 -20 66.5t-67 20.5t-66.5 -20.5t-19.5 -66.5q0 -17 2.5 -35.5t5 -30t8 -34l7.5 -30.5h117v-71h-105
q11 -44 11 -69q0 -80 -46 -116h138q38 0 56.5 17t18.5 62h110q0 -93 -36.5 -133t-126.5 -40z" />
    <glyph glyph-name="Euro.tnum" horiz-adv-x="540" 
d="M346 355h-162v-61h152l-9 -54h-143v-29q0 -71 27.5 -99.5t90.5 -28.5q60 0 86 26t26 88h110q0 -109 -53 -158.5t-169 -49.5q-120 0 -174 54t-54 179v18h-59v54h59v61h-59v54h59v19q0 125 54.5 179t173.5 54q116 0 169 -49.5t53 -158.5h-110q0 60 -26.5 87t-85.5 27
q-63 0 -90.5 -28.5t-27.5 -99.5v-30h171z" />
    <glyph glyph-name="yen.tnum" horiz-adv-x="540" 
d="M215 0v74h-128v53h128v67h-128v53h128l-187 403h123l118 -294h2l118 294h123l-187 -403h128v-53h-128v-67h128v-53h-128v-74h-110z" />
    <glyph glyph-name="numbersign.tnum" horiz-adv-x="540" 
d="M492 227l-6 -66h-97l-14 -161h-76l14 161h-117l-14 -161h-75l14 161h-97l6 66h97l17 197h-97l6 66h97l14 160h75l-14 -160h117l14 160h76l-14 -160h97l-6 -66h-97l-17 -197h97zM219 424l-17 -197h117l17 197h-117z" />
    <glyph glyph-name="percent.tnum" horiz-adv-x="540" 
d="M512 650l-408 -650h-76l408 650h76zM145 602q-29 0 -41 -16t-12 -60t12 -60t41 -16t41 16t12 60t-12 60t-41 16zM145 391q-66 0 -95.5 30t-29.5 105q0 74 30 104.5t95 30.5t95 -30.5t30 -104.5q0 -75 -29.5 -105t-95.5 -30zM395 200q-29 0 -41 -16t-12 -60t12 -60t41 -16
t41 16t12 60t-12 60t-41 16zM395 -11q-66 0 -95.5 30t-29.5 105q0 74 30 104.5t95 30.5t95 -30.5t30 -104.5q0 -75 -29.5 -105t-95.5 -30z" />
    <glyph glyph-name="one.onum" horiz-adv-x="346" 
d="M256 0h-108v410h-98v50l140 40h66v-500z" />
    <glyph glyph-name="two.onum" horiz-adv-x="498" 
d="M249 421q-53 0 -74.5 -19t-21.5 -61h-108q0 170 204 170q203 0 203 -164q0 -47 -31 -79.5t-75 -50.5t-88 -33.5t-75 -38.5t-31 -55h309v-90h-423v48q0 55 22.5 95.5t56.5 61t74 38t74 28t56.5 28.5t22.5 43q0 41 -20.5 60t-74.5 19z" />
    <glyph glyph-name="three.onum" horiz-adv-x="526" 
d="M457 340q0 -106 -88 -144q60 -17 88.5 -56.5t28.5 -108.5q0 -105 -53 -158.5t-186 -53.5q-101 0 -183 33v95q93 -38 183 -38q72 0 101.5 30t29.5 94q0 66 -24.5 91.5t-88.5 25.5h-76v86h76q43 0 63.5 22t20.5 74q0 44 -20.5 66.5t-78.5 22.5q-54 0 -75.5 -19t-21.5 -61
h-108q0 80 46 125t158 45q62 0 104.5 -13.5t64 -39t30.5 -54t9 -64.5z" />
    <glyph glyph-name="four.onum" horiz-adv-x="540" 
d="M330 -170v170h-310v85l280 415h140v-410h80v-90h-80v-170h-110zM123 90h207v310z" />
    <glyph glyph-name="five.onum" horiz-adv-x="512" 
d="M220 -181q-90 0 -180 31v99q90 -38 178 -38q83 0 114.5 36t31.5 114q0 72 -23 98.5t-83 26.5t-113 -32h-90l31 346h344v-90h-256l-16 -173q56 33 128 33q189 0 189 -211q0 -115 -56 -177.5t-199 -62.5z" />
    <glyph glyph-name="six.onum" horiz-adv-x="533" 
d="M158 424v-79q64 41 138 41q187 0 187 -188q0 -209 -215 -209q-119 0 -168.5 56t-49.5 165v213q0 111 51.5 164.5t159.5 53.5q109 0 158 -45.5t49 -139.5h-103q0 51 -23.5 73t-80.5 22q-55 0 -79 -28t-24 -99zM271 307q-62 0 -113 -38v-59q0 -73 22.5 -101t84.5 -28
q63 0 86.5 26t23.5 87t-22 87t-82 26z" />
    <glyph glyph-name="seven.onum" horiz-adv-x="442" 
d="M219 -170h-113l202 580h-288v90h402v-78z" />
    <glyph glyph-name="eight.onum" horiz-adv-x="526" 
d="M244 363h38q35 0 57.5 25.5t22.5 66.5q0 52 -25 74t-74 22t-74 -22t-25 -74q0 -41 22.5 -66.5t57.5 -25.5zM263 79q61 0 88.5 23.5t27.5 75.5q0 46 -25.5 75.5t-72.5 29.5h-37q-46 0 -71.5 -29.5t-25.5 -75.5q0 -52 27.5 -75.5t88.5 -23.5zM263 -11q-118 0 -170.5 41
t-52.5 135q0 65 30.5 101.5t92.5 54.5q-49 15 -77 54.5t-28 96.5q0 169 205 169t205 -169q0 -118 -105 -151q62 -18 92.5 -54.5t30.5 -101.5q0 -94 -52.5 -135t-170.5 -41z" />
    <glyph glyph-name="nine.onum" horiz-adv-x="523" 
d="M261 -181q-90 0 -177 32v98q98 -40 175 -40q57 0 81.5 25t24.5 94v93q-58 -37 -138 -37q-187 0 -187 203q0 108 50 166t165 58q118 0 168 -59t50 -168v-258q0 -109 -51.5 -158t-160.5 -49zM252 163q67 0 113 34v83q0 75 -23 107t-84 32q-63 0 -86.5 -30t-23.5 -98
q0 -63 23 -95.5t81 -32.5z" />
    <glyph glyph-name="zero.onum" horiz-adv-x="504" 
d="M356 220v60q0 75 -25 108t-79 33t-79 -33t-25 -108v-60q0 -75 25 -108t79 -33t79 33t25 108zM464 280v-60q0 -125 -54.5 -178t-157.5 -53t-157.5 53t-54.5 178v60q0 125 54.5 178t157.5 53t157.5 -53t54.5 -178z" />
    <glyph glyph-name="dollar.onum" horiz-adv-x="531" 
d="M476 142q0 -30 -5.5 -52t-21 -44.5t-49 -36.5t-84.5 -18v-86h-98v87q-86 8 -122 48t-36 113h108q0 -41 21 -57.5t78 -16.5q59 0 80 14.5t21 48.5q0 36 -23 51.5t-94 21.5q-103 9 -143.5 43t-40.5 102q0 131 151 148v87h98v-86q78 -8 114 -46.5t36 -116.5h-108
q0 36 -18.5 55.5t-74.5 19.5q-90 0 -90 -62q0 -34 20 -49.5t76 -19.5q122 -10 163.5 -41.5t41.5 -106.5z" />
    <glyph glyph-name="cent.onum" horiz-adv-x="508" 
d="M469 327h-108q-2 55 -23 74.5t-74 19.5q-64 0 -87.5 -29.5t-23.5 -115.5v-52q0 -86 23.5 -115.5t87.5 -29.5q53 0 74 19.5t23 74.5h108q0 -88 -38.5 -130.5t-118.5 -51.5v-86h-98v87q-88 8 -128.5 61t-40.5 171v52q0 117 41 170t128 62v87h98v-86q79 -8 118 -51t39 -131z
" />
    <glyph glyph-name="sterling.onum" horiz-adv-x="563" 
d="M190 465q0 -52 28 -138h106v-67h-84q10 -38 10 -70q0 -70 -37 -100h114q51 0 66.5 17t15.5 67h108q0 -98 -36 -136t-122 -38h-309v90h11q51 2 75 23t24 70q0 35 -17 77h-93v67h64q-32 73 -32 140q0 173 191 173q104 0 148.5 -41t44.5 -131h-108q0 42 -19.5 62t-64.5 20
q-44 0 -64 -20t-20 -65z" />
    <glyph glyph-name="Euro.onum" horiz-adv-x="598" 
d="M373 346h-158v-61h148l-9 -54h-139v-24q0 -71 27 -99.5t90 -28.5q59 0 84.5 26t25.5 88h108q0 -109 -51 -156.5t-167 -47.5q-120 0 -172.5 52t-52.5 177v13h-60v54h60v61h-60v54h60v12q0 124 53 176.5t172 52.5q116 0 167 -47.5t51 -156.5h-108q0 60 -25.5 87t-84.5 27
q-63 0 -90 -28.5t-27 -99.5v-23h167z" />
    <glyph glyph-name="yen.onum" horiz-adv-x="536" 
d="M215 0v74h-128v53h128v67h-128v53h128l-187 383h123l118 -274h2l118 274h123l-187 -383h128v-53h-128v-67h128v-53h-128v-74h-110z" />
    <glyph glyph-name="numbersign.onum" horiz-adv-x="564" 
d="M505 227l-6 -66h-97l-14 -161h-76l14 161h-117l-14 -161h-75l14 161h-97l6 66h97l15 177h-97l6 66h97l14 160h75l-14 -160h117l14 160h76l-14 -160h97l-6 -66h-97l-15 -177h97zM230 404l-15 -177h117l15 177h-117z" />
    <glyph glyph-name="percent.onum" horiz-adv-x="683" 
d="M584 630l-409 -630h-76l408 630h77zM132 501q0 -54 13 -72.5t50 -18.5q35 0 49 18t14 68t-14 68t-49 18q-34 0 -48.5 -18t-14.5 -63zM425 141q0 -56 13 -75t50 -19q35 0 49 18t14 68t-14 68t-49 18t-49 -16.5t-14 -61.5zM623 133q0 -80 -32 -112t-103 -32
q-72 0 -103.5 32t-31.5 112t32 112.5t103 32.5t103 -32.5t32 -112.5zM330 496q0 -80 -32 -112.5t-103 -32.5q-72 0 -103.5 32t-31.5 113q0 80 32 112.5t103 32.5t103 -32.5t32 -112.5z" />
    <glyph glyph-name="a.smcp" horiz-adv-x="492" 
d="M363 0l-28 111h-178l-28 -111h-109l157 556h138l157 -556h-109zM245 462l-65 -259h132l-65 259h-2z" />
    <glyph glyph-name="b.smcp" horiz-adv-x="509" 
d="M60 0v556h210q180 0 180 -146q0 -92 -81 -127q100 -33 100 -134q0 -78 -45.5 -113.5t-147.5 -35.5h-216zM279 236h-111v-146h107q49 0 67.5 17.5t18.5 55.5q0 37 -18.5 55t-63.5 18zM168 466v-142h104q40 0 56 18t16 55q0 36 -18 52.5t-62 16.5h-96z" />
    <glyph glyph-name="c.smcp" horiz-adv-x="488" 
d="M247 81q54 0 73.5 21t19.5 70h108q0 -89 -46 -136t-155 -47q-106 0 -156.5 47t-50.5 157v170q0 107 49.5 155.5t157.5 48.5q109 0 155 -46.5t46 -136.5h-108q0 48 -20 69.5t-73 21.5q-61 0 -80 -26.5t-19 -84.5v-172q0 -59 19 -85t80 -26z" />
    <glyph glyph-name="d.smcp" horiz-adv-x="527" 
d="M270 0h-210v556h210q110 0 158.5 -43.5t48.5 -154.5v-159q0 -112 -48.5 -155.5t-158.5 -43.5zM168 90h92q63 0 86 23t23 85v159q0 62 -23 85.5t-86 23.5h-92v-376z" />
    <glyph glyph-name="e.smcp" horiz-adv-x="462" 
d="M379 324v-88h-211v-146h244v-90h-352v556h352v-90h-244v-142h211z" />
    <glyph glyph-name="f.smcp" horiz-adv-x="434" 
d="M361 324v-88h-193v-236h-108v556h334v-90h-226v-142h193z" />
    <glyph glyph-name="g.smcp" horiz-adv-x="522" 
d="M259 -11q-107 0 -158 47t-51 157v174q0 106 50 153t159 47t154.5 -46.5t45.5 -136.5h-108q0 46 -20.5 69.5t-71.5 23.5q-57 0 -79 -27t-22 -83v-175q0 -59 20 -86t81 -27q58 0 79 21t21 56v76h-99v90h207v-322h-48l-16 46q-49 -57 -144 -57z" />
    <glyph glyph-name="h.smcp" horiz-adv-x="524" 
d="M464 556v-556h-108v236h-188v-236h-108v556h108v-232h188v232h108z" />
    <glyph glyph-name="i.smcp" 
d="M60 0v556h108v-556h-108z" />
    <glyph glyph-name="j.smcp" horiz-adv-x="335" 
d="M167 466h-90v90h198v-429q0 -73 -33 -105.5t-104 -32.5q-56 0 -98 11v90q44 -10 75 -10q30 0 41 12.5t11 48.5v325z" />
    <glyph glyph-name="k.smcp" horiz-adv-x="458" 
d="M168 240v-240h-108v556h108v-225l148 225h129l-192 -268l195 -288h-128z" />
    <glyph glyph-name="l.smcp" horiz-adv-x="389" 
d="M60 0v556h108v-466h181v-90h-289z" />
    <glyph glyph-name="m.smcp" horiz-adv-x="668" 
d="M213 556l120 -418h2l120 418h153v-556h-105v428l-125 -428h-89l-124 428v-428h-105v556h153z" />
    <glyph glyph-name="n.smcp" horiz-adv-x="535" 
d="M475 556v-556h-138l-178 417q4 -92 4 -150v-267h-103v556h138l179 -417q-5 140 -5 174v243h103z" />
    <glyph glyph-name="o.smcp" horiz-adv-x="508" 
d="M360 198v160q0 69 -23.5 94t-82.5 25t-82.5 -25t-23.5 -94v-160q0 -69 23.5 -94t82.5 -25t82.5 25t23.5 94zM468 358v-160q0 -114 -51 -161.5t-163 -47.5t-163 47.5t-51 161.5v160q0 114 51 161.5t163 47.5t163 -47.5t51 -161.5z" />
    <glyph glyph-name="p.smcp" horiz-adv-x="488" 
d="M60 0v556h197q108 0 154.5 -40t46.5 -138t-46.5 -139.5t-153.5 -41.5h-90v-197h-108zM168 466v-181h90q52 0 72 21.5t20 70.5q0 45 -20.5 67t-72.5 22h-89z" />
    <glyph glyph-name="q.smcp" horiz-adv-x="528" 
d="M478 358v-160q0 -102 -41 -150.5t-128 -56.5q4 -22 17 -30.5t41 -8.5h42l-23 -53h-55q-97 0 -112 92q-87 8 -128 56.5t-41 150.5v160q0 114 51 161.5t163 47.5t163 -47.5t51 -161.5zM370 198v160q0 69 -23.5 94t-82.5 25t-82.5 -25t-23.5 -94v-160q0 -69 23.5 -94
t82.5 -25t82.5 25t23.5 94z" />
    <glyph glyph-name="r.smcp" horiz-adv-x="515" 
d="M60 0v556h197q108 0 154.5 -40t46.5 -138q0 -134 -96 -168l113 -210h-113l-103 197h-91v-197h-108zM168 466v-181h90q52 0 72 22t20 71q0 45 -20.5 66.5t-72.5 21.5h-89z" />
    <glyph glyph-name="s.smcp" horiz-adv-x="501" 
d="M250 79q59 0 80.5 17.5t21.5 56.5q0 43 -22 61t-89 28q-102 14 -146.5 51.5t-44.5 116.5q0 76 50.5 116.5t146.5 40.5q103 0 151 -41.5t48 -128.5h-106q0 35 -19 57.5t-75 22.5q-91 0 -91 -71q0 -42 22 -59t81 -25q121 -15 162 -54t41 -118q0 -161 -211 -161
q-113 0 -161.5 41.5t-48.5 132.5h108q0 -45 21.5 -64.5t80.5 -19.5z" />
    <glyph glyph-name="t.smcp" horiz-adv-x="432" 
d="M162 0v466h-137v90h382v-90h-137v-466h-108z" />
    <glyph glyph-name="u.smcp" horiz-adv-x="524" 
d="M55 556h108v-379q0 -55 21.5 -76t77.5 -21t77.5 21t21.5 76v379h108v-379q0 -101 -53 -144.5t-154 -43.5t-154 43.5t-53 144.5v379z" />
    <glyph glyph-name="v.smcp" horiz-adv-x="482" 
d="M127 556l113 -444h2l113 444h112l-164 -556h-124l-164 556h112z" />
    <glyph glyph-name="w.smcp" horiz-adv-x="774" 
d="M321 556h132l87 -433h2l87 433h110l-133 -556h-129l-90 450l-90 -450h-129l-133 556h110l87 -433h2z" />
    <glyph glyph-name="x.smcp" horiz-adv-x="469" 
d="M448 556l-156 -270l162 -286h-117l-102 198l-102 -198h-118l162 286l-156 270h118l96 -184l95 184h118z" />
    <glyph glyph-name="y.smcp" horiz-adv-x="440" 
d="M166 0v205l-156 351h113l96 -246h2l96 246h113l-156 -351v-205h-108z" />
    <glyph glyph-name="z.smcp" horiz-adv-x="458" 
d="M49 466v90h359v-74l-242 -392h252v-90h-378v72l243 394h-234z" />
    <glyph glyph-name="ampersand.smcp" horiz-adv-x="565" 
d="M521 236h-67v-83q0 -33 17 -48t54 -15v-90q-51 0 -79.5 11.5t-47.5 37.5q-34 -33 -67.5 -46.5t-89.5 -13.5q-104 0 -152.5 39.5t-48.5 120.5q0 49 26 84t74 49q-44 17 -67 51t-23 77q0 75 49 115.5t146 40.5q104 0 150 -36.5t46 -127.5h-105q0 39 -22 57t-69 18
t-68.5 -18t-21.5 -57q0 -78 100 -78h266v-88zM247 79q55 0 77 18t22 59v80h-109q-39 0 -62.5 -21t-23.5 -60q0 -42 23.5 -59t72.5 -17z" />
    <glyph glyph-name="one.smcp" horiz-adv-x="340" 
d="M250 0h-108v466h-102v51l139 39h71v-556z" />
    <glyph glyph-name="two.smcp" horiz-adv-x="506" 
d="M50 0v61q0 55 21.5 96.5t54 64.5t70.5 43.5t70.5 35t54 38.5t21.5 55q0 39 -19 61t-71 22q-50 0 -70.5 -22t-20.5 -63h-108q0 86 51 130.5t148 44.5q198 0 198 -171q0 -40 -16 -71.5t-41.5 -51.5t-56 -37t-61 -31t-56 -29t-41.5 -37t-16 -49h298v-90h-410z" />
    <glyph glyph-name="three.smcp" horiz-adv-x="520" 
d="M161 392h-108q0 175 200 175q103 0 151 -41.5t48 -124.5q0 -89 -89 -117q107 -24 107 -130q0 -83 -47.5 -124t-163.5 -41q-113 0 -161 41.5t-48 132.5h108q0 -45 21.5 -64.5t80.5 -19.5q60 0 81 19t21 61q0 43 -19 61t-64 18h-63v88h63q34 0 49.5 17t15.5 53q0 81 -91 81
q-48 0 -70 -20.5t-22 -64.5z" />
    <glyph glyph-name="four.smcp" horiz-adv-x="503" 
d="M301 0v108h-271v83l259 365h120v-358h64v-90h-64v-108h-108zM130 198h171v242z" />
    <glyph glyph-name="five.smcp" horiz-adv-x="517" 
d="M161 252h-97l29 304h340v-90h-247l-12 -137q56 30 116 30q93 0 135 -42.5t42 -139.5q0 -96 -49 -142t-161 -46q-113 0 -160 44.5t-47 129.5h108q0 -43 23.5 -63.5t75.5 -20.5q59 0 80 22t21 76q0 60 -20.5 84t-68.5 24q-59 0 -108 -33z" />
    <glyph glyph-name="six.smcp" horiz-adv-x="513" 
d="M158 359v-50q57 36 125 36q100 0 140 -40t40 -132q0 -96 -49 -140t-157 -44q-109 0 -158 48.5t-49 160.5v161q0 110 50.5 159t155.5 49q97 0 145 -36t50 -128h-108q0 40 -20.5 57t-68.5 17q-52 0 -74 -27t-22 -91zM261 272q-58 0 -103 -29v-61q0 -57 25 -80t73 -23
q54 0 77 23.5t23 71.5q0 55 -20.5 76.5t-74.5 21.5z" />
    <glyph glyph-name="seven.smcp" horiz-adv-x="454" 
d="M233 0h-113l183 471h-263v85h374v-71z" />
    <glyph glyph-name="eight.smcp" horiz-adv-x="532" 
d="M266 -11q-113 0 -164.5 38.5t-51.5 117.5q0 109 113 138q-95 24 -95 135q0 149 198 149q197 0 197 -149q0 -110 -94 -135q113 -29 113 -138q0 -79 -51.5 -117.5t-164.5 -38.5zM248 323h36q30 0 50 19t20 55q0 45 -21 62.5t-67 17.5t-67.5 -17.5t-21.5 -62.5
q0 -36 20.5 -55t50.5 -19zM283 245h-34q-46 0 -68 -22.5t-22 -59.5q0 -45 24.5 -64.5t82.5 -19.5t82.5 19.5t24.5 64.5q0 37 -22.5 59.5t-67.5 22.5z" />
    <glyph glyph-name="nine.smcp" horiz-adv-x="513" 
d="M355 197v47q-51 -32 -126 -32q-93 0 -136 42.5t-43 128.5q0 184 206 184q109 0 158 -48.5t49 -160.5v-161q0 -112 -47.5 -160t-158.5 -48q-95 0 -144 36.5t-51 127.5h108q0 -40 20.5 -57t68.5 -17q57 0 76.5 26t19.5 92zM252 284q58 0 103 29v61q0 57 -25 80t-73 23
q-53 0 -76.5 -23.5t-23.5 -71.5q0 -55 20.5 -76.5t74.5 -21.5z" />
    <glyph glyph-name="zero.smcp" horiz-adv-x="512" 
d="M462 358v-160q0 -111 -50 -160t-156 -49t-156 49t-50 160v160q0 111 50.5 160t155.5 49t155.5 -49t50.5 -160zM354 198v160q0 67 -22.5 93t-75.5 26t-75.5 -26t-22.5 -93v-160q0 -67 22.5 -93t75.5 -26t75.5 26t22.5 93z" />
    <glyph glyph-name="dollar.smcp" horiz-adv-x="516" 
d="M466 169q0 -30 -5.5 -52t-21 -44.5t-49 -36.5t-84.5 -18v-86h-98v87q-86 8 -122 48t-36 113h108q0 -41 21 -57.5t78 -16.5q59 0 80 14.5t21 48.5q0 36 -23 51.5t-94 21.5q-103 9 -143.5 43t-40.5 102q0 131 151 148v87h98v-86q78 -8 114 -46.5t36 -116.5h-108
q0 36 -18.5 55.5t-74.5 19.5q-90 0 -90 -62q0 -34 20 -49.5t76 -19.5q122 -10 163.5 -41.5t41.5 -106.5z" />
    <glyph glyph-name="cent.smcp" horiz-adv-x="524" 
d="M474 355h-108q-2 55 -23 74.5t-74 19.5q-64 0 -87.5 -29.5t-23.5 -115.5v-52q0 -86 23.5 -115.5t87.5 -29.5q53 0 74 19.5t23 74.5h108q0 -88 -38.5 -130.5t-118.5 -51.5v-86h-98v87q-88 8 -128.5 61t-40.5 171v52q0 117 41 170t128 62v87h98v-86q79 -8 118 -51t39 -131z
" />
    <glyph glyph-name="sterling.smcp" horiz-adv-x="539" 
d="M191 395q0 -51 14 -100h100v-67h-82q4 -17 4 -42q0 -65 -35 -96h116q51 0 67 17t16 67h108q0 -98 -36.5 -136t-122.5 -38h-290v90q52 0 71 21t19 71q0 20 -7 46h-83v67h58q-25 62 -25 111q0 159 185 159q101 0 144 -41.5t43 -127.5h-108q0 41 -17.5 60t-60.5 19
q-41 0 -59.5 -19.5t-18.5 -60.5z" />
    <glyph glyph-name="Euro.smcp" horiz-adv-x="571" 
d="M360 304h-142v-53h132l-9 -54h-123v-22q0 -54 22 -75t77 -21q56 0 76 21t20 73h108q0 -101 -45 -142.5t-159 -41.5q-112 0 -159.5 46t-47.5 145v17h-60v54h60v53h-60v54h60v16q0 101 47 147t160 46q114 0 159 -40.5t45 -137.5h-108q0 49 -21.5 68.5t-74.5 19.5
q-56 0 -77.5 -22t-21.5 -76v-21h151z" />
    <glyph glyph-name="yen.smcp" horiz-adv-x="520" 
d="M82 221h121l-163 335h110l109 -249h2l109 249h110l-163 -335h121v-54h-124v-44h124v-54h-124v-69h-108v69h-124v54h124v44h-124v54z" />
    <glyph glyph-name="numbersign.smcp" horiz-adv-x="538" 
d="M478 201l-6 -70h-82l-11 -131h-80l11 131h-108l-11 -131h-80l11 131h-82l6 70h82l14 154h-82l6 70h82l11 131h80l-11 -131h108l11 131h80l-11 -131h82l-6 -70h-82l-14 -154h82zM222 355l-14 -154h108l14 154h-108z" />
    <glyph glyph-name="percent.smcp" horiz-adv-x="606" 
d="M536 556l-377 -556h-88l376 556h89zM284 439q0 -71 -27.5 -99t-89.5 -28t-89.5 28t-27.5 99q0 70 27.5 98.5t89.5 28.5t89.5 -28.5t27.5 -98.5zM125 444q0 -42 8.5 -56t33.5 -14q23 0 32.5 13.5t9.5 51.5t-9.5 51.5t-32.5 13.5t-32.5 -13t-9.5 -47zM556 116
q0 -71 -27.5 -99t-89.5 -28t-89.5 28t-27.5 99q0 70 27.5 98.5t89.5 28.5t89.5 -28.5t27.5 -98.5zM397 121q0 -42 8.5 -56t33.5 -14q23 0 32.5 13.5t9.5 51.5t-9.5 51.5t-32.5 13.5t-32.5 -13t-9.5 -47z" />
    <glyph glyph-name="one.tnum_smcp" horiz-adv-x="520" 
d="M130 0v90h87v372h-102v55l119 39h91v-466h87v-90h-282z" />
    <glyph glyph-name="two.tnum_smcp" horiz-adv-x="520" 
d="M55 0v61q0 55 21.5 96.5t54 64.5t70.5 43.5t70.5 35t54 38.5t21.5 55q0 39 -19 61t-71 22q-50 0 -70.5 -22t-20.5 -63h-108q0 86 51 130.5t148 44.5q198 0 198 -171q0 -40 -16 -71.5t-41.5 -51.5t-56 -37t-61 -31t-56 -29t-41.5 -37t-16 -49h298v-90h-410z" />
    <glyph glyph-name="three.tnum_smcp" horiz-adv-x="520" 
d="M161 392h-108q0 175 200 175q103 0 151 -41.5t48 -124.5q0 -89 -89 -117q107 -24 107 -130q0 -83 -47.5 -124t-163.5 -41q-113 0 -161 41.5t-48 132.5h108q0 -45 21.5 -64.5t80.5 -19.5q60 0 81 19t21 61q0 43 -19 61t-64 18h-63v88h63q34 0 49.5 17t15.5 53q0 81 -91 81
q-48 0 -70 -20.5t-22 -64.5z" />
    <glyph glyph-name="four.tnum_smcp" horiz-adv-x="520" 
d="M309 0v108h-271v83l259 365h120v-358h64v-90h-64v-108h-108zM138 198h171v242z" />
    <glyph glyph-name="five.tnum_smcp" horiz-adv-x="520" 
d="M162 252h-97l29 304h340v-90h-247l-12 -137q56 30 116 30q93 0 135 -42.5t42 -139.5q0 -96 -49 -142t-161 -46q-113 0 -160 44.5t-47 129.5h108q0 -43 23.5 -63.5t75.5 -20.5q59 0 80 22t21 76q0 60 -20.5 84t-68.5 24q-59 0 -108 -33z" />
    <glyph glyph-name="six.tnum_smcp" horiz-adv-x="520" 
d="M161 359v-50q57 36 125 36q100 0 140 -40t40 -132q0 -96 -49 -140t-157 -44q-109 0 -158 48.5t-49 160.5v161q0 110 50.5 159t155.5 49q97 0 145 -36t50 -128h-108q0 40 -20.5 57t-68.5 17q-52 0 -74 -27t-22 -91zM264 272q-58 0 -103 -29v-61q0 -57 25 -80t73 -23
q53 0 76.5 23.5t23.5 71.5q0 55 -20.5 76.5t-74.5 21.5z" />
    <glyph glyph-name="seven.tnum_smcp" horiz-adv-x="520" 
d="M258 0h-113l201 471h-283v85h394v-71z" />
    <glyph glyph-name="eight.tnum_smcp" horiz-adv-x="520" 
d="M260 -11q-113 0 -164.5 38.5t-51.5 117.5q0 109 113 138q-95 24 -95 135q0 149 198 149q197 0 197 -149q0 -110 -94 -135q113 -29 113 -138q0 -79 -51.5 -117.5t-164.5 -38.5zM242 323h36q30 0 50 19t20 55q0 45 -21 62.5t-67 17.5t-67.5 -17.5t-21.5 -62.5
q0 -36 20.5 -55t50.5 -19zM277 245h-34q-46 0 -68 -22.5t-22 -59.5q0 -45 24.5 -64.5t82.5 -19.5t82.5 19.5t24.5 64.5q0 37 -22.5 59.5t-67.5 22.5z" />
    <glyph glyph-name="nine.tnum_smcp" horiz-adv-x="520" 
d="M358 197v47q-51 -32 -126 -32q-93 0 -136 42.5t-43 128.5q0 184 206 184q109 0 158 -48.5t49 -160.5v-161q0 -112 -47.5 -160t-158.5 -48q-95 0 -144 36.5t-51 127.5h108q0 -40 20.5 -57t68.5 -17q57 0 76.5 26t19.5 92zM255 284q58 0 103 29v61q0 57 -25 80t-73 23
q-54 0 -77 -23.5t-23 -71.5q0 -55 20.5 -76.5t74.5 -21.5z" />
    <glyph glyph-name="zero.tnum_smcp" horiz-adv-x="520" 
d="M466 358v-160q0 -111 -50 -160t-156 -49t-156 49t-50 160v160q0 111 50.5 160t155.5 49t155.5 -49t50.5 -160zM358 198v160q0 67 -22.5 93t-75.5 26t-75.5 -26t-22.5 -93v-160q0 -67 22.5 -93t75.5 -26t75.5 26t22.5 93z" />
    <glyph glyph-name="dollar.tnum_smcp" horiz-adv-x="520" 
d="M468 169q0 -30 -5.5 -52t-21 -44.5t-49 -36.5t-84.5 -18v-86h-98v87q-86 8 -122 48t-36 113h108q0 -41 21 -57.5t78 -16.5q59 0 80 14.5t21 48.5q0 36 -23 51.5t-94 21.5q-103 9 -143.5 43t-40.5 102q0 131 151 148v87h98v-86q78 -8 114 -46.5t36 -116.5h-108
q0 36 -18.5 55.5t-74.5 19.5q-90 0 -90 -62q0 -34 20 -49.5t76 -19.5q122 -10 163.5 -41.5t41.5 -106.5z" />
    <glyph glyph-name="cent.tnum_smcp" horiz-adv-x="520" 
d="M472 355h-108q-2 55 -23 74.5t-74 19.5q-64 0 -87.5 -29.5t-23.5 -115.5v-52q0 -86 23.5 -115.5t87.5 -29.5q53 0 74 19.5t23 74.5h108q0 -88 -38.5 -130.5t-118.5 -51.5v-86h-98v87q-88 8 -128.5 61t-40.5 171v52q0 117 41 170t128 62v87h98v-86q79 -8 118 -51t39 -131z
" />
    <glyph glyph-name="sterling.tnum_smcp" horiz-adv-x="520" 
d="M176 395q0 -51 14 -100h100v-67h-82q4 -17 4 -42q0 -65 -35 -96h116q51 0 67 17t16 67h108q0 -98 -36.5 -136t-122.5 -38h-290v90q52 0 71 21t19 71q0 20 -7 46h-83v67h58q-25 62 -25 111q0 159 185 159q101 0 144 -41.5t43 -127.5h-108q0 41 -17.5 60t-60.5 19
q-41 0 -59.5 -19.5t-18.5 -60.5z" />
    <glyph glyph-name="Euro.tnum_smcp" horiz-adv-x="520" 
d="M334 304h-142v-53h132l-9 -54h-123v-22q0 -54 22 -75t77 -21q56 0 76 21t20 73h108q0 -101 -45 -142.5t-159 -41.5q-112 0 -159.5 46t-47.5 145v17h-60v54h60v53h-60v54h60v16q0 101 47 147t160 46q114 0 159 -40.5t45 -137.5h-108q0 49 -21.5 68.5t-74.5 19.5
q-56 0 -77.5 -22t-21.5 -76v-21h151z" />
    <glyph glyph-name="yen.tnum_smcp" horiz-adv-x="520" 
d="M82 221h121l-163 335h110l109 -249h2l109 249h110l-163 -335h121v-54h-124v-44h124v-54h-124v-69h-108v69h-124v54h124v44h-124v54z" />
    <glyph glyph-name="numbersign.tnum_smcp" horiz-adv-x="558" 
d="M489 201l-6 -70h-87l-12 -131h-80l12 131h-99l-12 -131h-80l12 131h-87l6 70h87l13 154h-87l6 70h87l12 131h80l-12 -131h99l12 131h80l-12 -131h87l-6 -70h-87l-13 -154h87zM236 355l-13 -154h99l13 154h-99z" />
    <glyph glyph-name="percent.tnum_smcp" horiz-adv-x="520" 
d="M498 556l-387 -556h-88l386 556h89zM246 439q0 -71 -27.5 -99t-89.5 -28t-89.5 28t-27.5 99q0 70 27.5 98.5t89.5 28.5t89.5 -28.5t27.5 -98.5zM87 444q0 -42 8.5 -56t33.5 -14q23 0 32.5 13.5t9.5 51.5t-9.5 51.5t-32.5 13.5t-32.5 -13t-9.5 -47zM508 116
q0 -71 -27.5 -99t-89.5 -28t-89.5 28t-27.5 99q0 70 27.5 98.5t89.5 28.5t89.5 -28.5t27.5 -98.5zM349 121q0 -42 8.5 -56t33.5 -14q23 0 32.5 13.5t9.5 51.5t-9.5 51.5t-32.5 13.5t-32.5 -13t-9.5 -47z" />
    <glyph glyph-name="acute.smcp" horiz-adv-x="235" 
d="M45 610l35 120h108l-76 -120h-67z" />
    <glyph glyph-name="grave.smcp" horiz-adv-x="235" 
d="M153 730l35 -120h-67l-76 120h108z" />
    <glyph glyph-name="circumflex.smcp" horiz-adv-x="315" 
d="M218 730l58 -120h-71l-47 62l-46 -62h-71l57 120h120z" />
    <glyph glyph-name="dieresis.smcp" horiz-adv-x="370" 
d="M59 616v91h91v-91h-91zM214 616v91h92v-91h-92z" />
    <glyph glyph-name="tilde.smcp" horiz-adv-x="400" 
d="M254 679q34 0 34 37h63q0 -59 -21.5 -85t-65.5 -26q-30 0 -63.5 23t-53.5 23q-34 0 -34 -37h-64q0 60 21.5 85.5t65.5 25.5q31 0 64.5 -23t53.5 -23z" />
    <glyph glyph-name="caron.smcp" horiz-adv-x="337" 
d="M288 730l-58 -120h-120l-57 120h71l46 -63l47 63h71z" />
    <glyph glyph-name="ring.smcp" horiz-adv-x="300" 
d="M150 777q50 0 77.5 -22.5t27.5 -66.5t-27.5 -67t-77.5 -23q-49 0 -76.5 23t-27.5 67t27.5 66.5t76.5 22.5zM150 649q43 0 43 39q0 38 -43 38t-43 -38q0 -39 43 -39z" />
    <glyph glyph-name="breve.smcp" horiz-adv-x="324" 
d="M162 598q-60 0 -91 33.5t-31 96.5h66q0 -62 56 -62q57 0 57 62h66q0 -63 -31 -96.5t-92 -33.5z" />
    <glyph glyph-name="macron.smcp" horiz-adv-x="370" 
d="M63 619v71h243v-71h-243z" />
    <glyph glyph-name="dotaccent.smcp" horiz-adv-x="208" 
d="M56 616v92h93v-92h-93z" />
    <glyph glyph-name="hungarumlaut.smcp" horiz-adv-x="384" 
d="M57 610l19 120h100l-53 -120h-66zM188 610l42 120h101l-76 -120h-67z" />
    <glyph glyph-name="aacute.smcp" horiz-adv-x="492" 
d="M363 0l-28 111h-178l-28 -111h-109l157 556h138l157 -556h-109zM245 462l-65 -259h132l-65 259h-2zM215 610l35 120h108l-76 -120h-67z" />
    <glyph glyph-name="agrave.smcp" horiz-adv-x="492" 
d="M363 0l-28 111h-178l-28 -111h-109l157 556h138l157 -556h-109zM245 462l-65 -259h132l-65 259h-2zM250 730l35 -120h-67l-76 120h108z" />
    <glyph glyph-name="acircumflex.smcp" horiz-adv-x="492" 
d="M363 0l-28 111h-178l-28 -111h-109l157 556h138l157 -556h-109zM245 462l-65 -259h132l-65 259h-2zM306 730l58 -120h-71l-47 62l-46 -62h-71l57 120h120z" />
    <glyph glyph-name="adieresis.smcp" horiz-adv-x="492" 
d="M363 0l-28 111h-178l-28 -111h-109l157 556h138l157 -556h-109zM245 462l-65 -259h132l-65 259h-2zM123 616v91h91v-91h-91zM278 616v91h92v-91h-92z" />
    <glyph glyph-name="atilde.smcp" horiz-adv-x="492" 
d="M363 0l-28 111h-178l-28 -111h-109l157 556h138l157 -556h-109zM245 462l-65 -259h132l-65 259h-2zM300 679q34 0 34 37h63q0 -59 -21.5 -85t-65.5 -26q-30 0 -63.5 23t-53.5 23q-34 0 -34 -37h-64q0 60 21.5 85.5t65.5 25.5q31 0 64.5 -23t53.5 -23z" />
    <glyph glyph-name="aring.smcp" horiz-adv-x="492" 
d="M363 0l-28 111h-178l-28 -111h-109l157 556h138l157 -556h-109zM245 462l-65 -259h132l-65 259h-2zM246 777q50 0 77.5 -22.5t27.5 -66.5t-27.5 -67t-77.5 -23q-49 0 -76.5 23t-27.5 67t27.5 66.5t76.5 22.5zM246 649q43 0 43 39q0 38 -43 38t-43 -38q0 -39 43 -39z" />
    <glyph glyph-name="amacron.smcp" horiz-adv-x="492" 
d="M363 0l-28 111h-178l-28 -111h-109l157 556h138l157 -556h-109zM245 462l-65 -259h132l-65 259h-2zM124 619v71h243v-71h-243z" />
    <glyph glyph-name="abreve.smcp" horiz-adv-x="492" 
d="M363 0l-28 111h-178l-28 -111h-109l157 556h138l157 -556h-109zM245 462l-65 -259h132l-65 259h-2zM246 598q-60 0 -91 33.5t-31 96.5h66q0 -62 56 -62q57 0 57 62h66q0 -63 -31 -96.5t-92 -33.5z" />
    <glyph glyph-name="aogonek.smcp" horiz-adv-x="492" 
d="M363 0l-28 111h-178l-28 -111h-109l157 556h138l157 -556q-50 -36 -50 -76q0 -30 36 -30h14v-65h-50q-81 0 -81 70q0 59 62 101h-40zM245 462l-65 -259h132l-65 259h-2z" />
    <glyph glyph-name="ae.smcp" horiz-adv-x="765" 
d="M682 324v-88h-211v-146h244v-90h-352v111h-178l-56 -111h-109l287 556h408v-90h-244v-142h211zM361 466l-130 -263h132v263h-2z" />
    <glyph glyph-name="bdotaccent.smcp" horiz-adv-x="509" 
d="M60 0v556h210q180 0 180 -146q0 -92 -81 -127q100 -33 100 -134q0 -78 -45.5 -113.5t-147.5 -35.5h-216zM279 236h-111v-146h107q49 0 67.5 17.5t18.5 55.5q0 37 -18.5 55t-63.5 18zM168 466v-142h104q40 0 56 18t16 55q0 36 -18 52.5t-62 16.5h-96zM207 616v92h93v-92
h-93z" />
    <glyph glyph-name="cacute.smcp" horiz-adv-x="488" 
d="M247 81q54 0 73.5 21t19.5 70h108q0 -89 -46 -136t-155 -47q-106 0 -156.5 47t-50.5 157v170q0 107 49.5 155.5t157.5 48.5q109 0 155 -46.5t46 -136.5h-108q0 48 -20 69.5t-73 21.5q-61 0 -80 -26.5t-19 -84.5v-172q0 -59 19 -85t80 -26zM218 610l35 120h108l-76 -120
h-67z" />
    <glyph glyph-name="ccircumflex.smcp" horiz-adv-x="488" 
d="M247 81q54 0 73.5 21t19.5 70h108q0 -89 -46 -136t-155 -47q-106 0 -156.5 47t-50.5 157v170q0 107 49.5 155.5t157.5 48.5q109 0 155 -46.5t46 -136.5h-108q0 48 -20 69.5t-73 21.5q-61 0 -80 -26.5t-19 -84.5v-172q0 -59 19 -85t80 -26zM306 730l58 -120h-71l-47 62
l-46 -62h-71l57 120h120z" />
    <glyph glyph-name="ccaron.smcp" horiz-adv-x="488" 
d="M247 81q54 0 73.5 21t19.5 70h108q0 -89 -46 -136t-155 -47q-106 0 -156.5 47t-50.5 157v170q0 107 49.5 155.5t157.5 48.5q109 0 155 -46.5t46 -136.5h-108q0 48 -20 69.5t-73 21.5q-61 0 -80 -26.5t-19 -84.5v-172q0 -59 19 -85t80 -26zM366 730l-58 -120h-120l-57 120
h71l46 -63l47 63h71z" />
    <glyph glyph-name="ccedilla.smcp" horiz-adv-x="488" 
d="M247 81q54 0 73.5 21t19.5 70h108q0 -86 -42.5 -132.5t-143.5 -50.5l-10 -35q67 -10 67 -70q0 -40 -25.5 -56.5t-77.5 -16.5h-58v43h57q42 0 42 30t-42 30h-20l23 76q-91 6 -134.5 53.5t-43.5 149.5v170q0 107 49.5 155.5t157.5 48.5q109 0 155 -46.5t46 -136.5h-108
q0 48 -20 69.5t-73 21.5q-61 0 -80 -26.5t-19 -84.5v-172q0 -59 19 -85t80 -26z" />
    <glyph glyph-name="cdotaccent.smcp" horiz-adv-x="488" 
d="M247 81q54 0 73.5 21t19.5 70h108q0 -89 -46 -136t-155 -47q-106 0 -156.5 47t-50.5 157v170q0 107 49.5 155.5t157.5 48.5q109 0 155 -46.5t46 -136.5h-108q0 48 -20 69.5t-73 21.5q-61 0 -80 -26.5t-19 -84.5v-172q0 -59 19 -85t80 -26zM201 616v92h93v-92h-93z" />
    <glyph glyph-name="dcaron.smcp" horiz-adv-x="527" 
d="M270 0h-210v556h210q110 0 158.5 -43.5t48.5 -154.5v-159q0 -112 -48.5 -155.5t-158.5 -43.5zM168 90h92q63 0 86 23t23 85v159q0 62 -23 85.5t-86 23.5h-92v-376zM371 730l-58 -120h-120l-57 120h71l46 -63l47 63h71z" />
    <glyph glyph-name="ddotaccent.smcp" horiz-adv-x="527" 
d="M270 0h-210v556h210q110 0 158.5 -43.5t48.5 -154.5v-159q0 -112 -48.5 -155.5t-158.5 -43.5zM168 90h92q63 0 86 23t23 85v159q0 62 -23 85.5t-86 23.5h-92v-376zM206 616v92h93v-92h-93z" />
    <glyph glyph-name="dcroat.smcp" horiz-adv-x="535" 
d="M278 0h-210v244h-53v71h53v241h210q110 0 158.5 -43.5t48.5 -154.5v-159q0 -112 -48.5 -155.5t-158.5 -43.5zM176 90h92q63 0 86 23t23 85v159q0 62 -23 85.5t-86 23.5h-92v-151h77v-71h-77v-154z" />
    <glyph glyph-name="eth.smcp" horiz-adv-x="535" 
d="M278 0h-210v244h-53v71h53v241h210q110 0 158.5 -43.5t48.5 -154.5v-159q0 -112 -48.5 -155.5t-158.5 -43.5zM176 90h92q63 0 86 23t23 85v159q0 62 -23 85.5t-86 23.5h-92v-151h77v-71h-77v-154z" />
    <glyph glyph-name="eacute.smcp" horiz-adv-x="462" 
d="M379 324v-88h-211v-146h244v-90h-352v556h352v-90h-244v-142h211zM209 610l35 120h108l-76 -120h-67z" />
    <glyph glyph-name="egrave.smcp" horiz-adv-x="462" 
d="M379 324v-88h-211v-146h244v-90h-352v556h352v-90h-244v-142h211zM246 730l35 -120h-67l-76 120h108z" />
    <glyph glyph-name="ecircumflex.smcp" horiz-adv-x="462" 
d="M379 324v-88h-211v-146h244v-90h-352v556h352v-90h-244v-142h211zM301 730l58 -120h-71l-47 62l-46 -62h-71l57 120h120z" />
    <glyph glyph-name="edieresis.smcp" horiz-adv-x="462" 
d="M379 324v-88h-211v-146h244v-90h-352v556h352v-90h-244v-142h211zM118 616v91h91v-91h-91zM273 616v91h92v-91h-92z" />
    <glyph glyph-name="ecaron.smcp" horiz-adv-x="462" 
d="M379 324v-88h-211v-146h244v-90h-352v556h352v-90h-244v-142h211zM359 730l-58 -120h-120l-57 120h71l46 -63l47 63h71z" />
    <glyph glyph-name="emacron.smcp" horiz-adv-x="462" 
d="M379 324v-88h-211v-146h244v-90h-352v556h352v-90h-244v-142h211zM119 619v71h243v-71h-243z" />
    <glyph glyph-name="ebreve.smcp" horiz-adv-x="462" 
d="M379 324v-88h-211v-146h244v-90h-352v556h352v-90h-244v-142h211zM240 598q-60 0 -91 33.5t-31 96.5h66q0 -62 56 -62q57 0 57 62h66q0 -63 -31 -96.5t-92 -33.5z" />
    <glyph glyph-name="eogonek.smcp" horiz-adv-x="462" 
d="M412 -106v-65h-50q-81 0 -81 70q0 59 62 101h-283v556h352v-90h-244v-142h211v-88h-211v-146h244v-90q-50 -36 -50 -76q0 -30 36 -30h14z" />
    <glyph glyph-name="edotaccent.smcp" horiz-adv-x="462" 
d="M379 324v-88h-211v-146h244v-90h-352v556h352v-90h-244v-142h211zM189 616v92h93v-92h-93z" />
    <glyph glyph-name="fdotaccent.smcp" horiz-adv-x="434" 
d="M361 324v-88h-193v-236h-108v556h334v-90h-226v-142h193zM180 616v92h93v-92h-93z" />
    <glyph glyph-name="gcircumflex.smcp" horiz-adv-x="522" 
d="M259 -11q-107 0 -158 47t-51 157v174q0 106 50 153t159 47t154.5 -46.5t45.5 -136.5h-108q0 46 -20.5 69.5t-71.5 23.5q-57 0 -79 -27t-22 -83v-175q0 -59 20 -86t81 -27q58 0 79 21t21 56v76h-99v90h207v-322h-48l-16 46q-49 -57 -144 -57zM321 730l58 -120h-71l-47 62
l-46 -62h-71l57 120h120z" />
    <glyph glyph-name="gbreve.smcp" horiz-adv-x="522" 
d="M259 -11q-107 0 -158 47t-51 157v174q0 106 50 153t159 47t154.5 -46.5t45.5 -136.5h-108q0 46 -20.5 69.5t-71.5 23.5q-57 0 -79 -27t-22 -83v-175q0 -59 20 -86t81 -27q58 0 79 21t21 56v76h-99v90h207v-322h-48l-16 46q-49 -57 -144 -57zM261 598q-60 0 -91 33.5
t-31 96.5h66q0 -62 56 -62q57 0 57 62h66q0 -63 -31 -96.5t-92 -33.5z" />
    <glyph glyph-name="gdotaccent.smcp" horiz-adv-x="522" 
d="M259 -11q-107 0 -158 47t-51 157v174q0 106 50 153t159 47t154.5 -46.5t45.5 -136.5h-108q0 46 -20.5 69.5t-71.5 23.5q-57 0 -79 -27t-22 -83v-175q0 -59 20 -86t81 -27q58 0 79 21t21 56v76h-99v90h207v-322h-48l-16 46q-49 -57 -144 -57zM214 616v92h93v-92h-93z" />
    <glyph glyph-name="gcommaaccent.smcp" horiz-adv-x="522" 
d="M259 -11q-107 0 -158 47t-51 157v174q0 106 50 153t159 47t154.5 -46.5t45.5 -136.5h-108q0 46 -20.5 69.5t-71.5 23.5q-57 0 -79 -27t-22 -83v-175q0 -59 20 -86t81 -27q58 0 79 21t21 56v76h-99v90h207v-322h-48l-16 46q-49 -57 -144 -57zM180 -190l32 130h109
l-66 -130h-75z" />
    <glyph glyph-name="hcircumflex.smcp" horiz-adv-x="524" 
d="M464 556v-556h-108v236h-188v-236h-108v556h108v-232h188v232h108zM322 730l58 -120h-71l-47 62l-46 -62h-71l57 120h120z" />
    <glyph glyph-name="hbar.smcp" horiz-adv-x="526" 
d="M10 412v63h51v81h108v-81h188v81h108v-81h51v-63h-51v-412h-108v236h-188v-236h-108v412h-51zM169 324h188v88h-188v-88z" />
    <glyph glyph-name="iacute.smcp" 
d="M60 0v556h108v-556h-108zM80 610l35 120h108l-76 -120h-67z" />
    <glyph glyph-name="igrave.smcp" 
d="M60 0v556h108v-556h-108zM112 730l35 -120h-67l-76 120h108z" />
    <glyph glyph-name="icircumflex.smcp" 
d="M60 0v556h108v-556h-108zM174 730l58 -120h-71l-47 62l-46 -62h-71l57 120h120z" />
    <glyph glyph-name="idieresis.smcp" 
d="M60 0v556h108v-556h-108zM-9 616v91h91v-91h-91zM146 616v91h92v-91h-92z" />
    <glyph glyph-name="itilde.smcp" 
d="M168 590q-32 0 -60 22.5t-42 22.5q-22 0 -22 -37h-59q0 60 17 85t57 25q30 0 58.5 -22.5t42.5 -22.5q24 0 24 37h58q0 -59 -17 -84.5t-57 -25.5zM60 0v556h108v-556h-108z" />
    <glyph glyph-name="imacron.smcp" 
d="M9 614v76h210v-76h-210zM60 0v556h108v-556h-108z" />
    <glyph glyph-name="ibreve.smcp" 
d="M60 0v556h108v-556h-108zM115 598q-60 0 -91 33.5t-31 96.5h66q0 -62 56 -62q57 0 57 62h66q0 -63 -31 -96.5t-92 -33.5z" />
    <glyph glyph-name="iogonek.smcp" 
d="M60 0v556h108v-556q-50 -36 -50 -76q0 -30 36 -30h14v-65h-50q-81 0 -81 70q0 59 62 101h-39z" />
    <glyph glyph-name="jcircumflex.smcp" horiz-adv-x="335" 
d="M167 466h-90v90h198v-429q0 -73 -33 -105.5t-104 -32.5q-56 0 -98 11v90q44 -10 75 -10q30 0 41 12.5t11 48.5v325zM227 730l58 -120h-71l-47 62l-46 -62h-71l57 120h120z" />
    <glyph glyph-name="kcommaaccent.smcp" horiz-adv-x="458" 
d="M168 240v-240h-108v556h108v-225l148 225h129l-192 -268l195 -288h-128zM148 -190l32 130h109l-66 -130h-75z" />
    <glyph glyph-name="lacute.smcp" horiz-adv-x="389" 
d="M60 0v556h108v-466h181v-90h-289zM84 610l35 120h108l-76 -120h-67z" />
    <glyph glyph-name="lcaron.smcp" horiz-adv-x="389" 
d="M220 376v200h87l-29 -200h-58zM60 0v556h108v-466h181v-90h-289z" />
    <glyph glyph-name="lcommaaccent.smcp" horiz-adv-x="389" 
d="M60 0v556h108v-466h181v-90h-289zM114 -190l32 130h109l-66 -130h-75z" />
    <glyph glyph-name="ldot.smcp" horiz-adv-x="389" 
d="M221 244v96h96v-96h-96zM60 0v556h108v-466h181v-90h-289z" />
    <glyph glyph-name="lslash.smcp" horiz-adv-x="394" 
d="M65 0v208l-61 -23v71l61 24v276h108v-236l101 40v-72l-101 -40v-158h181v-90h-289z" />
    <glyph glyph-name="mdotaccent.smcp" horiz-adv-x="668" 
d="M213 556l120 -418h2l120 418h153v-556h-105v428l-125 -428h-89l-124 428v-428h-105v556h153zM287 616v92h93v-92h-93z" />
    <glyph glyph-name="nacute.smcp" horiz-adv-x="535" 
d="M475 556v-556h-138l-178 417q4 -92 4 -150v-267h-103v556h138l179 -417q-5 140 -5 174v243h103zM238 610l35 120h108l-76 -120h-67z" />
    <glyph glyph-name="ntilde.smcp" horiz-adv-x="535" 
d="M475 556v-556h-138l-178 417q4 -92 4 -150v-267h-103v556h138l179 -417q-5 140 -5 174v243h103zM321 679q34 0 34 37h63q0 -59 -21.5 -85t-65.5 -26q-30 0 -63.5 23t-53.5 23q-34 0 -34 -37h-64q0 60 21.5 85.5t65.5 25.5q31 0 64.5 -23t53.5 -23z" />
    <glyph glyph-name="ncaron.smcp" horiz-adv-x="535" 
d="M475 556v-556h-138l-178 417q4 -92 4 -150v-267h-103v556h138l179 -417q-5 140 -5 174v243h103zM385 730l-58 -120h-120l-57 120h71l46 -63l47 63h71z" />
    <glyph glyph-name="ncommaaccent.smcp" horiz-adv-x="535" 
d="M475 556v-556h-138l-178 417q4 -92 4 -150v-267h-103v556h138l179 -417q-5 140 -5 174v243h103zM187 -190l32 130h109l-66 -130h-75z" />
    <glyph glyph-name="eng.smcp" horiz-adv-x="535" 
d="M475 556v-609q0 -73 -33 -105.5t-104 -32.5q-56 0 -98 11v90q44 -10 75 -10q30 0 41 12.5t11 48.5l-204 451v-412h-103v556h139l173 -386v386h103z" />
    <glyph glyph-name="oacute.smcp" horiz-adv-x="508" 
d="M360 198v160q0 69 -23.5 94t-82.5 25t-82.5 -25t-23.5 -94v-160q0 -69 23.5 -94t82.5 -25t82.5 25t23.5 94zM468 358v-160q0 -114 -51 -161.5t-163 -47.5t-163 47.5t-51 161.5v160q0 114 51 161.5t163 47.5t163 -47.5t51 -161.5zM227 610l35 120h108l-76 -120h-67z" />
    <glyph glyph-name="ograve.smcp" horiz-adv-x="508" 
d="M360 198v160q0 69 -23.5 94t-82.5 25t-82.5 -25t-23.5 -94v-160q0 -69 23.5 -94t82.5 -25t82.5 25t23.5 94zM468 358v-160q0 -114 -51 -161.5t-163 -47.5t-163 47.5t-51 161.5v160q0 114 51 161.5t163 47.5t163 -47.5t51 -161.5zM252 730l35 -120h-67l-76 120h108z" />
    <glyph glyph-name="ocircumflex.smcp" horiz-adv-x="508" 
d="M360 198v160q0 69 -23.5 94t-82.5 25t-82.5 -25t-23.5 -94v-160q0 -69 23.5 -94t82.5 -25t82.5 25t23.5 94zM468 358v-160q0 -114 -51 -161.5t-163 -47.5t-163 47.5t-51 161.5v160q0 114 51 161.5t163 47.5t163 -47.5t51 -161.5zM314 730l58 -120h-71l-47 62l-46 -62h-71
l57 120h120z" />
    <glyph glyph-name="odieresis.smcp" horiz-adv-x="508" 
d="M360 198v160q0 69 -23.5 94t-82.5 25t-82.5 -25t-23.5 -94v-160q0 -69 23.5 -94t82.5 -25t82.5 25t23.5 94zM468 358v-160q0 -114 -51 -161.5t-163 -47.5t-163 47.5t-51 161.5v160q0 114 51 161.5t163 47.5t163 -47.5t51 -161.5zM131 616v91h91v-91h-91zM286 616v91h92
v-91h-92z" />
    <glyph glyph-name="otilde.smcp" horiz-adv-x="508" 
d="M360 198v160q0 69 -23.5 94t-82.5 25t-82.5 -25t-23.5 -94v-160q0 -69 23.5 -94t82.5 -25t82.5 25t23.5 94zM468 358v-160q0 -114 -51 -161.5t-163 -47.5t-163 47.5t-51 161.5v160q0 114 51 161.5t163 47.5t163 -47.5t51 -161.5zM308 679q34 0 34 37h63q0 -59 -21.5 -85
t-65.5 -26q-30 0 -63.5 23t-53.5 23q-34 0 -34 -37h-64q0 60 21.5 85.5t65.5 25.5q31 0 64.5 -23t53.5 -23z" />
    <glyph glyph-name="obreve.smcp" horiz-adv-x="508" 
d="M360 198v160q0 69 -23.5 94t-82.5 25t-82.5 -25t-23.5 -94v-160q0 -69 23.5 -94t82.5 -25t82.5 25t23.5 94zM468 358v-160q0 -114 -51 -161.5t-163 -47.5t-163 47.5t-51 161.5v160q0 114 51 161.5t163 47.5t163 -47.5t51 -161.5zM254 598q-60 0 -91 33.5t-31 96.5h66
q0 -62 56 -62q57 0 57 62h66q0 -63 -31 -96.5t-92 -33.5z" />
    <glyph glyph-name="omacron.smcp" horiz-adv-x="508" 
d="M360 198v160q0 69 -23.5 94t-82.5 25t-82.5 -25t-23.5 -94v-160q0 -69 23.5 -94t82.5 -25t82.5 25t23.5 94zM468 358v-160q0 -114 -51 -161.5t-163 -47.5t-163 47.5t-51 161.5v160q0 114 51 161.5t163 47.5t163 -47.5t51 -161.5zM132 619v71h243v-71h-243z" />
    <glyph glyph-name="ohungarumlaut.smcp" horiz-adv-x="508" 
d="M360 198v160q0 69 -23.5 94t-82.5 25t-82.5 -25t-23.5 -94v-160q0 -69 23.5 -94t82.5 -25t82.5 25t23.5 94zM468 358v-160q0 -114 -51 -161.5t-163 -47.5t-163 47.5t-51 161.5v160q0 114 51 161.5t163 47.5t163 -47.5t51 -161.5zM160 610l19 120h100l-53 -120h-66z
M291 610l42 120h101l-76 -120h-67z" />
    <glyph glyph-name="oslash.smcp" horiz-adv-x="508" 
d="M468 358v-160q0 -114 -51 -161.5t-163 -47.5q-79 0 -127 22l-19 -31h-76l45 72q-37 49 -37 146v160q0 114 51 161.5t163 47.5q80 0 126 -23l20 32h76l-45 -73q37 -49 37 -145zM148 198q0 -20 1 -29l179 290q-24 18 -74 18q-59 0 -82.5 -25t-23.5 -94v-160zM360 198v160
q0 5 -0.5 14.5t-0.5 13.5l-179 -290q22 -17 74 -17q59 0 82.5 25t23.5 94z" />
    <glyph glyph-name="oe.smcp" horiz-adv-x="762" 
d="M360 466h-106q-59 0 -82.5 -25t-23.5 -94v-138q0 -69 23.5 -94t82.5 -25h106v376zM254 556h458v-90h-244v-142h211v-88h-211v-146h244v-90h-458q-112 0 -163 47.5t-51 161.5v138q0 114 51 161.5t163 47.5z" />
    <glyph glyph-name="thorn.smcp" horiz-adv-x="488" 
d="M168 368v-179h89q52 0 72.5 22t20.5 68q0 45 -20.5 67t-72.5 22h-89zM168 458h89q107 0 154 -40.5t47 -138.5q0 -99 -47 -140t-154 -41h-89v-98h-108v556h108v-98z" />
    <glyph glyph-name="pdotaccent.smcp" horiz-adv-x="488" 
d="M60 0v556h197q108 0 154.5 -40t46.5 -138t-46.5 -139.5t-153.5 -41.5h-90v-197h-108zM168 466v-181h90q52 0 72 21.5t20 70.5q0 45 -20.5 67t-72.5 22h-89zM197 616v92h93v-92h-93z" />
    <glyph glyph-name="racute.smcp" horiz-adv-x="515" 
d="M60 0v556h197q108 0 154.5 -40t46.5 -138q0 -134 -96 -168l113 -210h-113l-103 197h-91v-197h-108zM168 466v-181h90q52 0 72 22t20 71q0 45 -20.5 66.5t-72.5 21.5h-89zM210 610l35 120h108l-76 -120h-67z" />
    <glyph glyph-name="rcaron.smcp" horiz-adv-x="515" 
d="M60 0v556h197q108 0 154.5 -40t46.5 -138q0 -134 -96 -168l113 -210h-113l-103 197h-91v-197h-108zM168 466v-181h90q52 0 72 22t20 71q0 45 -20.5 66.5t-72.5 21.5h-89zM362 730l-58 -120h-120l-57 120h71l46 -63l47 63h71z" />
    <glyph glyph-name="rcommaaccent.smcp" horiz-adv-x="515" 
d="M60 0v556h197q108 0 154.5 -40t46.5 -138q0 -134 -96 -168l113 -210h-113l-103 197h-91v-197h-108zM168 466v-181h90q52 0 72 22t20 71q0 45 -20.5 66.5t-72.5 21.5h-89zM177 -190l32 130h109l-66 -130h-75z" />
    <glyph glyph-name="sacute.smcp" horiz-adv-x="501" 
d="M250 79q59 0 80.5 17.5t21.5 56.5q0 43 -22 61t-89 28q-102 14 -146.5 51.5t-44.5 116.5q0 76 50.5 116.5t146.5 40.5q103 0 151 -41.5t48 -128.5h-106q0 35 -19 57.5t-75 22.5q-91 0 -91 -71q0 -42 22 -59t81 -25q121 -15 162 -54t41 -118q0 -161 -211 -161
q-113 0 -161.5 41.5t-48.5 132.5h108q0 -45 21.5 -64.5t80.5 -19.5zM219 610l35 120h108l-76 -120h-67z" />
    <glyph glyph-name="scircumflex.smcp" horiz-adv-x="501" 
d="M250 79q59 0 80.5 17.5t21.5 56.5q0 43 -22 61t-89 28q-102 14 -146.5 51.5t-44.5 116.5q0 76 50.5 116.5t146.5 40.5q103 0 151 -41.5t48 -128.5h-106q0 35 -19 57.5t-75 22.5q-91 0 -91 -71q0 -42 22 -59t81 -25q121 -15 162 -54t41 -118q0 -161 -211 -161
q-113 0 -161.5 41.5t-48.5 132.5h108q0 -45 21.5 -64.5t80.5 -19.5zM310 730l58 -120h-71l-47 62l-46 -62h-71l57 120h120z" />
    <glyph glyph-name="scaron.smcp" horiz-adv-x="501" 
d="M250 79q59 0 80.5 17.5t21.5 56.5q0 43 -22 61t-89 28q-102 14 -146.5 51.5t-44.5 116.5q0 76 50.5 116.5t146.5 40.5q103 0 151 -41.5t48 -128.5h-106q0 35 -19 57.5t-75 22.5q-91 0 -91 -71q0 -42 22 -59t81 -25q121 -15 162 -54t41 -118q0 -161 -211 -161
q-113 0 -161.5 41.5t-48.5 132.5h108q0 -45 21.5 -64.5t80.5 -19.5zM368 730l-58 -120h-120l-57 120h71l46 -63l47 63h71z" />
    <glyph glyph-name="sdotaccent.smcp" horiz-adv-x="501" 
d="M250 79q59 0 80.5 17.5t21.5 56.5q0 43 -22 61t-89 28q-102 14 -146.5 51.5t-44.5 116.5q0 76 50.5 116.5t146.5 40.5q103 0 151 -41.5t48 -128.5h-106q0 35 -19 57.5t-75 22.5q-91 0 -91 -71q0 -42 22 -59t81 -25q121 -15 162 -54t41 -118q0 -161 -211 -161
q-113 0 -161.5 41.5t-48.5 132.5h108q0 -45 21.5 -64.5t80.5 -19.5zM203 616v92h93v-92h-93z" />
    <glyph glyph-name="scedilla.smcp" horiz-adv-x="501" 
d="M250 79q59 0 80.5 17.5t21.5 56.5q0 43 -22 61t-89 28q-102 14 -146.5 51.5t-44.5 116.5q0 76 50.5 116.5t146.5 40.5q103 0 151 -41.5t48 -128.5h-106q0 35 -19 57.5t-75 22.5q-91 0 -91 -71q0 -42 22 -59t81 -25q121 -15 162 -54t41 -118q0 -155 -197 -161l-10 -35
q67 -10 67 -70q0 -40 -25.5 -56.5t-77.5 -16.5h-58v43h57q42 0 42 30t-42 30h-20l23 76q-97 5 -138.5 46.5t-41.5 126.5h108q0 -45 21.5 -64.5t80.5 -19.5z" />
    <glyph glyph-name="scommaaccent.smcp" horiz-adv-x="501" 
d="M250 79q59 0 80.5 17.5t21.5 56.5q0 43 -22 61t-89 28q-102 14 -146.5 51.5t-44.5 116.5q0 76 50.5 116.5t146.5 40.5q103 0 151 -41.5t48 -128.5h-106q0 35 -19 57.5t-75 22.5q-91 0 -91 -71q0 -42 22 -59t81 -25q121 -15 162 -54t41 -118q0 -161 -211 -161
q-113 0 -161.5 41.5t-48.5 132.5h108q0 -45 21.5 -64.5t80.5 -19.5zM160 -190l32 130h109l-66 -130h-75z" />
    <glyph glyph-name="germandbls.smcp" horiz-adv-x="1002" 
d="M250 79q59 0 80.5 17.5t21.5 56.5q0 43 -22 61t-89 28q-102 14 -146.5 51.5t-44.5 116.5q0 76 50.5 116.5t146.5 40.5q103 0 151 -41.5t48 -128.5h-106q0 35 -19 57.5t-75 22.5q-91 0 -91 -71q0 -42 22 -59t81 -25q121 -15 162 -54t41 -118q0 -161 -211 -161
q-113 0 -161.5 41.5t-48.5 132.5h108q0 -45 21.5 -64.5t80.5 -19.5zM751 79q59 0 80.5 17.5t21.5 56.5q0 43 -22 61t-89 28q-102 14 -146.5 51.5t-44.5 116.5q0 76 50.5 116.5t146.5 40.5q103 0 151 -41.5t48 -128.5h-106q0 35 -19 57.5t-75 22.5q-91 0 -91 -71
q0 -42 22 -59t81 -25q121 -15 162 -54t41 -118q0 -161 -211 -161q-113 0 -161.5 41.5t-48.5 132.5h108q0 -45 21.5 -64.5t80.5 -19.5z" />
    <glyph glyph-name="tcaron.smcp" horiz-adv-x="432" 
d="M162 0v466h-137v90h382v-90h-137v-466h-108zM334 730l-58 -120h-120l-57 120h71l46 -63l47 63h71z" />
    <glyph glyph-name="tdotaccent.smcp" horiz-adv-x="432" 
d="M162 0v466h-137v90h382v-90h-137v-466h-108zM169 616v92h93v-92h-93z" />
    <glyph glyph-name="tcommaaccent.smcp" horiz-adv-x="432" 
d="M162 0v466h-137v90h382v-90h-137v-466h-108zM128 -190l32 130h109l-66 -130h-75z" />
    <glyph glyph-name="tbar.smcp" horiz-adv-x="432" 
d="M78 220v69h84v177h-137v90h382v-90h-137v-177h84v-69h-84v-220h-108v220h-84z" />
    <glyph glyph-name="uacute.smcp" horiz-adv-x="524" 
d="M55 556h108v-379q0 -55 21.5 -76t77.5 -21t77.5 21t21.5 76v379h108v-379q0 -101 -53 -144.5t-154 -43.5t-154 43.5t-53 144.5v379zM231 610l35 120h108l-76 -120h-67z" />
    <glyph glyph-name="ugrave.smcp" horiz-adv-x="524" 
d="M55 556h108v-379q0 -55 21.5 -76t77.5 -21t77.5 21t21.5 76v379h108v-379q0 -101 -53 -144.5t-154 -43.5t-154 43.5t-53 144.5v379zM265 730l35 -120h-67l-76 120h108z" />
    <glyph glyph-name="ucircumflex.smcp" horiz-adv-x="524" 
d="M55 556h108v-379q0 -55 21.5 -76t77.5 -21t77.5 21t21.5 76v379h108v-379q0 -101 -53 -144.5t-154 -43.5t-154 43.5t-53 144.5v379zM322 730l58 -120h-71l-47 62l-46 -62h-71l57 120h120z" />
    <glyph glyph-name="udieresis.smcp" horiz-adv-x="524" 
d="M55 556h108v-379q0 -55 21.5 -76t77.5 -21t77.5 21t21.5 76v379h108v-379q0 -101 -53 -144.5t-154 -43.5t-154 43.5t-53 144.5v379zM139 616v91h91v-91h-91zM294 616v91h92v-91h-92z" />
    <glyph glyph-name="utilde.smcp" horiz-adv-x="524" 
d="M55 556h108v-379q0 -55 21.5 -76t77.5 -21t77.5 21t21.5 76v379h108v-379q0 -101 -53 -144.5t-154 -43.5t-154 43.5t-53 144.5v379zM316 679q34 0 34 37h63q0 -59 -21.5 -85t-65.5 -26q-30 0 -63.5 23t-53.5 23q-34 0 -34 -37h-64q0 60 21.5 85.5t65.5 25.5
q31 0 64.5 -23t53.5 -23z" />
    <glyph glyph-name="uring.smcp" horiz-adv-x="524" 
d="M55 556h108v-379q0 -55 21.5 -76t77.5 -21t77.5 21t21.5 76v379h108v-379q0 -101 -53 -144.5t-154 -43.5t-154 43.5t-53 144.5v379zM262 777q50 0 77.5 -22.5t27.5 -66.5t-27.5 -67t-77.5 -23q-49 0 -76.5 23t-27.5 67t27.5 66.5t76.5 22.5zM262 649q43 0 43 39
q0 38 -43 38t-43 -38q0 -39 43 -39z" />
    <glyph glyph-name="ubreve.smcp" horiz-adv-x="524" 
d="M55 556h108v-379q0 -55 21.5 -76t77.5 -21t77.5 21t21.5 76v379h108v-379q0 -101 -53 -144.5t-154 -43.5t-154 43.5t-53 144.5v379zM262 598q-60 0 -91 33.5t-31 96.5h66q0 -62 56 -62q57 0 57 62h66q0 -63 -31 -96.5t-92 -33.5z" />
    <glyph glyph-name="umacron.smcp" horiz-adv-x="524" 
d="M55 556h108v-379q0 -55 21.5 -76t77.5 -21t77.5 21t21.5 76v379h108v-379q0 -101 -53 -144.5t-154 -43.5t-154 43.5t-53 144.5v379zM140 619v71h243v-71h-243z" />
    <glyph glyph-name="uhungarumlaut.smcp" horiz-adv-x="524" 
d="M55 556h108v-379q0 -55 21.5 -76t77.5 -21t77.5 21t21.5 76v379h108v-379q0 -101 -53 -144.5t-154 -43.5t-154 43.5t-53 144.5v379zM165 610l19 120h100l-53 -120h-66zM296 610l42 120h101l-76 -120h-67z" />
    <glyph glyph-name="uogonek.smcp" horiz-adv-x="524" 
d="M348 -106v-65h-50q-81 0 -81 70q0 51 47 90h-2q-101 0 -154 43.5t-53 144.5v379h108v-379q0 -55 21.5 -76t77.5 -21t77.5 21t21.5 76v379h108v-379q0 -151 -125 -179q-46 -34 -46 -74q0 -30 36 -30h14z" />
    <glyph glyph-name="wacute.smcp" horiz-adv-x="774" 
d="M321 556h132l87 -433h2l87 433h110l-133 -556h-129l-90 450l-90 -450h-129l-133 556h110l87 -433h2zM355 610l35 120h108l-76 -120h-67z" />
    <glyph glyph-name="wgrave.smcp" horiz-adv-x="774" 
d="M321 556h132l87 -433h2l87 433h110l-133 -556h-129l-90 450l-90 -450h-129l-133 556h110l87 -433h2zM388 730l35 -120h-67l-76 120h108z" />
    <glyph glyph-name="wcircumflex.smcp" horiz-adv-x="774" 
d="M321 556h132l87 -433h2l87 433h110l-133 -556h-129l-90 450l-90 -450h-129l-133 556h110l87 -433h2zM447 730l58 -120h-71l-47 62l-46 -62h-71l57 120h120z" />
    <glyph glyph-name="wdieresis.smcp" horiz-adv-x="774" 
d="M321 556h132l87 -433h2l87 433h110l-133 -556h-129l-90 450l-90 -450h-129l-133 556h110l87 -433h2zM264 616v91h91v-91h-91zM419 616v91h92v-91h-92z" />
    <glyph glyph-name="yacute.smcp" horiz-adv-x="440" 
d="M166 0v205l-156 351h113l96 -246h2l96 246h113l-156 -351v-205h-108zM184 610l35 120h108l-76 -120h-67z" />
    <glyph glyph-name="ygrave.smcp" horiz-adv-x="440" 
d="M166 0v205l-156 351h113l96 -246h2l96 246h113l-156 -351v-205h-108zM218 730l35 -120h-67l-76 120h108z" />
    <glyph glyph-name="ycircumflex.smcp" horiz-adv-x="440" 
d="M166 0v205l-156 351h113l96 -246h2l96 246h113l-156 -351v-205h-108zM280 730l58 -120h-71l-47 62l-46 -62h-71l57 120h120z" />
    <glyph glyph-name="ydieresis.smcp" horiz-adv-x="440" 
d="M166 0v205l-156 351h113l96 -246h2l96 246h113l-156 -351v-205h-108zM97 616v91h91v-91h-91zM252 616v91h92v-91h-92z" />
    <glyph glyph-name="zacute.smcp" horiz-adv-x="458" 
d="M49 466v90h359v-74l-242 -392h252v-90h-378v72l243 394h-234zM187 610l35 120h108l-76 -120h-67z" />
    <glyph glyph-name="zcaron.smcp" horiz-adv-x="458" 
d="M49 466v90h359v-74l-242 -392h252v-90h-378v72l243 394h-234zM347 730l-58 -120h-120l-57 120h71l46 -63l47 63h71z" />
    <glyph glyph-name="zdotaccent.smcp" horiz-adv-x="458" 
d="M49 466v90h359v-74l-242 -392h252v-90h-378v72l243 394h-234zM182 616v92h93v-92h-93z" />
    </font>
</defs>
</svg>
